/* XPM */
static char *result[] = {
/* columns rows colors chars-per-pixel */
"64 64 179 2 ",
"   c #000000",
".  c #0A0702",
"X  c #0E0A02",
"o  c #00000A",
"O  c #080C0D",
"+  c #130E02",
"@  c #161002",
"#  c #191507",
"$  c #1E1A0A",
"%  c #18160B",
"&  c #231900",
"*  c #221D0D",
"=  c #211E11",
"-  c #2B2000",
";  c #282108",
":  c #372700",
">  c #352909",
",  c #2E2610",
"<  c #342A10",
"1  c #443000",
"2  c #4B3600",
"3  c #4E3B00",
"4  c #403311",
"5  c #4C3F22",
"6  c #5B4900",
"7  c #4E401A",
"8  c #534211",
"9  c #65530E",
"0  c #5C4D22",
"q  c #574A22",
"w  c #6D5922",
"e  c #635428",
"r  c #6D5D33",
"t  c #756025",
"y  c #756437",
"u  c #585848",
"i  c #6B6850",
"p  c #766E51",
"a  c #8B732D",
"s  c #94792C",
"d  c #91762F",
"f  c #8B7837",
"g  c #85723C",
"h  c #887537",
"j  c #917730",
"k  c #937D3B",
"l  c #977C31",
"z  c #8C7941",
"x  c #827956",
"c  c #9F8438",
"v  c #A6862C",
"b  c #AB8C39",
"n  c #A78836",
"m  c #BF9B36",
"M  c #B5943B",
"N  c #BF9C3C",
"B  c #C19D34",
"V  c #C19D3A",
"C  c #C5A13D",
"Z  c #998747",
"A  c #9F8C4D",
"S  c #A59150",
"D  c #BDA049",
"F  c #BCA152",
"G  c #938760",
"H  c #A4986E",
"J  c #B6A263",
"K  c #ACA17C",
"L  c #BEAC75",
"P  c #C19F41",
"I  c #C6A342",
"U  c #C9A644",
"Y  c #C7A54A",
"T  c #C8A648",
"R  c #CDAB4C",
"E  c #CBA845",
"W  c #D8B44F",
"Q  c #CEAE50",
"!  c #D0AE51",
"~  c #CFB05A",
"^  c #D3B255",
"/  c #D4B45A",
"(  c #DCBB5E",
")  c #DDBA52",
"_  c #C4AB64",
"`  c #CBB36C",
"'  c #D2B462",
"]  c #DBBC62",
"[  c #D0B96F",
"{  c #DCBE6B",
"}  c #CEB770",
"|  c #DFC068",
" . c #D7C074",
".. c #DAC271",
"X. c #E2C165",
"o. c #E3C56B",
"O. c #E6C86C",
"+. c #ECCD6F",
"@. c #F1CE69",
"#. c #E3C671",
"$. c #E7CA71",
"%. c #EACD75",
"&. c #E4CB7B",
"*. c #ECCF7A",
"=. c #EED17A",
"-. c #F1D47C",
";. c #F6D97F",
":. c #F1D277",
">. c #B6AA80",
",. c #CABD91",
"<. c #E5CA82",
"1. c #EED383",
"2. c #EED58B",
"3. c #E5D18B",
"4. c #F2D683",
"5. c #F6DA82",
"6. c #FADE85",
"7. c #F1D78B",
"8. c #F2D98D",
"9. c #FADE8A",
"0. c #EED794",
"q. c #EFD894",
"w. c #EFD99A",
"e. c #E8D395",
"r. c #F1DA93",
"t. c #F8DF93",
"y. c #F2DC9C",
"u. c #FDE186",
"i. c #FCE28B",
"p. c #FFEB8E",
"a. c #FDE493",
"s. c #FFEB93",
"d. c #FDE59B",
"f. c #FEEA9B",
"g. c #FFF295",
"h. c #FFF29B",
"j. c #E1D3A4",
"k. c #E7D8A4",
"l. c #EDDBA3",
"z. c #EFDDAD",
"x. c #F2DEA4",
"c. c #F1DEAC",
"v. c #F4E2A7",
"b. c #FCE6A3",
"n. c #FEE9A3",
"m. c #F5E3AD",
"M. c #F8E6A9",
"N. c #FEEBAC",
"B. c #FFF7A3",
"V. c #FFF1AA",
"C. c #FFFFAD",
"Z. c #EFE0B6",
"A. c #EFE2BC",
"S. c #F3E3B4",
"D. c #F7E8B3",
"F. c #FEEDB4",
"G. c #F2E4BB",
"H. c #F6EABD",
"J. c #FEEEBB",
"K. c #FFF2B4",
"L. c #FFF2BC",
"P. c #FFFBBC",
"I. c #F6EAC2",
"U. c #FCEFC3",
"Y. c #F2E7C3",
"T. c #FFF2C4",
"R. c #FFFAC6",
"E. c #FEF4CA",
"W. c #FFFBCC",
"Q. c #FDF5D3",
"!. c #FFFDD3",
"~. c #FDF6DA",
"^. c #FFFBDB",
"/. c #FBF7E5",
"(. c #FEFAE4",
"). c #FFFCEC",
"_. c #FFFDF2",
"`. c #FFFFFD",
"'. c None",
/* pixels */
"'.'.'.'.'.'.'.'.'.'.'.'.'.'.'.'.'.'.'.'.'.'.'.'.'.'.'.'.'.'.'.'.'.'.'.'.'.'.'.'.'.'.'.'.'.'.'.'.'.'.'.'.'.'.'.'.'.'.'.'.'.'.'.'.",
"'.'.'.'.'.'.'.'.'.'.'.'.'.'.'.'.'.'.'./._._.)._._.).~.'.'.'.'.'.'.'.'.'.'.'.'.'.'.'.'.'.'.'.'.'.'.'.'.'.'.'.'.'.'.'.'.'.'.'.'.'.",
"'.'.'.'.'.'.'.'.'.'.'.'.'.'.'.'.'././._.`.`.`.`.`.`.(./.'.'.'.'.'.'.'.'.'.'.'.'.'.'.'.'.'.'.'.'.'.'.'.'.'.'.'.'.'.'.'.'.'.'.'.'.",
"'.'.'.'.'.'.'.'.'.'.'.'.'.'.'.'.(.`._._._._._.)._._._.`.).'.'.'.'.'.'.'.'.'.'.'.'.'.'.'.'.'.'.'.'.'.'.'.'.'.'.'.'.'.'.'.'.'.'.'.",
"'.'.'.'.'.'.'.'.'.'.'.'.'.'.'.)._._.).).)._.(././.(.)._._._./.'.'.'.'.'.'.'.'.'.'.'.'.'.'.'.'.'.'.'.'.'.'.'.'.'.'.'.'.'.'.'.'.'.",
"'.'.'.'.'.'.'.'.'.'.'.'.'.'.)._._._._./.~.Q.E.E.E.E.E.Q.(._._.(.'.'.'.'.'.'.'.'.'.'.'.'.'.'.'.'.'.'.'.'.'.'.'.'.'.'.'.'.'.'.'.'.",
"'.'.'.'.'.'.'.'.'.'.'.'.'./.`._._./.~.E.E.U.L.T.U.T.T.T.E.Q.).).'.'.'.'.'.'.'.'.'.'.'.'.'.'.'.'.'.'.'.'.'.'.'.'.'.'.'.'.'.'.'.'.",
"'.'.'.'.'.'.'.'.'.'.'.'.'._._.).(.E.T.T.T.U.T.T.T.T.T.T.U.L.E.(.(.'.'.'.'.'.'.'.'.'.'.'.'.'.'.'.'.'.'.'.'.'.'.'.'.'.'.'.'.'.'.'.",
"'.'.'.'.'.'.'.'.'.'.'.'.)._._.(.E.T.T.T.T.T.T.T.T.U.T.T.T.T.T.T.(.(.'.'.'.'.'.'.'.'.'.'.'.'.'.'.'.'.'.'.'.'.'.'.'.'.'.'.'.'.'.'.",
"'.'.'.'.'.'.'.'.'.'.'./.`._.(.E.T.T.T.T.T.T.T.T.T.T.T.T.T.T.T.T.E.^.'.'.'.'.'.'.'.'.'.'.'.'.'.'.'.'.'.'.'.'.'.'.'.'.'.'.'.'.'.'.",
"'.'.'.'.'.'.'.'.'.'.'._._.(.E.F.U.T.K.F.F.F.T.T.T.T.T.T.T.T.T.T.T.!.T.'.'.'.'.'.'.'.'.'.'.'.'.'.'.'.'.'.'.'.'.'.'.'.'.'.'.'.'.'.",
"'.'.'.'.'.'.'.'.'.'./.`._.~.F.N.F.n.d.a.n.N.L.T.T.T.T.T.T.T.T.T.T.E.K.'.'.'.'.'.'.'.'.'.'.'.'.'.'.'.'.'.'.'.'.'.'.'.'.'.'.'.'.'.",
"'.'.'.'.'.'.'.'.'.'._._.(.U.d.d.d.i.d.b.N.F.J.U.T.T.T.T.T.T.T.T.T.T.K.p.'.'.'.'.'.'.'.'.'.'.'.'.'.'.'.'.'.'.'.'.'.'.'.'.'.'.'.'.",
"'.'.'.'.'.'.'.'.'.'.`.).E.N.9.a.i.n.J.T.T.T.T.T.T.T.T.T.T.T.T.T.T.E.K.i.'.'.'.'.'.'.'.'.'.'.'.'.'.'.'.'.'.'.'.'.'.'.'.'.'.'.'.'.",
"'.'.'.'.'.'.'.'.'.).`.~.L.a.6.d.F.T.T.T.T.T.T.T.T.T.T.T.T.T.T.U.T.E.N.s.'.'.'.'.'.'.'.'.'.'.'.'.'.'.'.'.'.'.'.'.'.'.'.'.'.'.'.'.",
"'.'.'.'.'.'.'.'.'._.).E.N.u.n.J.T.E.E.T.T.E.E.T.T.T.T.T.T.T.T.T.T.T.F.p.d.'.'.'.'.'.'.'.'.'.'.'.'.'.'.'.'.'.'.'.'.'.'.'.'.'.'.'.",
"'.'.'.'.'.'.'.'.'.`.~.L.d.n.J.E.T.J.F.N.N.F.F.T.T.T.T.T.T.T.T.T.T.T.N.u.a.'.'.'.'.'.'.'.'.'.'.'.'.'.'.'.'.'.'.'.'.'.'.'.'.'.'.'.",
"'.'.'.'.'.'.'.'._._.E.F.n.T.T.T.F.d.i.6.i.i.d.F.T.T.T.T.T.T.T.T.T.E.N.u.a.'.'.'.'.'.'.'.'.'.'.'.'.'.'.'.'.'.'.'.'.'.'.'.'.'.'.'.",
"'.'.'.'.'.'.'.'._.(.T.F.L.T.T.N.a.i.i.i.i.9.i.i.F.T.T.T.T.T.T.T.T.E.N.6.s.'.'.'.'.'.'.'.'.'.'.'.'.'.'.'.'.'.'.'.'.'.'.'.'.'.'.'.",
"'.'.'.'.'.'.'.'.`.Q.T.T.T.T.N.a.6.:.%.6.i.i.i.i.a.J.T.T.T.T.T.T.T.T.N.6.g.a.'.'.'.'.'.'.'.'.'.'.'.'.'.'.'.'.'.'.'.'.'.'.'.'.'.'.",
"'.'.'.'.'.'.'._._.T.T.T.T.F.s.-.o./ ~ ] =.i.i.i.i.b.T.T.T.T.T.U.T.T.n.u.s.a.'.'.'.'.'.'.'.'.'.'.'.'.'.'.'.'.'.'.'.'.'.'.'.'.'.'.",
"'.'.'.'.'.'.'.).~.T.T.T.T.d...F v M C m ^ 5.9.i.i.i.J.T.T.T.T.T.T.T.b.u.s.i.'.'.'.'.'.'.'.'.'.'.'.'.'.'.'.'.'.'.'.'.'.'.'.'.'.'.",
"'.'.'.'.'.'.'._.E.U.T.T.K.&.5 , < a N I N X.5.-.i.6.N.E.T.T.T.T.T.T.d.i.i.a.'.'.'.'.'.'.'.'.'.'.'.'.'.'.'.'.'.'.'.'.'.'.'.'.'.'.",
"'.'.'.'.'.'.)._.T.T.T.T.d.f   .   ; t I C T 5.o.9.i.d.T.T.T.T.T.T.T.a.u.u.f.'.'.'.'.'.'.'.'.'.'.'.'.'.'.'.'.'.'.'.'.'.'.'.'.'.'.",
"'.'.'.'.'.'._.(.T.T.T.K.[   % X X   . d I m %.X.=.a.a.T.T.T.T.T.T.T.a.9.i.s.'.'.'.'.'.'.'.'.'.'.'.'.'.'.'.'.'.'.'.'.'.'.'.'.'.'.",
"'.'.'.'.'.'.).Q.T.T.E.n.g   $     + . < D B { X.O.i.i.L.T.T.T.T.T.J.i.i.i.p.'.~.'.'.'.'.'.'.'.'.'.'.'.'.'.'.'.'.'.'.'.'.'.'.'.'.",
"'.'.'.'.'.'._.T.T.T.T.3.: O .       @   a C / | { i.i.L.T.T.T.T.T.F.i.i.i.s.'.'.).^.'.'.'.'.'.'.'.'.'.'.'.'.'.'.'.'.'.'.'.'.'.'.",
"'.'.'.'.'._.).L.T.T.L.J   =         +   w C ! ( / i.a.J.T.T.T.T.E.F.6.i.i.g.'.'.Q.^.(.'.'.'.'.'.'.'.'.'.'.'.'.'.'.'.'.'.'.'.'.'.",
"'.'.'.'.'.(.^.T.T.T.L.A   *           . , M R / / u.i.J.E.T.T.T.T.N.u.i.i.s.'.'.'.F.!.(.Q.'.'.'.'.'.'.'.'.'.'.'.'.'.'.'.'.'.'.'.",
"'.'.'.'.'.).W.T.T.E.N.f   #           +   n T Q / 6.i.T.T.T.T.T.T.d.9.i.i.g.'.'.'.a.V.~.~.~.'.'.'.'.'.'.'.'.'.'.'.'.'.'.'.'.'.'.",
"'.'.'.'.'.).T.T.T.R.l.9 o @           @   n U I / u.a.T.T.T.T.T.T.a.u.i.i.s.n.'.'.'.i.N.~.(.Q.'.'.'.'.'.'.'.'.'.'.'.'.'.'.'.'.'.",
"'.'.'.'.(.(.L.T.T.T.k.3 o X           +   l U m ] u.d.T.T.T.T.E.J.i.i.i.i.i.U.'.'.'.f.s.F.^.(.~.Q.'.'.'.'.'.'.'.'.'.'.'.'.'.'.'.",
"'.'.'.'.`.Y.j.R.T.R.l.6 o X           @   d U B o.i.N.T.T.T.T.T.F.u.i.i.i.6.R.(.'.'.'.i.f.T.~.E.~.^.'.'.'.'.'.'.'.'.'.'.'.'.'.'.",
"'.'.'.'.).>.,.W.U.T.N.h   #           +   d T V %.a.F.T.T.T.T.T.b.u.i.9.9.i.L.^.Q.'.'.f.s.F.E.Q.L.^.~.'.'.'.'.'.'.'.'.'.'.'.'.'.",
"'.'.'.'.Y.2 >.T.T.T.K.Z   $           +   c U U ;.f.T.T.T.T.T.T.a.i.i.i.i.i.n.W.^.'.'.'.s.f.T.Q.N.F.).^.'.'.'.'.'.'.'.'.'.'.'.'.",
"'.'.'.'.j.  H R.U.T.L.J o ;           @   n C / u.N.T.T.T.T.T.F.6.i.i.i.9.a.a.J.(.~.'.'.s.i.J.Q.T.i.L.~.'.'.'.'.'.'.'.'.'.'.'.'.",
"'.'.'.'.L   G E.T.T.T.3.2 o X         +   b C $.a.L.T.T.T.T.T.d.9.i.9.i.i.a.i.n.W.~.'.'.a.p.N.T.Q.d.f.E.~.'.'.'.'.'.'.'.'.'.'.'.",
"'.'.'.m.c   p R.T.T.T.N.S   ; o     .   7 M ^ 6.N.T.T.T.T.T.L.i.i.i.i.i.i.a.p.f.L.^.Q.'.'.g.d.T.Q.F.i.K.!.^.~.'.'.'.'.'.'.'.'.'.",
"'.'.'.e.8 . p U.T.T.T.T.1.0   * .   +   w V $.f.T.T.T.T.T.T.b.6.i.i.i.i.g.i.s.s.N.!.^.'.'.i.a.J.W.E.u.n.E.(.Q.~.'.'.'.'.'.'.'.'.",
"'.'.'.[ > : i E.T.T.T.T.V.` e     . O   s X.a.J.T.T.T.T.T.F.i.i.9.i.i.i.s.b.F.p.n.R.Q.'.'.f.p.N.W.~.a.s.J.E.T.^.Q.'.'.'.'.'.'.'.",
"'.'.'._ k c u E.T.T.T.T.U.n.} r q - & q / a.J.T.T.T.T.T.J.d.9.i.i.i.9.i.i.G.I.u.a.T.!.'.'.f.s.N.E.W.M.u.F.E.L.N.~.'.'.'.'.'.'.'.",
"'.'.'.| =.o.y H.T.T.T.T.T.L.b.8._ z g ` b.J.T.T.T.T.T.T.d.9.i.i.i.i.i.i.a.I.x.i.a.J.!.'.'.d.p.n.T.!.'.p.n.T.T.d.E.^.Q.'.'.'.'.'.",
"'.'.'.p.f.i.D M.T.T.T.T.T.E.T.L.m.k.k.D.T.T.T.T.T.E.J.b.i.i.i.i.i.i.i.6.b.N.2.f.p.F.!.E.'.'.p.d.T.!.U.i.f.T.E.d.N.^.W.^.'.'.'.'.",
"'.'.n.h.L.N.O.v.E.T.T.T.F.F.L.T.E.R.R.E.T.T.E.T.T.F.n.i.i.i.9.i.i.i.i.i.d.r.'.f.p.N.!.E.'.'.s.a.L.!.E.i.f.F.E.M.a.T.E.!.Q.'.'.'.",
"'.'.N.V.E.L.5.v.E.T.T.T.n.a.b.F.J.L.J.T.T.T.J.J.N.a.i.i.i.9.i.i.9.i.i.i.d.2.'.'.g.n.W.Q.'.'.h.a.L.W.E.s.g.K.Q.L.i.L.E.b.^.'.'.'.",
"'.'.L.L.E.T.f.N.T.T.T.T.F.i.i.i.i.d.N.F.N.N.f.a.9.i.i.i.i.i.i.9.i.i.i.a.d.2.'.'.g.b.R.Q.'.'.s.i.L.!.E.'.g.N.W.T.i.N.E.N.K.Q.'.'.",
"'.'.E.T.T.T.F.N.E.T.T.T.T.b.6.6.6.i.i.a.a.a.i.i.u.i.i.i.i.i.i.i.i.i.9.d.7.'.'.'.s.d.T.W.'.'.f.u.J.!.E.'.g.N.E.E.i.f.E.F.f.!.'.'.",
"'.'.E.T.T.T.T.F.T.T.T.T.T.F.i.a.$.O.6.i.6.9.i.i.i.i.9.i.i.9.i.i.9.i.a.v.4.'.'.'.s.a.R.W.'.'.a.u.J.!.E.'.s.n.W.E.i.h.T.T.u.R.Q.'.",
"'.'.W.T.T.T.T.T.T.T.T.T.T.T.d.i.$.R #.5.i.i.i.i.i.i.9.i.9.i.i.9.i.i.M.d.7.'.'.'.s.a.T.R.'.'.a.i.F.!.E.'.s.b.W.W.i.h.R.!.i.P.E.'.",
"'.'.W.T.T.T.T.T.T.T.T.T.T.E.N.i.i.^ B ] 5.i.i.9.9.i.i.i.i.i.i.i.i.a.S.a.2.'.'.'.a.a.T.E.'.'.a.u.J.!.R.'.p.n.!.^.'.g.P.Q.a.n.E.'.",
"'.E.W.T.T.T.T.T.T.T.T.T.T.T.T.a.i.#.V ! ! -.i.*.-.i.i.9.i.i.i.9.i.n.G.f.'.'.'.'.i.a.T.W.'.'.a.u.J.!.T.'.p.d.!.^.'.g.L.!.d.f.R.'.",
"'.E.W.T.T.T.T.T.T.T.T.J.T.T.T.a.i.( ' l.] U -.X.{ i.i.i.9.i.i.p.a.G.S.a.'.'.'.'.s.a.T.R.'.'.a.i.F.!.T.'.i.f.!.^.'.s.L.W.b.s.!.'.",
"'.J.!.T.T.T.T.T.T.T.T.N.T.F.L.d.:.R '.U.x.~ ! Q U =.i.i.i.i.i.f.8.A.D.a.'.'.'.'.s.a.T.R.'.'.f.u.L.!.T.'.p.d.W.!.'.p.L.W.'.i.!.'.",
"'.F.L.L.T.T.T.T.T.U.J.a.J.b.N.a.O.~ '.G.I.1./ R B R =.5.i.a.d.f.1.G.D.a.'.'.'.'.s.a.E.R.'.'.s.i.L.!.T.'.f.d.!.W.'.p.K.E.'.i.W.E.",
"'.n.a.n.F.T.T.T.F.n.N.i.N.a.d.5.^ '.'.G.H.7.4.<./ Y Q | 6.n.m.9.1.G.D.a.'.'.'.'.s.d.E.R.'.'.g.i.F.!.'.'.g.d.!.E.'.s.K.W.'.p.W.'.",
"'.N.n.a.a.K.T.T.d.i.a.i.a.i.s.:./ '.'.G.J.0.4.c.S.w.*.1.'.G.H.8.1.Z.S.a.'.'.'.'.g.d.W.W.'.'.s.i.L.!.'.'.g.b.!.T.'.s.L.E.'.i.W.'.",
"'.R.L.d.F.n.T.N.5.4.u.-.i.9.6.+.'.'.'.G.T.r.*.Z.I.m.4.7.'.G.J.7.4.Z.S.a.'.'.'.'.g.d.R.W.'.'.s.a.L.!.'.'.g.b.!.E.'.g.L.W.'.i.W.'.",
"'.W.E.F.E.d.L.d.m.1.=.&.5.$.O.] '.'.'.H.E.q.5.c.I.c.4.2.'.G.U.r.1.z.S.a.'.'.'.f.p.n.W.R.'.d.s.a.L.!.'.p.g.N.!.'.'.h.P.!.'.a.W.'.",
"N.!.T.T.~.f.K.b.^.t.<.q.O.{ W ( '.'.'.H.E.w.5.c.I.z.1.9.'.G.E.0.-.c.G.a.7.'.'.a.p.n.W.T.'.d.p.d.T.Q.'.a.g.N.!.'.u.h.R.!.a.a.W.'.",
"N.R.L.U.E.n.F.F.Q.a.m.M.&.0.W { '.'.'.H.R.w.5.y.I.S.4.a.'.A.E.r.-.c.I.t.7.'.'.a.u.N.!.T.'.h.p.d.R.W.'.a.p.K.!.'.i.s.R.^.9.B.R.'.",
"'.'.n.T.R.d.V.P.E.a.T.M.y.b.) '.'.'.'.'.W.M.5.w.T.H.8.p.8.G.!.b.5.x.U.d.8.'.'.s.i.L.^.T.'.h.p.n.!.R.'.f.s.L.~.'.i.h.^.!.6.C.E.'.",
"'.'.'.'.N.d.b.D.K.B.R.h.V.n.@.'.'.'.'.'.G.c.2.r.A.G.q.2.'.'.A.l.2.w.G.w.0.'.'.a.a.F.T.'.'.a.a.N.E.T.'.a.a.J.T.'.a.d.T.'.9.b.T.'.",
"'.'.'.'.'.'.'.'.d.d.L.a.N.d.=.'.'.'.'.'.'.'.'.'.'.'.'.'.'.'.'.'.'.'.'.'.'.'.'.'.'.'.'.'.'.'.'.'.'.'.'.'.'.'.'.'.'.'.'.'.'.'.'.'.",
"'.'.'.'.'.'.'.'.'.'.'.'.'.d.d.'.'.'.'.'.'.'.'.'.'.'.'.'.'.'.'.'.'.'.'.'.'.'.'.'.'.'.'.'.'.'.'.'.'.'.'.'.'.'.'.'.'.'.'.'.'.'.'.'."
};
