/* XPM */
static char *result[] = {
/* columns rows colors chars-per-pixel */
"64 64 89 1 ",
"  c #515151",
". c #535353",
"X c #555555",
"o c #565656",
"O c gray34",
"+ c #585858",
"@ c gray35",
"# c #5A5A5A",
"$ c #5B5B5B",
"% c #5D5D5D",
"& c #5F5F5F",
"* c #606060",
"= c gray38",
"- c #626262",
"; c gray39",
": c #646464",
"> c #656565",
", c gray40",
"< c #676767",
"1 c #686868",
"2 c DimGray",
"3 c #6A6A6A",
"4 c gray42",
"5 c #6C6C6C",
"6 c #6D6D6D",
"7 c gray43",
"8 c #6F6F6F",
"9 c gray44",
"0 c #717171",
"q c #727272",
"w c gray45",
"e c #747474",
"r c gray46",
"t c #767676",
"y c #777777",
"u c gray47",
"i c #797979",
"p c gray48",
"a c #7B7B7B",
"s c #7C7C7C",
"d c gray49",
"f c #7E7E7E",
"g c gray50",
"h c #808080",
"j c #818181",
"k c gray51",
"l c #838383",
"z c #848484",
"x c gray52",
"c c #868686",
"v c gray53",
"b c #888888",
"n c #898989",
"m c gray54",
"M c #8B8B8B",
"N c gray55",
"B c #8D8D8D",
"V c #8E8E8E",
"C c gray56",
"Z c #909090",
"A c gray57",
"S c #929292",
"D c #939393",
"F c gray58",
"G c #959595",
"H c gray59",
"J c #979797",
"K c #989898",
"L c gray60",
"P c #9A9A9A",
"I c #9B9B9B",
"U c gray61",
"Y c #9D9D9D",
"T c gray62",
"R c #9F9F9F",
"E c #A0A0A0",
"W c gray63",
"Q c #A2A2A2",
"! c gray64",
"~ c #A4A4A4",
"^ c #A5A5A5",
"/ c gray65",
"( c #A7A7A7",
") c gray66",
"_ c #AAAAAA",
"` c gray67",
"' c #ACACAC",
"] c gray68",
"[ c None",
/* pixels */
"[[[[[[[[[[[[[[[[[[[[[[[[()']')WLb7;:-[[[[[[[[[[[[[[[[[[[[[[[[[[[",
"[[[[[[[[[[[[[[[[[[[[`__/WTTYYTYTEQECw*:<:[[[[[[[[[[[[[[[[[[[[[[[",
"[[[[[[[[[[[[[[[[[[]/W))!TIPLLPIYW~^QRGa1:,::[[[[[[[[[[[[[[[[[[[[",
"[[[[[[[[[[[[[[[[`^))UJJJLLLLLLLKJJKU!QJn6;5,,[[[[[[[[[[[[[[[[[[[",
"[[[[[[[[[[[[[[[(/^KJPLLLLLKKKKLLLLKJHKQQZq;,3,>[[[[[[[[[[[[[[[[[",
"[[[[[[[[[[[[[[))PLLLLKKKKKKKKKKKKKJJJJHK!Hr>,13;[[[[[[[[[[[[[[[[",
"[[[[[[[[[[[[[)EKJKKKKJJJJJJJJJJJJJHHHHHGGEKt>>,2>[[[[[[[[[[[[[[[",
"[[[[[[[[[[[[^TJJJJJJJHHHHHHHHHHHHHGGGGGGGGYJ0>><2>[[[[[[[[[[[[[[",
"[[[[[[[[[[[^YKHHHHHHHGGGGGGGGGGGGGGFFFFFFDGID4-,11:[[[[[[[[[[[[[",
"[[[[[[[[[[EEJGGHHGGGGFFFFFFFFFFFFGFDDDDDDDSGPc4;>11-[[[[[[[[[[[[",
"[[[[[[[[[[UHGFFFFFFFFFDDDDDDDDDDDAADSSSSSSSSFKu;<><,[[[[[[[[[[[[",
"[[[[[[[[[UTDDFDDFDDDDDFFSSSDSSSDDVCSAAAAAASASJv7:,<<>[[[[[[[[[[[",
"[[[[[[[[[KFDDDDDDDDDDACZSSSSSSSSSZZAAAAAAAAAZZGs=,,<1[[[[[[[[[[[",
"[[[[[[[[IUASSSSSSSSSDnskZAAAAAAAAAZZZZZZZZZZZZHk<,,,2>[[[[[[[[[[",
"[[[[[[[[KKAAAAAAAAAASa-9bZZZZZZZZZCCCCCCCCCCCCZmt:,,<>[[[[[[[[[[",
"[[[[[[[[FDZZZZZZZZZZAh4tNCCCCCCCCCCVVVVVVVVVVVVBa;,,,5,[[[[[[[[[",
"[[[[[[[KDACCCCCCCCCCZNvnVVVVVVVVVVBBBBBBBBBBBBBAg-,,,5>[[[[[[[[[",
"[[[[[[[GJCVVVVVVVVVVVVCCBBBBBBBBBBBNNNNNNNNNNNNZj,,,,3>[[[[[[[[[",
"[[[[[[[GJBVBBBBBBBBBBBNNNNNBNNNNNNNMMMMMMMMNMNMBj5,,,2>[[[[[[[[[",
"[[[[[[[SGNBBBBBBBBBBBBNNNNNNNNNNNNMMMMMMMMMMMMMMj7,,,1>[[[[[[[[[",
"[[[[[[[SHBBNNNNNNNNNNNMMMMMMMMMMMMmmmmmmmmmmmmmMh5,,,1,[[[[[[[[[",
"[[[[[[[mAmmMMMMMMMMMMMmmmmmmmmmmmmnnnnnnnnnnnnnmh5,,,<,[[[[[[[[[",
"[[[[[[[<50tgmMmmmmmmmmmnnnnnnnnnnnbbbbbbbbbbbbbng5,,,<>[[[[[[[[[",
"[[[[[[[[mCvljzvnnnnnnnnbbbbbbbbbbbvvvbbbvvvvvvvbf4,>,1,[[[[[[[[[",
"[[[[[[[RKFVblzvbbbbbbbbvvvvvvvvvvvvvxjkcvccccccvd4,<<:%[[[[[[[[[",
"[[[[[[[HSzvbbbbbbvbbvbvcvvcvcvvvvcccktuzcxccccxvd4;&$O [[[[[[[[[",
"[[[[[[[NVvvvvvvvvvvvvvccccccccccccxckialxxxxxxxxs3=@.o [[[[[[[[[",
"[[[[[[[mVcccccccccccccxxxxxxxxxxxxxxzzzzzzzzzzzxs4::;,-[[[[[[[[[",
"[[[[[[[nBxxxxxxxxxxxxxzzzzzzzzzzzzzzlllllllllllza4,>;,;[[[[[[[[[",
"[[[[[[[nNzzzzzzxzzzzzzzlllllllllllllkkkkkkkkkkklp4>*+X+[[[[[[[[[",
"[[[[[[[bMlllllzhdhlllllkkkkkkkkkkkkkjjjjjjjjjjjki4>::#[[[[[[[[[[",
"[[[[[[[bmkkkkkzy6uklkkkjjjjjjjjjjjjjhhhhhhhhhhhji3><3,[[[[[[[[[[",
"[[[[[[[vmjkkjkki0ikkjkjhjjjjjjjjjjjhhhhhhgggggghu3>,,,[[[[[[[[[[",
"[[[[[[[xnjhjjjjjjjjjjjhhhhhhggggggggffffffdfffdfy3>,,5:[[[[[[[[[",
"[[[[[[[zbhhhhhhhhhhhhhggggggfdfffdfdsdddsdddddddt3>,,1,[[[[[[[[[",
"[[[[[[[lvfgggggfffffffdddddddddddddssssssssssssdt2>,,<>[[[[[[[[[",
"[[[[[[[kxsdddddddddddddssssssssssssaaaaaaaaaaaast3>,,<>[[[[[[[[[",
"[[[[[[[jzasssssssssssssaaaaaaaaaaaaapppppppppppar3>,,<>[[[[[[[[[",
"[[[[[[[hlpaaaaaaaaaaaaapppppppppppppiiiiiiiiiiipe2,,,<>[[[[[[[[[",
"[[[[[[[gzspppaaaaaaaappppppppppppppiiiiiiiiiiiupw1,,,<>[[[[[[[[[",
"[[[[[[[faedsppppppppppiuiiiiiiiiiiiyrtuuuuuuuuuuw1,,,<>[[[[[[[[[",
"[[[[[[[ayyjgpiiiiiiiiiuuuuuuuuuuuuur0wyyyyyyyyyuq1,,,<>[[[[[[[[[",
"[[[[[[[xCNsuuuuuuuuuuuyyyyyyyyyyyyytrtttttttttty01,,,<>[[[[[[[[[",
"[[[[[[[Bciuyyyyyyyyyywwttttttttttttttrrrrrrrrrrt01,,,<>[[[[[[[[[",
"[[[[[[[jfwtttttttttttrerrrrrrrrrrrrreeeeeeeeeeer91,,,<>[[[[[[[[[",
"[[[[[[[ustrrrrrrrrrrrtreeeeeeeeeeeeewwwwwwwwwwwe81,,,<>[[[[[[[[[",
"[[[[[[[aderrrrrrrrrrrreeeeeeeeeeeeeewwwwwwwwwwwe91<<<<>[[[[[[[[[",
"[[[[[[[eu9999999999999888888888888876676676666783;===,,[[[[[[[[[",
"[[[[[[[hkasssssssassssaaaaaaaaaaaaapppppppppppppyqqq04>,[[[[[[[[",
"[TRWREEIILLLLLLLLLLLLLLLLLLLLLLLLLLLLLLLLLLLLLLLKJKKHu=,,>>>>[[[",
"[GIAASSAAAAAAAAAAAAAAAAAAAAAAAAAAAAAAAAAAAAAAAAAAAAAZr=<1111<1>[",
"[cmkzzzlllkkkkkkkkkkkkkkkkkkkkkkkkkkkkkkkkkkkkkkkkklj8;<1111<5,>",
"hhjfggawqiggggggggggggggggggggggggggggggggggggggggggf7;,>>>,>1,:",
"gjjhjd9<>7pjhhhhhhhhhhhhhhhhhhhhhhhhhhhhhhhhhhhhhhhhg8;,,,,,>2<:",
"gjjhhp,>,,wjhhhhhhhhhhhhhhhhhhhhhhhgfhhhhhhhhhhhhhhhg7;,,,,,>2<:",
"hjjhja2::<rjhhhhhhhhhhhhhhhhhhhhhhdrephhhhhhhhggghhhg7;,,,,,>2<:",
"hjjhjfe3<qdhhhhhhhhhhhhhhhhhhhhhhjw>>5gjhhhhhhsyajhhg7;,,,,,>2<:",
"hjjhhhgdsfhhhhhhhhhhhhhhhhghhhhhhj0::3gjhhhhhhpeujhhg7;,,,,,>2<:",
"hjjhhhjjjjhhhhhhhhhhhhhhhgdghhhhhhp97yhhhhhhhhgdfhhhg7;,,,,,>2<:",
"hjjhhhhhhhhhhhhhhhhhhhhhhgfghhhhhhhdsghhhhhhhhhjjhhhg8;,,,,,>2<:",
"ghhhhhhhhhjhhhhhhhhhhhhhhhhhhhhhhhhjjhhhhhhhhhhhhhhhf7;,>>>,,1,:",
"gjzlllllllkjjjjjjjjjjjjjjjjjjjjjjjjjjjjjjjjjjjjjjjjjh0,11111<4<>",
"hhkjjjjjjjhffffffffffffffffffffffffffffffffffffffffff8:<,,,,,<,>",
"ggggggggghsuiiiuiiiuuuuuuuuiiuiuiiiuuuuuuuuiiuiuiiuiu5;>:::::>:["
};
