/* XPM */
static char *result[] = {
/* columns rows colors chars-per-pixel */
"64 64 240 2 ",
"   c #000000",
".  c #080606",
"X  c #190707",
"o  c #070F18",
"O  c #280808",
"+  c #3D0000",
"@  c #390A0A",
"#  c #2C1414",
"$  c #351919",
"%  c #02230F",
"&  c #031236",
"*  c #000029",
"=  c #072929",
"-  c #003C3C",
";  c #0D3D3D",
":  c #1C3C3C",
">  c #173636",
",  c #13292C",
"<  c #2A2828",
"1  c #3D2323",
"2  c #352929",
"3  c #243C3C",
"4  c #383B3B",
"5  c #440100",
"6  c #4D0202",
"7  c #490B0B",
"8  c #540001",
"9  c #481717",
"0  c #521A1B",
"q  c #660000",
"w  c #760300",
"e  c #691113",
"r  c #442323",
"t  c #4C2525",
"y  c #482A2A",
"u  c #542324",
"i  c #552C2C",
"p  c #5B2E2E",
"a  c #5A2121",
"s  c #533232",
"d  c #5D3131",
"f  c #5C3838",
"g  c #4F3131",
"h  c #643232",
"j  c #6B3535",
"k  c #6D3838",
"l  c #733A3A",
"z  c #7B3E3E",
"x  c #7F3537",
"c  c #7F2228",
"v  c #214C3A",
"b  c #00164E",
"n  c #01265D",
"m  c #001B64",
"M  c #02236B",
"N  c #022777",
"B  c #13387B",
"V  c #213C71",
"C  c #593D44",
"Z  c #783945",
"A  c #004B4B",
"S  c #004544",
"D  c #1E4545",
"F  c #164848",
"G  c #005D5D",
"H  c #045356",
"J  c #1A5454",
"K  c #17564C",
"L  c #214444",
"P  c #224C4C",
"I  c #344747",
"U  c #255454",
"Y  c #2C5353",
"T  c #2D5D5D",
"R  c #265A5A",
"E  c #37595B",
"W  c #244A53",
"Q  c #316157",
"!  c #366C4B",
"~  c #006767",
"^  c #166160",
"/  c #007575",
"(  c #1B7777",
")  c #2B6565",
"_  c #236C6C",
"`  c #2C6C6C",
"'  c #236363",
"]  c #326463",
"[  c #346B6B",
"{  c #396867",
"}  c #2B7979",
"|  c #347373",
" . c #3B7373",
".. c #337B7B",
"X. c #3D7B7C",
"o. c #3E7A75",
"O. c #3A746F",
"+. c #575858",
"@. c #4E4948",
"#. c #7E4141",
"$. c #685A5A",
"%. c #745457",
"&. c #46625D",
"*. c #7B5D61",
"=. c #566768",
"-. c #437D7D",
";. c #477777",
":. c #597676",
">. c #446C6C",
",. c #6A6C6B",
"<. c #636363",
"1. c #7B7575",
"2. c #990000",
"3. c #850718",
"4. c #9A190E",
"5. c #A60000",
"6. c #B60000",
"7. c #B10013",
"8. c #AA360F",
"9. c #9B1922",
"0. c #B41429",
"q. c #8A322D",
"w. c #B12D30",
"e. c #853216",
"r. c #E33F00",
"t. c #C70327",
"y. c #CC1032",
"u. c #C52837",
"i. c #CE2934",
"p. c #E13E32",
"a. c #CF2500",
"s. c #8E422D",
"d. c #E1432B",
"f. c #CA4722",
"g. c #A32D45",
"h. c #E62C4A",
"j. c #844343",
"k. c #8A4646",
"l. c #8E4949",
"z. c #844B4B",
"x. c #934B4B",
"c. c #994F4F",
"v. c #9D5151",
"b. c #815D5D",
"n. c #A15252",
"m. c #A45159",
"M. c #856B6B",
"N. c #AA696C",
"B. c #D54C55",
"V. c #C95864",
"C. c #C17C78",
"Z. c #FE6576",
"A. c #EA6875",
"S. c #F04C5F",
"D. c #3F837B",
"F. c #46887B",
"G. c #07399B",
"H. c #0B338E",
"J. c #063EA9",
"K. c #355B99",
"L. c #305C89",
"P. c #267F80",
"I. c #396B8C",
"U. c #1244B0",
"Y. c #2C57B0",
"T. c #164EC7",
"R. c #1957D5",
"E. c #1952C3",
"W. c #2459D4",
"Q. c #266BF6",
"!. c #3B76F2",
"~. c #1F67F3",
"^. c #058585",
"/. c #148484",
"(. c #278484",
"). c #3C8282",
"_. c #378989",
"`. c #349493",
"'. c #3FA09F",
"]. c #3FA1A1",
"[. c #438383",
"{. c #458B8B",
"}. c #4A8C8D",
"|. c #488686",
" X c #598B8B",
".X c #449393",
"XX c #4B9393",
"oX c #4D9A9A",
"OX c #4A9A9A",
"+X c #529494",
"@X c #529C9C",
"#X c #589A99",
"$X c #4A918D",
"%X c #778989",
"&X c #739494",
"*X c #658989",
"=X c #49A3A5",
"-X c #55A4A4",
";X c #5AA6A6",
":X c #5BACAC",
">X c #56A7A9",
",X c #5DB0B0",
"<X c #61ACAC",
"1X c #63B2B2",
"2X c #3981FF",
"3X c #828282",
"4X c #898888",
"5X c #9D8787",
"6X c #8F9191",
"7X c #929292",
"8X c #9C9898",
"9X c #B59A98",
"0X c #ABACAC",
"qX c #A3A8A8",
"wX c #BABABA",
"eX c #B3B8B8",
"rX c #A9B2B2",
"tX c #A5A095",
"yX c #C7B1AE",
"uX c #C7948A",
"iX c #D9C7B6",
"pX c #BCC1C1",
"aX c #C3C3C3",
"sX c #C8CBCC",
"dX c #D4D5D5",
"fX c #DADBDB",
"gX c #D5D9D9",
"hX c #D1D0CD",
"jX c #E4DBD4",
"kX c #EAE2DA",
"lX c #EEE3CE",
"zX c #DDE0E0",
"xX c #E4E4E4",
"cX c #EDEDED",
"vX c #E7E9E9",
"bX c #EFF0F0",
"nX c #F4F4F4",
"mX c #FEFEFE",
"MX c #FAF5E7",
"NX c None",
/* pixels */
"NXNXNXNXNXNXNXNXNXNXNXNXNXNXNXNXNXNXNXNXNXNXNXNXNXNXNXNXNXNXNXNXNXNXNXNXNXNXNXNXNXNXNXNXNXNXNXNXNXNXNXNXNXNXNXNXNXNXNXNXNXNXNXNX",
"NXNXNXNXNXNXNXNXNXNXNXNXNXNXNXNXNXNXNXNXNXNXNXNXNXNXNXNXNXNXNXNXNXNXNXNXNXNXNXNXNXNXNXNXNXNXNXNXNXNXNXNXNXNXNXNXNXNXNXNXNXNXNXNX",
"NXNXNXNXNXNXNXNXNXNXNXNXNXNXNXNXNXNXNXNXNXNXNXNXNXNXNXNXNXNXNXNXNXNXNXNXNXNXNXNXNXNXNXNXNXNXNXNXNXNXNXNXNXNXNXNXNXNXNXNXNXNXNXNX",
"NXNXNXNXNXNXNXNXNXNXNXNXNXNXNXNXNXNXNXNXNXNXNXNXNXNXNXNXNXNXNXNXNXNXNXNXNXNXNXNXNXNXNXNXNXNXNXNXNXNXNXNXNXNXNXNXNXNXNXNXNXNXNXNX",
"NXNXNXNXNXNXNXNXNXNXNXNXNXNXNXNXNXNXNXNXNXNXNXNXNXNXNXNXNXNXNXNXNXNXNXNXNXNXNXNXNXNXNXNXNXNXNXNXNXNXNXNXNXNXNXNXNXNXNXNXNXNXNXNX",
"NXNXNXNXNXNXNXNXNXNXNXNXNXNXNXNXNXNXNXNXNXNXNXNXNXNXNXNXNXNXNXNXNXNXNXNXNXNXNXNXNXNXNXNXNXNXNXNXNXNXNXNXNXNXNXNXNXNXNXNXNXNXNXNX",
"NXNXNXNXNXNXNXNXNXNXNXNXNXNXNXNXNXNXNXNXNXNXNXNXNXNXNXNXNXNXNXNXNXNXNXNXNXNXNXNXNXNXNXNXNXNXNXNXNXNXNXNXNXNXNXNXNXNXNXNXNXNXNXNX",
"NXNXNXNXNXNXNXNXNXNXNXNXNXNXNXNXNXNXNXNXNXNXNXNXNXNXNXNXNXNXNXNXNXNXNXNXNXNXNXNXNXNXNXNXNXNXNXNXNXNXNXNXNXNXNXNXNXNXNXNXNXNXNXNX",
"NXNXNXNXNXNXNXNXNXNXNXNXNXNXNXNXNXNXNXNX  X NXNXNXNXNXNXNXNXNXNXNXNXNXNXNXNXNXNXNXNXNXNXNXNXNXNXNXNXNXNXNXNXNXNXNXNXNXNXNXNXNXNX",
"NXNXNXNXNXNXNXNXNXNXNXNXNXNXNXNXNXNXNXNX$   NXNXNXNXp j l l j.j.l.l.k.k.j.z l j p NXNXNXNXNXNXNXNXNXNXNXNXNXNXNXNXNXNXNXNXNXNXNX",
"NXNXNXNXNXNXNXNXNXNXNXNXNXNXNXNXNXNXNX$ j   NXh z l.x.x.x.l.k.k.k.k.j.k.j.j.k.x.l.j.X NXNXNXNXNXNXNXNXNXNXNXNXNXNXNXNXNXNXNXNXNX",
"NXNXNXNXNXNXNXNXNXNXNXNXNXNXNXNXNXNXNXj l l x.x.k.j.#.#.#.q.j.j.j.j.z z z l l j l l i i $   NXNXNXNXNXNXNXNXNXNXNXNXNXNXNXNXNXNX",
"NXNXNXNXNXNXNXNXNXNXNXNXNXNX  # y j #.z l j.z l k l #.j.j.j.j.j.j.q.j.z z z z #.j.j.z j r O NXNXNXNXNXNXNXNXNXNXNXNXNXNXNXNXNXNX",
"NXNXNXNXNXNXNXNXNXNXNXNXNXNXNXNX9 d k j k j k l z z z z #.#.j.j.#.z.j.z.l.x.c.c.v.n.c.l.z j t X   NXNXNXNXNXNXNXNXNXNXNXNXNXNXNX",
"NXNXNXNXNXNXNXNXNXNXNXNXNXNXNXt z j.x.x.z #.l.l.k.j.l.l.x.x.k.x.v.v.v.m.n.v.v.c.l.j.z j.#.j i # NXNXNXNXNXNXNXNXNXNXNXNXNXNXNXNX",
"NXNXNXNXNXNXNXNXNXNXNXNXNXNX  r i j.c.n.j.i #.c.v.z l.v.n.v.h #.v.l.l.x.l.z j k j p h k l j i O NXNXNXNXNXNXNXNXNXNXNXNXNXNXNXNX",
"NXNXNXNXNXNXNXNXNXNXNXNXNXNXNX  i j h l j t 1 p z p r l z.l r i l h u j j p r d h p h h z l p t #   NXNXNXNXNXNXNXNXNXNXNXNXNXNX",
"NXNXNXNXNXNXNXNXNXNXNXNXNXNXNXt j h h h i i u # $ u s 9 0 s s 7 0 d g 9 u f s 7 u s u h j k p t # NXNXNXNXNXNXNXNXNXNXNXNXNXNXNX",
"NXNXNXNXNXNXNXNXNXNXNXNXNXNXNXp j j d d h t $ X 4 y 5 2 y 8 + I y 6 6 4 r 6 5 D y + @ 0 p k t NXNXNXNXNXNXNXNXNXNXNXNXNXNXNXNXNX",
"NXNXNXNXNXNXNXNXNXNXNXNXNXNXNXh h h d u p u < ) X.[.I , ).{ < .X{.E O | |.{ < [.).3 [ 4 t p k $ NXNXNXNXNXNXNXNXNXNXNXNXNXNXNXNX",
"NXNXNXNXNXNXNXNXNXNXNXNXNXNXNXh d h h i r t + X.-X-XoXo.@X>XoX>X,X>X{.@X:X-X.X+X-X}.-X).6 1 # # NXNXNXNXNXNXNXNXNXNXNXNXNXNXNXNX",
"NXNXNXNXNXNXNXNXNXNXNXNXNXNXNXh h p i i $ P I R -X@X-X-X-X:X1X:X>X:X,X>X-X-X>X-XoX[.@XXX9 $ NXNXNXNXNXNXNXNXNXNXNXNXNXNXNXNXNXNX",
"NXNXNXNXNXNXNXNXNXNXNXNXNXNXNXp j i i i 9 T  .:  .@X-X,X1X:X:X:X:X:X>X;X;X-X;X>X@X;.[ X.@.O NXNXNXNXNXNXNXNXNXNXNXNXNXNXNXNXNXNX",
"NXNXNXNXNXNXNXNXNXNXNXNXNXNXNXu h u i y 5 E  .L ;.{./.`.].1X,X:X:X:X>X>X>X-X:X1X:X>X>.o.>.  NXNXNXNXNXNXNXNXNXNXNXNXNXNXNXNXNXNX",
"NXNXNXNXNXNXNXNXNXNXNXNXNXNXNX2 f s p 1 # < .X|./ ..&X&X X^.>X,X;X;X-X@X@X-X:XOX^.^._.>X;.: T NXNXNXNXNXNXNXNXNXNXNXNXNXNXNXNXNX",
"NXNXNXNXNXNXNXNXNXNXNXNXNXNXNX  + + i 9 R L F.( %XdXcXcXzXrXD.=X-X-X-X .$X-XOX+XpXeX;.OX;.| @X) NXNXNXNXNXNXNXNXNXNXNXNXNXNXNXNX",
"NXNXNXNXNXNXNXNXNXNXNXNXNXNXNX, D ; 1 5 ] $XK :.bXmXmXmXnXmXqX(.;X@X-X}.XX+X`.sXmXmXpX} -.T oX@XP NXNXNXNXNXNXNXNXNXNXNXNXNXNXNX",
"NXNXNXNXNXNXNXNXNXNXNXNXNXNX .{.}.{.3 5 [ #X- wXmXmXmXnXfXcXvX_ @X@X@X-X@XXX{.nXmXxXcX*X..Y X.XXo.NXNXNXNXNXNXNXNXNXNXNXNXNXNXNX",
"NXNXNXNXNXNXNXNXNXNXNXNXNXo.@X}.[.|.T O { +X- wXmXnXcXxXjXnXvX' +XoXoXoXoX#X(.gXmXnXbX=.{.Y o.XX .NXNXNXNXNXNXNXNXNXNXNXNXNXNXNX",
"NXNXNXNXNXNXNXNXNXNXNXNXL @X{. .O. . .  ] +XY F.nXmXnXcXmXmXqX~ @XXXXX}.XXXX_.&XfXvXqXG @X[ o.XX: NXNXNXNXNXNXNXNXNXNXNXNXNXNXNX",
"NXNXNXNXNXNXNXNXNXNXNXNXT XX-.o. .o.X.: U XX|.n %XfXnXnXvXrXH |.+X+X#X#X+X+X+XD.-.*XG {.XX[ | T NXNXNXNXNXNXNXNXNXNXNXNXNXNXNXNX",
"NXNXNXNXNXNXNXNXNXNXNXNX: }..X .|  .o.T P -.XX|.H R *X%X=.H {.#XXX(.P.P.(._.`.`._./ XX-.[ > : NXNXNXNXNXNXNXNXNXNXNXNXNXNXNXNXNX",
"NXNXNXNXNXNXNXNXNXNXNXNXNXT XX{.F.-.X.o.{ [  .XX+X(.~ ~ } `.`.G E ,.1.*.%.C E ;.}. X;.L . NXNXNXNXNXNXNXNXNXNXNXNXNXNXNXNXNXNXNX",
"NXNXNXNXNXNXNXNXNXNXNXNXNXNXU  .I.X.] Q  . . .X.;.:.*X#X$X:.M.tXiXxXkXMXlXkXyXj.E F = NXNXNXNXNXNXNXNXNXNXNXNXNXNXNXNXNXNXNXNXNX",
"NXNXNXNXNXNXNXNXNXNXNXNXNXNXNXNXNX- O 6 n Y ] G G A ~ / =.u.C.vXMXmXmXkXiXhX8Xq NXNXNXNXNXNXNXNXNXNXNXNXNXNXNXNXNXNXNXNXNXNXNXNX",
"NXNXNXNXNXNXNXNXNXNXNXNXNXNXNXNXNX. 8 3.4.3.w q.q.q.x x q.9.@.N.uXyXyXw.t.t.NXNXNXNXNXNXNXNXNXNXNXNXNXNXNXNXNXNXNXNXNXNXNXNXNXNX",
"NXNXNXNXNXNXNXNXNXNXNXNXNXNXNXNXNX0 e.w.u.f.9.0.0.y.t.i.8.w.w w h.y.u.h.S.S.NXNXNXNXNXNXNXNXNXNXNXNXNXNXNXNXNXNXNXNXNXNXNXNXNXNX",
"NXNXNXNXNXNXNXNXNXNXNXNXNXNXNXNXo e 3.2.2.a.e.w.w.u.i.d.8.t.f.NXV.Z.Z.Z.A.m.NXNXNXNXNXNXNXNXNXNXNXNXNXNXNXNXNXNXNXNXNXNXNXNXNXNX",
"NXNXNXNXNXNXNXNXNXNXNXNXNXNXNXNX+ 1 u +.:.%.e w.u.u.y.d.q.#.q.% NXV.V.V.NXNXNXNXNXNXNXNXNXNXNXNXNXNXNXNXNXNXNXNXNXNXNXNXNXNXNXNX",
"NXNXNXNXNXNXNXNXNXNXNXNXNXNXNXNX1 6 ) P.=X} 2.7.u.u.i.r.&.(   NXNXNXNXS NXNXNXNXNXNXNXNXNXNXNXNXNXNXNXNXNXNXNXNXNXNXNXNXNXNXNXNX",
"NXNXNXNXNXNXNXNXNXNXNXNXNXNXNXU E 5 T [.+X}.,.@.2.5.q.s./ [...` NXNX` F NXNX) | R NXNXNXNXNXNXNXNXNXNXNXNXNXNXNXNXNXNXNXNXNXNXNX",
"NXNXNXNXNXNXNXNXNXNXNXNXNXNXNX] X.X.| X.XXOX=XOX X=.^ G )  .).XXP.[ -.] ....[ L [ P NXNXNXNXNXNXNXNXNXNXNXNXNXNXNXNXNXNXNXNXNXNX",
"NXNXNXNXNXNXNXNXNXNXNXNXNXNXNXE { F.F.! ;.F.#X;X=XOX.X}.+X .T _.{...P.-.`.XX` R D NXNXNXNXNXNXNXNXNXNXNXNXNXNXNXNXNXNXNXNXNXNXNX",
"NXNXNXNXNXNXNXNXNXNXNXNXNXNX& K.K.K.K.K.L.K.[ ! |.}.+X-X>XF.  F ` ..-.P.).).[ ) | NXNXNXNXNXNXNXNXNXNXNXNXNXNXNXNXNXNXNXNXNXNXNX",
"NXNXNXNXNXNXNXNXNXNXNXNXNXNXNXN H.E.Y.U.E.W.R.E.L.X..X@X-X-X[.Q > R | | | | ) . U U NXNXNXNXNXNXNXNXNXNXNXNXNXNXNXNXNXNXNXNXNXNX",
"NXNXNXNXNXNXNXNXNXNXNXNXNXNXNXm J.R.Q.Y.G.T.T.R.H.! [..X@X@XO.F.X.NX: L V > R R NXNXNXNXNXNXNXNXNXNXNXNXNXNXNXNXNXNXNXNXNXNXNXNX",
"NXNXNXNXNXNXNXNXNXNXNXNXNXNXb N U.W.Q.!.. b & b N B ! |.{.XX>., XXL NXNXNXNXD P NXNXNXNXNXNXNXNXNXNXNXNXNXNXNXNXNXNXNXNXNXNXNXNX",
"NXNXNXNXNXNXNXNXNXNXNXNXNXNX& H.J.R.Q.!.NXNXNXn G.R.U.{  .: F.n L NXNXNXNXNXNXNXNXNXNXNXNXNXNXNXNXNXNXNXNXNXNXNXNXNXNXNXNXNXNXNX",
"NXNXNXNXNXNXNXNXNXNXNXNXNXNXNXN U.T.~.2XY.NXNXM G.T.Y.o.W , {.NXNXNXNXNXNXNXNXNXNXNXNXNXNXNXNXNXNXNXNXNXNXNXNXNXNXNXNXNXNXNXNXNX",
"NXNXNXNXNXNXNXNXNXNXNXNXNXNXNXM H.H.G.Y.V NXNXb M n v P . > L NXNXNXNXNXNXNXNXNXNXNXNXNXNXNXNXNXNXNXNXNXNXNXNXNXNXNXNXNXNXNXNXNX",
"NXNXNXNXNXNXNXNXNXNXNXNXNXNXNX* : -.$XT NXNXNXNX% K _ K NXNXNXNXNXNXNXNXNXNXNXNXNXNXNXNXNXNXNXNXNXNXNXNXNXNXNXNXNXNXNXNXNXNXNXNX",
"NXNXNXNXNXNXNXNXNXNXNXNXNXNXNXNXO.@X;X@XNXNXNXNXS ( D._ NXNXNXNXNXNXNXNXNXNXNXNXNXNXNXNXNXNXNXNXNXNXNXNXNXNXNXNXNXNXNXNXNXNXNXNX",
"NXNXNXNXNXNXNXNXNXNXNXNXNXNXNXP }.@X:X|.NXNXNX= ^ _ (.' NXNXNXNXNXNXNXNXNXNXNXNXNXNXNXNXNXNXNXNXNXNXNXNXNXNXNXNXNXNXNXNXNXNXNXNX",
"NXNXNXNXNXNXNXNXNXNXNXNXNXNXNX|.-X:XXXNXNXNXNXY | X.` NXNXNXNXNXNXNXNXNXNXNXNXNXNXNXNXNXNXNXNXNXNXNXNXNXNXNXNXNXNXNXNXNXNXNXNXNX",
"NXNXNXNXNXNXNXNXNXNXNXNXNXNX  ~ / ^.;.NXNXNX  = - A A NXNXNXNXNXNXNXNXNXNXNXNXNXNXNXNXNXNXNXNXNXNXNXNXNXNXNXNXNXNXNXNXNXNXNXNXNX",
"NXNXNXNXNXNXNXNXNXNXNXNXNX0XdXsXdXpXNXNXNX1.0XqXqXrX<.NXNXNXNXNXNXNXNXNXNXNXNXNXNXNXNXNXNXNXNXNXNXNXNXNXNXNXNXNXNXNXNXNXNXNXNXNX",
"NXNXNXNXNXNXNXNXNXNXNXNXNXqXyXyX9X4X<.6X+.C 8X5X5X1.+.,.,.NXNXNXNXNXNXNXNXNXNXNXNXNXNXNXNXNXNXNXNXNXNXNXNXNXNXNXNXNXNXNXNXNXNXNX",
"NXNXNXNXNXNXNXNXNXNXNXNXM.w.6.2.*.sXmXmXmXsX$.w q 4XyXdXdXaX3XNXNXNXNXNXNXNXNXNXNXNXNXNXNXNXNXNXNXNXNXNXNXNXNXNXNXNXNXNXNXNXNXNX",
"NXNXNXNXNXNXNXNXNXNXNXNXdXB.5.M.zXcXnXmXmXmXcX<.6XaXaXdXdXdXfX4XNXNXNXNXNXNXNXNXNXNXNXNXNXNXNXNXNXNXNXNXNXNXNXNXNXNXNXNXNXNXNXNX",
"NXNXNXNXNXNXNXNXNXNXNX$.C.6.z.sXjXvXcXnXmXnXnXsX3XwXwXaXsXsXaXaX<.NXNXNXNXNXNXNXNXNXNXNXNXNXNXNXNXNXNXNXNXNXNXNXNXNXNXNXNXNXNXNX",
"NXNXNXNXNXNXNXNXNXNXNXy q.#.%X0XqXqX0XeXeXeXwX0X+.3X6X6X7X7X8X8X+.NXNXNXNXNXNXNXNXNXNXNXNXNXNXNXNXNXNXNXNXNXNXNXNXNXNXNXNXNXNXNX",
"NXNXNXNXNXNXNXNXNXNXNX6XdXzXzXgXjXfXjXfXdXcXnXdX1.qXeX0X0XwXsXeX3XNXNXNXNXNXNXNXNXNXNXNXNXNXNXNXNXNXNXNXNXNXNXNXNXNXNXNXNXNXNXNX",
"NXNXNXNXNXNXNXNXNXNXNXNXNXNXNXNXNXNXNXNXNXNXNXNXNXNXNXNXNXNXNXNXNXNXNXNXNXNXNXNXNXNXNXNXNXNXNXNXNXNXNXNXNXNXNXNXNXNXNXNXNXNXNXNX",
"NXNXNXNXNXNXNXNXNXNXNXNXNXNXNXNXNXNXNXNXNXNXNXNXNXNXNXNXNXNXNXNXNXNXNXNXNXNXNXNXNXNXNXNXNXNXNXNXNXNXNXNXNXNXNXNXNXNXNXNXNXNXNXNX"
};
