/* XPM */
static char *result[] = {
/* columns rows colors chars-per-pixel */
"64 64 239 2 ",
"   c #000000",
".  c #0B0B0B",
"X  c #030706",
"o  c #1A0708",
"O  c #141414",
"+  c #1B1B1B",
"@  c #191616",
"#  c #0F1E1E",
"$  c #260002",
"%  c #2A010B",
"&  c #32131B",
"*  c #002118",
"=  c #351C27",
"-  c #183434",
";  c #0D2A29",
":  c #242424",
">  c #2A2A2A",
",  c #272A29",
"<  c #362B2A",
"1  c #2D3535",
"2  c #343332",
"3  c #3C3C3C",
"4  c #383735",
"5  c #560000",
"6  c #47051A",
"7  c #5F001C",
"8  c #7C0000",
"9  c #4C0F21",
"0  c #6C042A",
"q  c #6A0C2B",
"w  c #790029",
"e  c #7E0E36",
"r  c #532633",
"t  c #463739",
"y  c #4E2F35",
"u  c #64273B",
"i  c #75223C",
"p  c #50453E",
"a  c #6A2C41",
"s  c #673849",
"d  c #743749",
"f  c #7E3C52",
"g  c #762843",
"h  c #004D4B",
"j  c #014745",
"k  c #005654",
"l  c #1F4545",
"z  c #284647",
"x  c #364848",
"c  c #2B5D5D",
"v  c #255454",
"b  c #345959",
"n  c #016764",
"m  c #1B6767",
"M  c #046D70",
"N  c #017574",
"B  c #037B7B",
"V  c #117A7C",
"C  c #2E6A6A",
"Z  c #266464",
"A  c #336D6D",
"S  c #3C6B6B",
"D  c #346261",
"F  c #267473",
"G  c #3B7B7B",
"H  c #347777",
"J  c #396F70",
"K  c #494544",
"L  c #484646",
"P  c #574B4A",
"I  c #495858",
"U  c #555656",
"Y  c #575855",
"T  c #584E51",
"R  c #68444B",
"E  c #6B5254",
"W  c #6C5B62",
"Q  c #466D6D",
"!  c #467A7A",
"~  c #566C6D",
"^  c #686969",
"/  c #6B7777",
"(  c #7B7B7B",
")  c #767575",
"_  c #727269",
"`  c #8F000A",
"'  c #B2000B",
"]  c #8A0235",
"[  c #960239",
"{  c #980C34",
"}  c #A90037",
"|  c #B70237",
" . c #AF0027",
".. c #CF0A3A",
"X. c #9B4D37",
"o. c #9F1343",
"O. c #AC0043",
"+. c #A20842",
"@. c #B40046",
"#. c #B90148",
"$. c #BB1951",
"%. c #873249",
"&. c #913455",
"*. c #AB2252",
"=. c #A93D60",
"-. c #B43D69",
";. c #C4014D",
":. c #CB004C",
">. c #C50046",
",. c #CC0051",
"<. c #CA0654",
"1. c #D50154",
"2. c #D90659",
"3. c #C91358",
"4. c #D60C53",
"5. c #E40159",
"6. c #FF005E",
"7. c #FF0053",
"8. c #EE0E55",
"9. c #D13556",
"0. c #ED2858",
"q. c #FE0165",
"w. c #FF0A67",
"e. c #FF016A",
"r. c #F60663",
"t. c #EB1765",
"y. c #FE1C6C",
"u. c #FD1468",
"i. c #FD0378",
"p. c #FE1679",
"a. c #EE0660",
"s. c #CD386E",
"d. c #E32562",
"f. c #FB266C",
"g. c #FF2676",
"h. c #E43775",
"j. c #FD3979",
"k. c #93585B",
"l. c #8E485A",
"z. c #974963",
"x. c #9F506B",
"c. c #AA5674",
"v. c #B55A79",
"b. c #AD526F",
"n. c #857A77",
"m. c #936B6F",
"M. c #AE7171",
"N. c #BA515C",
"B. c #C84A52",
"V. c #CB4E72",
"C. c #F45B6C",
"Z. c #FF427E",
"A. c #F3407E",
"S. c #E64B6F",
"D. c #C97070",
"F. c #E16763",
"G. c #B1B200",
"H. c #A19230",
"J. c #C9AE20",
"K. c #FF0886",
"L. c #FF1186",
"P. c #FD3583",
"I. c #FC3D83",
"U. c #FF3B89",
"Y. c #8C7E83",
"T. c #CD5885",
"R. c #FE438A",
"E. c #FF4B8C",
"W. c #FC4884",
"Q. c #FF5A8C",
"!. c #FF5489",
"~. c #FF4B91",
"^. c #FF5494",
"/. c #FE5C95",
"(. c #FF5D9B",
"). c #F65E94",
"_. c #C86586",
"`. c #D76D91",
"'. c #D86A90",
"]. c #FE6294",
"[. c #FF639B",
"{. c #FF6A9C",
"}. c #F36596",
"|. c #E7769B",
" X c #FD729E",
".X c #E76B96",
"XX c #FF6EA1",
"oX c #F86BAC",
"OX c #FF74A4",
"+X c #FF7AA7",
"@X c #FF7DAA",
"#X c #F779A6",
"$X c #ED7FA3",
"%X c #008B8A",
"&X c #278988",
"*X c #358686",
"=X c #319B9A",
"-X c #458989",
";X c #558A8B",
":X c #459292",
">X c #4C9494",
",X c #469B9B",
"<X c #539B9B",
"1X c #569696",
"2X c #668181",
"3X c #7A8485",
"4X c #56A2A2",
"5X c #44A0A0",
"6X c #60A8A9",
"7X c #888888",
"8X c #968582",
"9X c #999898",
"0X c #B88687",
"qX c #B59A98",
"wX c #AA9590",
"eX c #97A2A2",
"rX c #8DACAC",
"tX c #AAABAB",
"yX c #BCBCBC",
"uX c #B2B2B2",
"iX c #FF83AD",
"pX c #F281A8",
"aX c #FF86B1",
"sX c #FF89B4",
"dX c #FF8CBA",
"fX c #C4BEBF",
"gX c #C5BDAE",
"hX c #C88388",
"jX c #BAC5C5",
"kX c #CBCCCC",
"lX c #C3C3C3",
"zX c #CFD7D6",
"xX c #E5DDCE",
"cX c #E7E9E7",
"vX c #FEFEFE",
"bX c #F6F6F3",
"nX c #EFF1F1",
"mX c #F3F1DF",
"MX c None",
/* pixels */
"MXMXMXMXMXMXMXMXMXMXMXMXMXMXMXMXMXMXMXMXMXMXMXMXMXMXMXMXMXMXMXMXMXMXMXMXMXMXMXMXMXMXMXMXMXMXMXMXMXMXMXMXMXMXMXMXMXMXMXMXMXMXMXMX",
"MXMXMXMXMXMXMXMXMXMXMXMXMXMXMXMXMXMXMXMXMXMXMXMXMXMXMXMXMXMXMXMXMXMXMXMXMXMXMXMXMXMXMXMXMXMXMXMXMXMXMXMXMXMXMXMXMXMXMXMXMXMXMXMX",
"MXMXMXMXMXMXMXMXMXMXMXMXMXMXMXMXMXMXMXMXMXMXMXMXMXMXMXMXMXMXMXMXMXMXMXMXMXMXMXMXMXMXMXMXMXMXMXMXMXMXMXMXMXMXMXMXMXMXMXMXMXMXMXMX",
"MXMXMXMXMXMXMXMXMXMXMXMXMXMXMXMXMXMXMXMXMXMXMXMXMXMXMXMXMXMXMXMXMXMXMXMXMXMXMXMXMXMXMXMXMXMXMXMXMXMXMXMXMXMXMXMXMXMXMXMXMXMXMXMX",
"MXMXMXMXMXMXMXMXMXMXMXMXMXMXMXMXMXMXMXMXMXMXMXMXMXMXMXMXMXMXMXMXMXMXMXMXMXMXMXMXMXMXMXMXMXMXMXMXMXMXMXMXMXMXMXMXMXMXMXMXMXMXMXMX",
"MXMXMXMXMXMXMXMXMXMXMXMXMXMXMXMXMXMXMXMXMXMXMXMXMXMXMXMXMXMXMXMXMXMXMXMXMXMXMXMXMXMXMXMXMXMXMXMXMXMXMXMXMXMXMXMXMXMXMXMXMXMXMXMX",
"MXMXMXMXMXMXMXMXMXMXMXMXMXMXMXMXMXMXMXMXMXMX  MXMXMXMXMXMXMXMXMXMXMXMXMXMXMXMXMXMXMXMXMXMXMXMXMXMXMXMXMXMXMXMXMXMXMXMXMXMXMXMXMX",
"MXMXMXMXMXMXMXMXMXMXMXMXMXMXMXMXMXMXMXMXMXMXs f MXMXMXMXMXMXMXMXMXMXMXMXMXMXMXMXMXMXMXMXMXMXMXMXMXMXMXMXMXMXMXMXMXMXMXMXMXMXMXMX",
"MXMXMXMXMXMXMXMXMXMXMXMXMXMXMXMXMXMXMXMXMXMXz.@Xv.MXMXMXMX  MXMXMXMXMXMXMXMXMXMXMXMXMXMXMXMXMXMXMXMXMXMXMXMXMXMXMXMXMXMXMXMXMXMX",
"MXMXMXMXMXMXMXMXMXMXMXMXMXMXMXMXMXMXMXMXMXMXu ).@X_.% MXMXx.MXMXMXMXMXMXMXMXMXMXMXMXMXMXMXMXMXMXMXMXMXMXMXMXMXMXMXMXMXMXMXMXMXMX",
"MXMXMXMXMXMXMXMXMXMXMXMXMXMX  d b.s MXMXMXMXMXV.(.@X$X  =.+Xz.MXMXMXMXMXMXMXMXMXMXMXMXMXMXMXMXMXMXMXMXMXMXMXMXMXMXMXMXMXMXMXMXMX",
"MXMXMXMXMXMXMXMXMXMXMXMXMXMXMXs #X@X|._.v.x.r s.~.U.@X$Xh.U.b.MXMXMXMXMXMXMXMXMXMXMXMXMXMXMXMXMXMXMXMXMXMXMXMXMXMXMXMXMXMXMXMXMX",
"MXMXMXMXMXMXMXMXMXMXMXMXMXMXMXMX= }.@XoX@XaXpX}.R.P.I.@X{.i.j.s MXg 9 MXMXMXMXMXMXMXMXMXMXMXMXMXMXMXMXMXMXMXMXMXMXMXMXMXMXMXMXMX",
"MXMXMXMXMXMXMXMXMXMXMXMXMXMXMXMXMX% T.(.^.(.@X#X~.I.i.L.[.P.i.+.8 |   MXMXa d f f d MXMXMXMXMXMXMXMXMXMXMXMXMXMXMXMXMXMXMXMXMXMX",
"MXMXMXMXMXMXMXMXMXMXMXMXMXMXMXMXMXMX  V.^.U.P.E.P.i.S.F.9.;.$.=.V._.`.|.$X@XiXiXiXiX#X|._.d MXMXMXMXMXMXMXMXMXMXMXMXMXMXMXMXMXMX",
"MXMXMXMXMXMXMXMXMXMXMXMXMXMXMXa &.-.s.A.~.R.I.K.S.J.G.H.c.`.pXiXaXpXaX@X@X@XiXiX@X@X@XiXaXaXv.MXMXMXMXMXMXMXMXMXMXMXMXMXMXMXMXMX",
"MXMXMXMXMXMXMXMXMXMXMX  g V.).(.(.(.^.~.R.R.L.S.G.H._.#XaX@XXX[.(.[.[.{.XXOXOX+X+XOXXXXXXX+XsXv.MXMXMXMXMXMXMXMXMXMXMXMXMXMXMXMX",
"MXMXMXMXMXMXMXMXMXMXMXMXMXo.*.s.h.h.I.I.P.P.p.X.m.oX@X].E.U.E.~.^.(.(.[.[.{.XXOXXXXXXX{.(./.XXiXl.MXMXMXMXMXMXMXMXMXMXMXMXMXMXMX",
"MXMXMXMXMXMXMXMXMXMXMXMXMXMXMX$ w } @.#.3.t.3.c.+X!.e.i.P.E.~.E.^.^.(./.(.[.[.[.[.[.[.(.(.[.).@X`.MXMXMXMXMXMXMXMXMXMXMXMXMXMXMX",
"MXMXMXMXMXMXMXMXMXMXMXMXMXMXMXMXMXX ] #.2.2.b.XXf.7.q.g.p.g.U.R.R.R.E.E.^.^././.[.[.{.XXOX+XiXiXiXz.MXMXMXMXMXMXMXMXMXMXMXMXMXMX",
"MXMXMXMXMXMXMXMXMXMXMXMXMXMXMXMXMX[ O.3.<.*.|.OX].{.Q.y.Z.E.p.E.].[.{.{. XOXOX+X@X@XiXiXiXiXiXiXiX@XD.MXMXMXMXMXMXMXMXMXMXMXMXMX",
"MXMXMXMXMXMXMXMXMXMXMXMXMXMXMX% [ ;.#.;.[ x.sXaXiXsX Xy. XQ.6.].iXiXiXiXiXiXiXiXiXiXiXiXiX@X{.Z.OXiXdXb.MXMXMXMXMXMXMXMXMXMXMXMX",
"MXMXMXMXMXMXMXMXMXMXMXMXMXMXMXMXMXMX6 6   V.[. XiXiXZ.j.iXj.7.].aXiXiXiXiXaXiXiXiX+XOX{.Q.j.q.7.].iXsX'.MXMXMXMXMXMXMXMXMXMXMXMX",
"MXMXMXMXMXMXMXMXMXMXMXMXMXMXMXMXMXMXMXMX0 1.q.r.f.j.q.j.!.u.6.Z.].].].Q.Q.!.W.j.j.f.q.6.6.q.u.6.Q.aXsXc.MXMXMXMXMXMXMXMXMXMXMXMX",
"MXMXMXMXMXMXMXMXMXMXMXMXMXMXMXMXMXMXMX6 0 1.e.q.q.q.q.q.q.q.w.q.6.6.6.6.6.6.q.6.q.q.q.e.8.r.u.6.].dX#XMXMXMXMXMXMXMXMXMXMXMXMXMX",
"MXMXMXMXMXMXMXMXMXMXMXMXMXMXMXMXMXMXMXMXMX1.e.q.q.q.a.2.4.q.q.w.w.w.w.w.w.w.w.w.q.q.u.4.,.u.q.u.aXiXa MXMXMXMXMXMXMXMXMXMXMXMXMX",
"MXMXMXMXMXMXMXMXMXMXMXMXMXMXMXMXMXMXMXMXMX,.e.q.r.1.@.@.5.e.q.q.q.w.q.q.q.q.q.q.r.d.;.O.t.q.q.XX$Xa MXMXMXMXMXMXMXMXMXMXMXMXMXMX",
"MXMXMXMXMXMXMXMXMXMXMXMXMXMXMXMXMXMXMXMXMX@.e.q.;.@.@.,.q.q.q.q.q.q.e.q.q.q.r.d.:.| o.s 5.y.].'.& MXMXMXMXMXMXMXMXMXMXMXMXMXMXMX",
"MXMXMXMXMXMXMXMXMXMXMXMXMXMXMXMXMXMXMXMXMXO.e.,.O.;.#.2.e.q.q.q.q.q.q.y.t.4.<.| o.l.%Xm.r.W.c.k * MXMXMXMXMXMXMXMXMXMXMXMXMXMXMX",
"MXMXMXMXMXMXMXMXMXMXMXMXMXMXMXMXMXMXMXMXMX] 5.;.;.@.+.5.e.e.q.f.f.f.d...| } o.W I =X;X,.v.P n <Xr b MXMXMXMXMXMXMXMXMXMXMXMXMXMX",
"MXMXMXMXMXMXMXMXMXMXMXMXMXMXMXMXMXMXMXMXMXMX@.#.w [ 5.e.q.8.5.:.' ' ` l.l.! ,X5X:X! t Y.cXcX3X&Xe ~ -XMXMXMXMXMXMXMXMXMXMXMXMXMX",
"MXMXMXMXMXMXMXMXMXMXMXMXMXMXMXMXMXMXMXMXMXMX7 < 9 #.;.@.+.[ %.m.qXyXlXcXjX*X<X4X4X<XB kXvXvXfXN %.s ,Xc MXMXMXMXMXMXMXMXMXMXMXMX",
"MXMXMXMXMXMXMXMXMXMXMXMXMXMXMXMXMXMXMXMXMXMXF -X! n r :.s.$ eXvXvXnXcXvXkXG :X<X>X6XB jXbXvXzXB W u *Xc MXMXMXMXMXMXMXMXMXMXMXMX",
"MXMXMXMXMXMXMXMXMXMXMXMXMXMXMXMXMXMXMXMXMXD <X-X! N d 5.d.5 2XbXvXcXbXvXeXN <X>X>X>X:X-XzXcX3XH ! < ;X; MXMXMXMXMXMXMXMXMXMXMXMX",
"MXMXMXMXMXMXMXMXMXMXMXMXMXMXMXMXMXMXMXMXMXD >X! Q N T >.>.R h 3XzXbXcX9Xm >X<X<X<X<X<X:XF m F >XB 5 M.n.MXMXMXMXMXMXMXMXMXMXMXMX",
"MXMXMXMXMXMXMXMXMXMXMXMXMXMXMXMXMXMXMXMXMXz :X*XJ F z O.| W *XZ h Q c n >X>XV M m n B *X>X>X;Xn %.` D.n.MXMXMXMXMXMXMXMXMXMXMXMX",
"MXMXMXMXMXMXMXMXMXMXMXMXMXMXMXMXMXMXMXMXMXMXk ( hX0XI [ #.P &X;X-XG *X=XS T 8XwXqXwXm._ ! ! h 0 1.i n.MXMXMXMXMXMXMXMXMXMXMXMXMX",
"MXMXMXMXMXMXMXMXMXMXMXMXMXMXMXMXMXMXMXMXMXMXMX0XC.B.n.%. .T N S S -X;Xk.0XxXvXvXbXmXxXk.% MXMX] 4.MXMXMXMXMXMXMXMXMXMXMXMXMXMXMX",
"MXMXMXMXMXMXMXMXMXMXMXMXMXMXMXMXMXMXMXMXMXMXMX8XD.M.^ 0 } P h 1 z h R  .8XgXmXcXqXD.M.MXMXMXMXq ] MXMXMXMXMXMXMXMXMXMXMXMXMXMXMX",
"MXMXMXMXMXMXMXMXMXMXMXMXMXMXMXMXMXMXMXMXMXMXMXMXW ^ h 6 { m.Y n.9X^ < ; MX' 9.B...0...MXMXMXMXo X MXMXMXMXMXMXMXMXMXMXMXMXMXMXMX",
"MXMXMXMXMXMXMXMXMXMXMXMXMXMXMXMXMXMXMXMXMXMXMXMXj G Q 2 0 s _ n._ ( I & MXN.C.C.C.F.MXMXMXMXMXMXMXMXMXMXMXMXMXMXMXMXMXMXMXMXMXMX",
"MXMXMXMXMXMXMXMXMXMXMXMXMXMXMXMXMXMXMXMXMXMXMXMX1 I K K : y n.p t ) T < MXMXMXV.F.MXMXMXMXMXMXMXMXMXMXMXMXMXMXMXMXMXMXMXMXMXMXMX",
"MXMXMXMXMXMXMXMXMXMXMXMXMXMXMXMXMXMXMXMXMXMXMXMXO o , L 4 > P p ^ ^ p > 2 MXMXMXj MXMXMXMXMXMXMXMXMXMXMXMXMXMXMXMXMXMXMXMXMXMXMX",
"MXMXMXMXMXMXMXMXMXMXMXMXMXMXMXMXMXMXMXMXMXMXMXMXO # > L 4 W 7X( Y T 3 @ ( 9X^ A ! = MXMXMXMXMXMXMXMXMXMXMXMXMXMXMXMXMXMXMXMXMXMX",
"MXMXMXMXMXMXMXMXMXMXMXMXMXMXMXMXMXMXMXMXMXMXMXMX- J b $ 3 tXkX3XZ ;X*XQ 7X7XF *XG G C C c MXMXMXMXMXMXMXMXMXMXMXMXMXMXMXMXMXMXMX",
"MXMXMXMXMXMXMXMXMXMXMXMXMXMXMXMXMXMXMXMXMXMXMXMX# G ;XX p yXeXF 5X6X:Xz n./ m G *X,XA l C MXMXMXMXMXMXMXMXMXMXMXMXMXMXMXMXMXMXMX",
"MXMXMXMXMXMXMXMXMXMXMXMXMXMXMXMXMXMXMXMXMXMXMX# o , b x > 3X3XH ,X<X4XG K L v J H F A c - MXMXMXMXMXMXMXMXMXMXMXMXMXMXMXMXMXMXMX",
"MXMXMXMXMXMXMXMXMXMXMXMXMXMXMXMXMXMXMXMXMXMXMX@ + : : 3 3 3 3 D -X<X<X! G MXMX- v c - C MXMXMXMXMXMXMXMXMXMXMXMXMXMXMXMXMXMXMXMX",
"MXMXMXMXMXMXMXMXMXMXMXMXMXMXMXMXMXMXMXMXMXMXMX4 2 4 < > 1 p P 4 A -X-Xz J J MXMXMXZ MX- MXMXMXMXMXMXMXMXMXMXMXMXMXMXMXMXMXMXMXMX",
"MXMXMXMXMXMXMXMXMXMXMXMXMXMXMXMXMXMXMXMXMXMX: 2 t p P p P P 4 < S z S H z MXMXMXMX- MXMXMXMXMXMXMXMXMXMXMXMXMXMXMXMXMXMXMXMXMXMX",
"MXMXMXMXMXMXMXMXMXMXMXMXMXMXMXMXMXMXMXMXMXMXMXMXc Q I < p L 1 b D , D c MXMXMXMXMXMXMXMXMXMXMXMXMXMXMXMXMXMXMXMXMXMXMXMXMXMXMXMX",
"MXMXMXMXMXMXMXMXMXMXMXMXMXMXMXMXMXMXMXMXMXMXMXMX! 6X:XMXMXz S J - MXMXMXMXMXMXMXMXMXMXMXMXMXMXMXMXMXMXMXMXMXMXMXMXMXMXMXMXMXMXMX",
"MXMXMXMXMXMXMXMXMXMXMXMXMXMXMXMXMXMXMXMXMXMXMXMXj =X<XMXMX* m -X! MXMXMXMXMXMXMXMXMXMXMXMXMXMXMXMXMXMXMXMXMXMXMXMXMXMXMXMXMXMXMX",
"MXMXMXMXMXMXMXMXMXMXMXMXMXMXMXMXMXMXMXMXMXMXMXtXkXrX1XMXMX3X2XG C MXMXMXMXMXMXMXMXMXMXMXMXMXMXMXMXMXMXMXMXMXMXMXMXMXMXMXMXMXMXMX",
"MXMXMXMXMXMXMXMXMXMXMXMXMXMXMXMXMXMXMXMXMXMXMXcXvXvXkXMXeXkXfXtXMXMXMXMXMXMXMXMXMXMXMXMXMXMXMXMXMXMXMXMXMXMXMXMXMXMXMXMXMXMXMXMX",
"MXMXMXMXMXMXMXMXMXMXMXMXMXMXMXMXMXMXMXMXMXMXlXvXvXvXMXMXuXfXkXuXMXMXMXMXMXMXMXMXMXMXMXMXMXMXMXMXMXMXMXMXMXMXMXMXMXMXMXMXMXMXMXMX",
"MXMXMXMXMXMXMXMXMXMXMXMXMXMXMXMXMXMXMXMXMXMXkXnXbXkXMX( yXyXyX3XMXMXMXMXMXMXMXMXMXMXMXMXMXMXMXMXMXMXMXMXMXMXMXMXMXMXMXMXMXMXMXMX",
"MXMXMXMXMXMXMXMXMXMXMXMXMXMXMXMXMXMXMXMXMX  ( 9XU   U ( ( ( U   Y ) MXMXMXMXMXMXMXMXMXMXMXMXMXMXMXMXMXMXMXMXMXMXMXMXMXMXMXMXMXMX",
"MXMXMXMXMXMXMXMXMXMXMXMXMXMXMXMXMXMXMXMX@   2 Y > > 7X9X_ 2 : t 7XtX)   MXMXMXMXMXMXMXMXMXMXMXMXMXMXMXMXMXMXMXMXMXMXMXMXMXMXMXMX",
"MXMXMXMXMXMXMXMXMXMXMXMXMXMXMXMXMXMXMXMX. : @   > 4 ,   : 2 : 2 4 O , 3 , MXMXMXMXMXMXMXMXMXMXMXMXMXMXMXMXMXMXMXMXMXMXMXMXMXMXMX",
"MXMXMXMXMXMXMXMXMXMXMXMXMXMXMXMXMXMXMXMX. . + , : + : > , , : + + > , , : MXMXMXMXMXMXMXMXMXMXMXMXMXMXMXMXMXMXMXMXMXMXMXMXMXMXMX",
"MXMXMXMXMXMXMXMXMXMXMXMXMXMXMXMXMXMXMXMXO : : + : : , : 2 > O + > : 2 > O MXMXMXMXMXMXMXMXMXMXMXMXMXMXMXMXMXMXMXMXMXMXMXMXMXMXMX",
"MXMXMXMXMXMXMXMXMXMXMXMXMXMXMXMXMXMXMXMX. O + + + @ @ O : : . O + + , : . MXMXMXMXMXMXMXMXMXMXMXMXMXMXMXMXMXMXMXMXMXMXMXMXMXMXMX",
"MXMXMXMXMXMXMXMXMXMXMXMXMXMXMXMXMXMXMXMXMXMXMXMXMXMXMXMXMXMXMXMXMXMXMXMXMXMXMXMXMXMXMXMXMXMXMXMXMXMXMXMXMXMXMXMXMXMXMXMXMXMXMXMX"
};
