/* XPM */
static char *result[] = {
/* columns rows colors chars-per-pixel */
"64 64 237 2 ",
"   c #010000",
".  c #080404",
"X  c #170303",
"o  c #00001C",
"O  c #091717",
"+  c #101A14",
"@  c #250000",
"#  c #230B0B",
"$  c #380607",
"%  c #3A1B1B",
"&  c #361616",
"*  c #2E1414",
"=  c #01123F",
"-  c #040D2C",
";  c #052A2A",
":  c #182726",
">  c #1B3B3C",
",  c #163636",
"<  c #0A3133",
"1  c #2A2C2C",
"2  c #382525",
"3  c #2C3838",
"4  c #383939",
"5  c #450000",
"6  c #4C0404",
"7  c #410909",
"8  c #520000",
"9  c #421E1E",
"0  c #4A1718",
"q  c #57191B",
"w  c #590D12",
"e  c #640002",
"r  c #6E0E15",
"t  c #5E1D21",
"y  c #7F1F26",
"u  c #432222",
"i  c #4C2525",
"p  c #432B2B",
"a  c #4D2B2B",
"s  c #522727",
"d  c #542B2B",
"f  c #5B2D2D",
"g  c #5B2222",
"h  c #533131",
"j  c #5D3232",
"k  c #453536",
"l  c #662828",
"z  c #643232",
"x  c #6B3535",
"c  c #6E3838",
"v  c #743B3B",
"b  c #7B3E3E",
"n  c #792328",
"m  c #622B19",
"M  c #124A32",
"N  c #000F49",
"B  c #001C5B",
"V  c #153154",
"C  c #253441",
"Z  c #012679",
"A  c #02266F",
"S  c #213C72",
"D  c #014B4B",
"F  c #034445",
"G  c #194646",
"H  c #025658",
"J  c #1B5552",
"K  c #234D4D",
"L  c #2B4949",
"P  c #364749",
"I  c #2A5555",
"U  c #2E5C5C",
"Y  c #245353",
"T  c #365C5C",
"R  c #1A604D",
"E  c #2E6655",
"W  c #395F69",
"Q  c #006464",
"!  c #016D6D",
"~  c #086566",
"^  c #196465",
"/  c #037777",
"(  c #1E7174",
")  c #286665",
"_  c #356B6B",
"`  c #3A6C6C",
"'  c #356464",
"]  c #2A7575",
"[  c #347373",
"{  c #3C7474",
"}  c #3D7B7B",
"|  c #397A79",
" . c #3A6C74",
".. c #4A474A",
"X. c #594448",
"o. c #495556",
"O. c #524E52",
"+. c #7F4141",
"@. c #7B4D46",
"#. c #6D5251",
"$. c #466B6C",
"%. c #427474",
"&. c #417C7C",
"*. c #4B7878",
"=. c #666767",
"-. c #767575",
";. c #746A68",
":. c #840000",
">. c #8E0000",
",. c #9A0000",
"<. c #880E1A",
"1. c #A50005",
"2. c #B40003",
"3. c #A8120E",
"4. c #9B3904",
"5. c #B12B0E",
"6. c #9E1C27",
"7. c #A91D29",
"8. c #B7142C",
"9. c #8B2C2E",
"0. c #AC2428",
"q. c #CB1E00",
"w. c #D5002A",
"e. c #CE281E",
"r. c #D24A0C",
"t. c #843C44",
"y. c #CF2F44",
"u. c #E83B54",
"i. c #834242",
"p. c #8A4646",
"a. c #8E4949",
"s. c #824D4D",
"d. c #944B4B",
"f. c #994E4E",
"g. c #9D5151",
"h. c #8D5852",
"j. c #A15353",
"k. c #A45F5F",
"l. c #B54B53",
"z. c #966B6D",
"x. c #877C7C",
"c. c #8C6F6D",
"v. c #A76E71",
"b. c #D44A51",
"n. c #DF5F6E",
"m. c #EF5768",
"M. c #CF6E74",
"N. c #F3626F",
"B. c #368376",
"V. c #438974",
"C. c #012C87",
"Z. c #0F398F",
"A. c #063DAB",
"S. c #12429A",
"D. c #325498",
"F. c #2D4E9B",
"G. c #1D7B81",
"H. c #3B718B",
"J. c #0B47B9",
"K. c #0F43AB",
"L. c #3158AD",
"P. c #3966BE",
"I. c #3B6AA4",
"U. c #1952C7",
"Y. c #1957D6",
"T. c #0E4CC5",
"R. c #285ACD",
"E. c #376BD8",
"W. c #266BF9",
"Q. c #2A73FF",
"!. c #3B78FA",
"~. c #2D6AEB",
"^. c #1F67F3",
"/. c #018383",
"(. c #008C8C",
"). c #188787",
"_. c #2A8484",
"`. c #388686",
"'. c #379293",
"]. c #35A19E",
"[. c #438383",
"{. c #468C8C",
"}. c #4A8D8C",
"|. c #4A8484",
" X c #528A89",
".X c #4D9386",
"XX c #4B9393",
"oX c #4E9A9A",
"OX c #499796",
"+X c #529595",
"@X c #529C9C",
"#X c #589796",
"$X c #488F90",
"%X c #798B8B",
"&X c #729595",
"*X c #55A4A4",
"=X c #5AA5A5",
"-X c #5BABAB",
";X c #55A8A8",
":X c #5EB1B1",
">X c #48A2A2",
",X c #63B2B2",
"<X c #60A9A9",
"1X c #3980FF",
"2X c #818282",
"3X c #8B8B8B",
"4X c #878787",
"5X c #8A9191",
"6X c #939797",
"7X c #B19A96",
"8X c #9CA6A6",
"9X c #89A4A4",
"0X c #ABABAB",
"qX c #A4A5A5",
"wX c #A9B4B4",
"eX c #B3B4B4",
"rX c #BBBCBC",
"tX c #B6BCBB",
"yX c #BBB5AE",
"uX c #C6B2AE",
"iX c #CE9087",
"pX c #D3C8BB",
"aX c #BAC1C1",
"sX c #C7CACA",
"dX c #D4D5D5",
"fX c #DBDBDB",
"gX c #D1D2CD",
"hX c #E1D7D5",
"jX c #DDE0E0",
"kX c #E4E4E4",
"lX c #ECECEC",
"zX c #F4F4F4",
"xX c #FEFEFE",
"cX c #FFFFF5",
"vX c #F5F4EB",
"bX c #EFECD9",
"nX c None",
/* pixels */
"nXnXnXnXnXnXnXnXnXnXnXnXnXnXnXnXnXnXnXnXnXnXnXnXnXnXnXnXnXnXnXnXnXnXnXnXnXnXnXnXnXnXnXnXnXnXnXnXnXnXnXnXnXnXnXnXnXnXnXnXnXnXnXnX",
"nXnXnXnXnXnXnXnXnXnXnXnXnXnXnXnXnXnXnXnXnXnXnXnXnXnXnXnXnXnXnXnXnXnXnXnXnXnXnXnXnXnXnXnXnXnXnXnXnXnXnXnXnXnXnXnXnXnXnXnXnXnXnXnX",
"nXnXnXnXnXnXnXnXnXnXnXnXnXnXnXnXnXnXnXnXnXnXnXnXnXnXnXnXnXnXnXnXnXnXnXnXnXnXnXnXnXnXnXnXnXnXnXnXnXnXnXnXnXnXnXnXnXnXnXnXnXnXnXnX",
"nXnXnXnXnXnXnXnXnXnXnXnXnXnXnXnXnXnXnXnXnXnXnXnXnXnXnXnXnXnXnXnXnXnXnXnXnXnXnXnXnXnXnXnXnXnXnXnXnXnXnXnXnXnXnXnXnXnXnXnXnXnXnXnX",
"nXnXnXnXnXnXnXnXnXnXnXnXnXnXnXnXnXnXnXnXnXnXnXnXnXnXnXnXnXnXnXnXnXnXnXnXnXnXnXnXnXnXnXnXnXnXnXnXnXnXnXnXnXnXnXnXnXnXnXnXnXnXnXnX",
"nXnXnXnXnXnXnXnXnXnXnXnXnXnXnXnXnXnXnXnXnXnXnXnXnXnXnXnXnXnXnXnXnXnXnXnXnXnXnXnXnXnXnXnXnXnXnXnXnXnXnXnXnXnXnXnXnXnXnXnXnXnXnXnX",
"nXnXnXnXnXnXnXnXnXnXnXnXnXnXnXnXnXnXnXnXnXnXnXnXnXnXnXnXnXnXnXnXnXnXnXnXnXnXnXnXnXnXnXnXnXnXnXnXnXnXnXnXnXnXnXnXnXnXnXnXnXnXnXnX",
"nXnXnXnXnXnXnXnXnXnXnXnXnXnXnXnXnXnXnXnXnXnXnXnXs z x x v v v b z   nXnXnXnXnXnXnXnXnXnXnXnXnXnXnXnXnXnXnXnXnXnXnXnXnXnXnXnXnXnX",
"nXnXnXnXnXnXnXnXnXnXnXnXnXnXnXnXnXnXnXnXi z v p.d.h.d.a.p.i.i.i.v i s 9   nXnXnXnXnXnXnXnXnXnXnXnXnXnXnXnXnXnXnXnXnXnXnXnXnXnXnX",
"nXnXnXnXnXnXnXnXnXnXnX  nXnXnXnXnXnXz i.d.f.d.p.i.9.b b v v v v b b v f s a &   nXnXnXnXnXnXnXnXnXnXnXnXnXnXnXnXnXnXnXnXnXnXnXnX",
"nXnXnXnXnXnXnXnXnXnXnX# # nXnXu x d.d.p.i.b i.i.i.i.i.+.b b i.p.d.g.f.i.+.c d X nXnXnXnXnXnXnXnXnXnXnXnXnXnXnXnXnXnXnXnXnXnXnXnX",
"nXnXnXnXnXnXnXnXnXnXnXs % nXx d.d.i.b b i.p.p.i.i.i.b +.p.d.g.j.g.a.+.i.+.c j X nXnXnXnXnXnXnXnXnXnXnXnXnXnXnXnXnXnXnXnXnXnXnXnX",
"nXnXnXnXnXnXnXnXnXnXnXx j i.d.i.v b +.t.i.i.i.i.i.p.d.g.j.j.f.a.v z z x c c f s u . nXnXnXnXnXnXnXnXnXnXnXnXnXnXnXnXnXnXnXnXnXnX",
"nXnXnXnXnXnXnXnXnXnXz b b i.x c v b b b +.i.i.a.g.j.g.g.d.i.z f x z d z v b x f % nXnXnXnXnXnXnXnXnXnXnXnXnXnXnXnXnXnXnXnXnXnXnX",
"nXnXnXnXnXnX  * i x +.v x x b b +.+.p.d.f.j.a.c d.d.v v v x f a d f f d z z x % nXnXnXnXnXnXnXnXnXnXnXnXnXnXnXnXnXnXnXnXnXnXnXnX",
"nXnXnXnXnXnXnXnX& f c b +.v i.d.g.d.+.d.g.g.v % j v h p s g d i 1 0 5 & 6 d x x % nXnXnXnXnXnXnXnXnXnXnXnXnXnXnXnXnXnXnXnXnXnXnX",
"nXnXnXnXnXnXnXnXf +.d.j.g.v z v p.p.p d c v j h i 6 g s p u 0 5 G %.1 ) ` & i % %   nXnXnXnXnXnXnXnXnXnXnXnXnXnXnXnXnXnXnXnXnXnX",
"nXnXnXnXnXnXnXX d i i.i.i.v u u 9 h g d p u 6 6 1 ..p 5 : [.%.' %.;XXXXX;X` 8 + nXnXnXnXnXnXnXnXnXnXnXnXnXnXnXnXnXnXnXnXnXnXnXnX",
"nXnXnXnXnXnXnXnXnXd z f j f f a * @ p 6 $ P o.& I oX{.} ` ;X-X*X@X@X*X&.XXXXi & nXnXnXnXnXnXnXnXnXnXnXnXnXnXnXnXnXnXnXnXnXnXnXnX",
"nXnXnXnXnXnXnXnX* z x x z z f u : K { ` L Y XXXXXX-X-X:X=X=X*X*X*X;XoX%. ._ $.@ nXnXnXnXnXnXnXnXnXnXnXnXnXnXnXnXnXnXnXnXnXnXnXnX",
"nXnXnXnXnXnXnXnX# z x x f d f s & &.@X*X+X|.@X:X:X:X-X-X-X-X;X*X-X-X-X<X|.*.@X+ Y nXnXnXnXnXnXnXnXnXnXnXnXnXnXnXnXnXnXnXnXnXnXnX",
"nXnXnXnXnXnXnXnXnXz z z z f u p 5 I oX*X*X;X=X-X-X-X-X-X-X;X=X=X;X-X-X).).).-XT [.$X_ nXnXnXnXnXnXnXnXnXnXnXnXnXnXnXnXnXnXnXnXnX",
"nXnXnXnXnXnXnXnXnXd x f j f 9 < ' K ' +X+X<X,X:X,X,X-X-X;X*X@X*X*X-X'.8XrX&X_.[.' XX@X` nXnXnXnXnXnXnXnXnXnXnXnXnXnXnXnXnXnXnXnX",
"nXnXnXnXnXnXnXnXnX9 x f d a d 2 [ ' . %.XX/.(.).(.>X,X=X@X;X&.[.*X'.9XxXxXkX%X`.K { {.XX> nXnXnXnXnXnXnXnXnXnXnXnXnXnXnXnXnXnXnX",
"nXnXnXnXnXnXnXnXnX. x x d a a 5 3 [.{ [./ 5XwXaXwX|.'.;X;X*X}.XX#X).wXxXlXlXdXQ |.K [.{.K nXnXnXnXnXnXnXnXnXnXnXnXnXnXnXnXnXnXnX",
"nXnXnXnXnXnXnXnXnXnX% z f h i 1 @ | @XQ eXzXxXxXlXjX&X`.XXoX*X@XoXXX#XzXxXxXfXD @XU [.{.O nXnXnXnXnXnXnXnXnXnXnXnXnXnXnXnXnXnXnX",
"nXnXnXnXnXnXnXnXnXnX. h f i f 1 ) ' ~ 4XxXxXxXlXkXzX6X! T | @XXXoX+X_.9XjXjX5X^ oX} ' U nXnXnXnXnXnXnXnXnXnXnXnXnXnXnXnXnXnXnXnX",
"nXnXnXnXnXnXnXnXnXnXnXX @ X i $ | +X; aXxXzXxXzXlXeX/ ' L { } { {.XX+X/ *.*.Q $X} ' O nXnXnXnXnXnXnXnXnXnXnXnXnXnXnXnXnXnXnXnXnX",
"nXnXnXnXnXnXnXnXnXnXnXG _ [ 3 5 T @XH 6XxXxXkXdXlXqXB.G | ] T I [.oX@X#X'._.XX[.I O nXnXnXnXnXnXnXnXnXnXnXnXnXnXnXnXnXnXnXnXnXnX",
"nXnXnXnXnXnXnXnXnXnXI XXXXXX[ @ 3 XX%.D sXxXkX*.4X&X*X$XOXT ` {  X( H H `.}.{ K   nXnXnXnXnXnXnXnXnXnXnXnXnXnXnXnXnXnXnXnXnXnXnX",
"nXnXnXnXnXnXnXnXnX: oXXX} { } I   } @X) D wX0X/ /.>X=XoXXX] F H o v.7X7Xh...J I Y nXnXnXnXnXnXnXnXnXnXnXnXnXnXnXnXnXnXnXnXnXnXnX",
"nXnXnXnXnXnXnXnXnXU OX} { { { } , K {.XX| D D *.<X=X@X X/ G uXtXyXvXbXgX@.P ) Y Y > nXnXnXnXnXnXnXnXnXnXnXnXnXnXnXnXnXnXnXnXnXnX",
"nXnXnXnXnXnXnXnXnXI XX[.{ { { { [ 3 *.*.#X+X`._ oXXX}.`.$.gXcXxXvXpXiXv.~ [ Y nXnXnXnXnXnXnXnXnXnXnXnXnXnXnXnXnXnXnXnXnXnXnXnXnX",
"nXnXnXnXnXnXnXnXnX  [.XX[.{ | | V.( ! Q / [. .[.oX}.| ..-.pXpXjXuX1.w.w.$.) nXnXnXnXnXnXnXnXnXnXnXnXnXnXnXnXnXnXnXnXnXnXnXnXnXnX",
"nXnXnXnXnXnXnXnXnXnX> { $X$X{.[.^ O.d.f.s.3 3 oX*X}.' :.0.>.y.y.y.b.N.n.> nXnXnXnXnXnXnXnXnXnXnXnXnXnXnXnXnXnXnXnXnXnXnXnXnXnXnX",
"nXnXnXnXnXnXnXnXnXnXnXnXK U T G $ 3.5.e.5.O T -X@X`.k 0.2.c l.u.u.m.n.p.nXnXnXnXnXnXnXnXnXnXnXnXnXnXnXnXnXnXnXnXnXnXnXnXnXnXnXnX",
"nXnXnXnXnXnXnXnXnXnXnXnXnXnXnXX 6 6.0.3.#.{.[.oX#X&.m 7.<.Q | c.k.z.#.nXnXnXnXnXnXnXnXnXnXnXnXnXnXnXnXnXnXnXnXnXnXnXnXnXnXnXnXnX",
"nXnXnXnXnXnXnXnXnXnXnXnXnXnXnXq 0 w <.r Q OX{.OX(.! 4.y w ^ ( /./ ! ; nXnXnXnXnXnXnXnXnXnXnXnXnXnXnXnXnXnXnXnXnXnXnXnXnXnXnXnXnX",
"nXnXnXnXnXnXnXnXnXnXnXnXnXnXnXt r w t 7 C $.{ $.;.l.r.  & ; I T ^ J nXnXnXnXnXnXnXnXnXnXnXnXnXnXnXnXnXnXnXnXnXnXnXnXnXnXnXnXnXnX",
"nXnXnXnXnXnXnXnXnXnXnXnXnXnXnXe y <.r r y 6.9.7.8.q.4.nXnXnXnXnXnXnXnXnXnXnXnXnXnXnXnXnXnXnXnXnXnXnXnXnXnXnXnXnXnXnXnXnXnXnXnXnX",
"nXnXnXnXnXnXnXnXnXnXnXnXnXnX, p e z O.<.1.l X.9.1.o.W nXnXnXnXnXnXnXnXnXnXnXnXnXnXnXnXnXnXnXnXnXnXnXnXnXnXnXnXnXnXnXnXnXnXnXnXnX",
"nXnXnXnXnXnXnXnXnXnXnXnXnXnXnX_ C [ G.o.X.G.`.H.O.].V.nXnXnXnXnXnXnXnXnXnXnXnXnXnXnXnXnXnXnXnXnXnXnXnXnXnXnXnXnXnXnXnXnXnXnXnXnX",
"nXnXnXnXnXnXnXnXnXnXnXnXnXnXnX} V.$X}.B.B..X.XV.E  XH.nXnXnXnXnXnXnXnXnXnXnXnXnXnXnXnXnXnXnXnXnXnXnXnXnXnXnXnXnXnXnXnXnXnXnXnXnX",
"nXnXnXnXnXnXnXnXnXnXnXnXnXnXC {  .%.{ H.H.H.I.P.E.~.!.C nXnXnXnXnXnXnXnXnXnXnXnXnXnXnXnXnXnXnXnXnXnXnXnXnXnXnXnXnXnXnXnXnXnXnXnX",
"nXnXnXnXnXnXnXnXnXnXnXnXnXnXV D.D.R.R.F.R.Y.~.W.Q.Q.U.E.L.nXnXnXnXnXnXnXnXnXnXnXnXnXnXnXnXnXnXnXnXnXnXnXnXnXnXnXnXnXnXnXnXnXnXnX",
"nXnXnXnXnXnXnXnXnXnXnXnXnXnX= Z A.Y.Q.P.A.T.T.J.S.Z.K.W.!.D.nXnXnXnXnXnXnXnXnXnXnXnXnXnXnXnXnXnXnXnXnXnXnXnXnXnXnXnXnXnXnXnXnXnX",
"nXnXnXnXnXnXnXnXnXnXnXnXnXnX= Z J.Y.W.E.. N nX. N Z Y.^.Q.!.C nXnXnXnXnXnXnXnXnXnXnXnXnXnXnXnXnXnXnXnXnXnXnXnXnXnXnXnXnXnXnXnXnX",
"nXnXnXnXnXnXnXnXnXnXnXnXnXnXN Z K.U.W.!.nXnXnXnXB C.J.L.K.S.O nXnXnXnXnXnXnXnXnXnXnXnXnXnXnXnXnXnXnXnXnXnXnXnXnXnXnXnXnXnXnXnXnX",
"nXnXnXnXnXnXnXnXnXnXnXnXnXnXnXZ K.Y.^.1XL.nXnXnXnXA C.B M R nXnXnXnXnXnXnXnXnXnXnXnXnXnXnXnXnXnXnXnXnXnXnXnXnXnXnXnXnXnXnXnXnXnX",
"nXnXnXnXnXnXnXnXnXnXnXnXnXnXnXA C.Z.Z.U.I nXnXnXnXnXo M ] ] ) nXnXnXnXnXnXnXnXnXnXnXnXnXnXnXnXnXnXnXnXnXnXnXnXnXnXnXnXnXnXnXnXnX",
"nXnXnXnXnXnXnXnXnXnXnXnXnXnXnXo > } .XT nXnXnXnXnXnXO J ( B.' nXnXnXnXnXnXnXnXnXnXnXnXnXnXnXnXnXnXnXnXnXnXnXnXnXnXnXnXnXnXnXnXnX",
"nXnXnXnXnXnXnXnXnXnXnXnXnXnXnXnX{ @X;X+XnXnXnXnXnXnX; ^ ] ] G nXnXnXnXnXnXnXnXnXnXnXnXnXnXnXnXnXnXnXnXnXnXnXnXnXnXnXnXnXnXnXnXnX",
"nXnXnXnXnXnXnXnXnXnXnXnXnXnXnXK }.@X-X{.nXnXnXnXnXnXV ) | [ nXnXnXnXnXnXnXnXnXnXnXnXnXnXnXnXnXnXnXnXnXnXnXnXnXnXnXnXnXnXnXnXnXnX",
"nXnXnXnXnXnXnXnXnXnXnXnXnXnXnX|.=X-XXXnXnXnXnXnXnXnX; M V M nXnXnXnXnXnXnXnXnXnXnXnXnXnXnXnXnXnXnXnXnXnXnXnXnXnXnXnXnXnXnXnXnXnX",
"nXnXnXnXnXnXnXnXnXnXnXnXnXnX  Q ! (.%.nXnXnXnXnXnX0XeXwXwXV.nXnXnXnXnXnXnXnXnXnXnXnXnXnXnXnXnXnXnXnXnXnXnXnXnXnXnXnXnXnXnXnXnXnX",
"nXnXnXnXnXnXnXnXnXnXnXnXnXwXdXsXdXaXnXnXnXnXnXnX$ c.z.z.-.=.X nXnXnXnXnXnXnXnXnXnXnXnXnXnXnXnXnXnXnXnXnXnXnXnXnXnXnXnXnXnXnXnXnX",
"nXnXnXnXnXnXnXnXnXnXnXnXnX0XuXyX7X4X=.5X=.nXnX-.v.>.>.e x.0XsXrX6XnXnXnXnXnXnXnXnXnXnXnXnXnXnXnXnXnXnXnXnXnXnXnXnXnXnXnXnXnXnXnX",
"nXnXnXnXnXnXnXnXnXnXnXnXc.0.2.1.h.sXxXxXxXdX=.x.k.:.X.6XrXsXdXdXfXrX1 nXnXnXnXnXnXnXnXnXnXnXnXnXnXnXnXnXnXnXnXnXnXnXnXnXnXnXnXnX",
"nXnXnXnXnXnXnXnXnXnXnXnXdXb.1.c.fXlXzXxXxXxXzX;.e q 6X0XrXuXsXdXdXdX6XnXnXnXnXnXnXnXnXnXnXnXnXnXnXnXnXnXnXnXnXnXnXnXnXnXnXnXnXnX",
"nXnXnXnXnXnXnXnXnXnXnX=.M.2.@.sXkXkXlXzXxXzXzXgXO.5X4X%X4X6X6XqX0XeXeXnXnXnXnXnXnXnXnXnXnXnXnXnXnXnXnXnXnXnXnXnXnXnXnXnXnXnXnXnX",
"nXnXnXnXnXnXnXnXnXnXnXi b @.%X0XqX0XeXeXeXtXuX0X-.qXqXwXeX0X0XqX0XqX4X3 nXnXnXnXnXnXnXnXnXnXnXnXnXnXnXnXnXnXnXnXnXnXnXnXnXnXnXnX",
"nXnXnXnXnXnXnXnXnXnXnX6XgXjXfXdXfXfXdXfXdXzXzXdX=.nXnXnXnX-.x.3X0X0X6Xk nXnXnXnXnXnXnXnXnXnXnXnXnXnXnXnXnXnXnXnXnXnXnXnXnXnXnXnX",
"nXnXnXnXnXnXnXnXnXnXnXnXnXnXnXnXnXnXnXnXnXnXnXnXnXnXnXnXnXnXnXnXnXnXnXnXnXnXnXnXnXnXnXnXnXnXnXnXnXnXnXnXnXnXnXnXnXnXnXnXnXnXnXnX",
"nXnXnXnXnXnXnXnXnXnXnXnXnXnXnXnXnXnXnXnXnXnXnXnXnXnXnXnXnXnXnXnXnXnXnXnXnXnXnXnXnXnXnXnXnXnXnXnXnXnXnXnXnXnXnXnXnXnXnXnXnXnXnXnX"
};
