/* XPM */
static char *result[] = {
/* columns rows colors chars-per-pixel */
"64 64 231 2 ",
"   c #000000",
".  c #0B0A0A",
"X  c #1B0609",
"o  c #001407",
"O  c #151515",
"+  c #1C1C1C",
"@  c #181111",
"#  c #061516",
"$  c #270006",
"%  c #360006",
"&  c #2C0917",
"*  c #27171C",
"=  c #023836",
"-  c #0E322E",
";  c #242424",
":  c #2B2B2B",
">  c #292526",
",  c #352928",
"<  c #2A3838",
"1  c #333333",
"2  c #3D3533",
"3  c #3C3C3C",
"4  c #343838",
"5  c #311123",
"6  c #580000",
"7  c #490419",
"8  c #7C001D",
"9  c #690008",
"0  c #4A1427",
"q  c #6B0126",
"w  c #6F0E2E",
"e  c #443C3B",
"r  c #532836",
"t  c #73263C",
"y  c #34403C",
"u  c #49423D",
"i  c #46413E",
"p  c #693245",
"a  c #76374B",
"s  c #7B334C",
"d  c #034848",
"f  c #045C5B",
"g  c #1A5557",
"h  c #094D4E",
"j  c #284849",
"k  c #3C4243",
"l  c #344C4C",
"z  c #295757",
"x  c #365858",
"c  c #00625D",
"v  c #005C60",
"b  c #2F5F63",
"n  c #086766",
"m  c #007977",
"M  c #2B6E6F",
"N  c #376969",
"B  c #397979",
"V  c #247978",
"C  c #444444",
"Z  c #4B4A4A",
"A  c #484845",
"S  c #564A47",
"D  c #5B524C",
"F  c #5B5A5A",
"G  c #565453",
"H  c #514F54",
"J  c #744C52",
"K  c #5F5F60",
"L  c #7B5761",
"P  c #436B6C",
"I  c #496567",
"U  c #467A7A",
"Y  c #5A6A6C",
"T  c #626363",
"R  c #6C6C6C",
"E  c #66797A",
"W  c #7B7B7B",
"Q  c #747272",
"!  c #756D6E",
"~  c #9A0005",
"^  c #83000D",
"/  c #B90016",
"(  c #840134",
")  c #9B023C",
"_  c #990035",
"`  c #A40028",
"'  c #B9002E",
"]  c #A8003B",
"[  c #B80038",
"{  c #C61A36",
"}  c #961741",
"|  c #AD0144",
" . c #A50742",
".. c #B30145",
"X. c #B60048",
"o. c #BC024A",
"O. c #BA0447",
"+. c #AA1D53",
"@. c #972A49",
"#. c #862B4A",
"$. c #A7385A",
"%. c #B83A68",
"&. c #C6004D",
"*. c #CA004F",
"=. c #C70853",
"-. c #D60155",
";. c #D60557",
":. c #D11054",
">. c #E5015B",
",. c #FE005D",
"<. c #FE0054",
"1. c #EE0C57",
"2. c #CE2C56",
"3. c #E73A52",
"4. c #E8314C",
"5. c #CF0F61",
"6. c #FE0165",
"7. c #FC0B66",
"8. c #FF006A",
"9. c #FF0D69",
"0. c #F50362",
"q. c #FC1669",
"w. c #F71171",
"e. c #D7346D",
"r. c #EA2764",
"t. c #FC266C",
"y. c #FE2A78",
"u. c #FF3B7A",
"i. c #FB3679",
"p. c #EC2E76",
"a. c #894D56",
"s. c #B24E56",
"d. c #974F65",
"f. c #A3516D",
"g. c #B35170",
"h. c #987A7A",
"j. c #8E6E6F",
"k. c #AA6E6E",
"l. c #C2577A",
"z. c #D25273",
"x. c #ED4F6D",
"c. c #DF6964",
"v. c #FF717F",
"b. c #C5575A",
"n. c #1F807F",
"m. c #8A8500",
"M. c #A59D00",
"N. c #BFAE00",
"B. c #B8C400",
"V. c #B08951",
"C. c #C8807D",
"Z. c #FE0283",
"A. c #FF2786",
"S. c #FE3985",
"D. c #BF6180",
"F. c #DB5985",
"G. c #C05F80",
"H. c #FE4383",
"J. c #FF458B",
"K. c #FE4B8C",
"L. c #FF4984",
"P. c #FF5A8D",
"I. c #FF538C",
"U. c #FF4E92",
"Y. c #FF4691",
"T. c #FE5493",
"R. c #FE5C95",
"E. c #FF5E9A",
"W. c #E84F84",
"Q. c #C66384",
"!. c #D26A8D",
"~. c #DB6C91",
"^. c #D26A92",
"/. c #DA7194",
"(. c #D57E82",
"). c #FF639B",
"_. c #FF6B9D",
"`. c #FB6696",
"'. c #E47499",
"]. c #E96B96",
"[. c #FF6DA0",
"{. c #FF60A0",
"}. c #FE74A4",
"|. c #FE7AA7",
" X c #FF7DAB",
".X c #F77AA6",
"XX c #E363A0",
"oX c #F259AD",
"OX c #0C8E8C",
"+X c #2B8383",
"@X c #3A8685",
"#X c #339493",
"$X c #37A1A1",
"%X c #478888",
"&X c #548686",
"*X c #4C9494",
"=X c #479797",
"-X c #539C9C",
";X c #5C9999",
":X c #6A8989",
">X c #728C8B",
",X c #58A5A5",
"<X c #868686",
"1X c #979898",
"2X c #859B9B",
"3X c #AD8F8C",
"4X c #98A4A4",
"5X c #8DABAB",
"6X c #A9A9A9",
"7X c #B7B6B6",
"8X c #B2B0A5",
"9X c #FF82AD",
"0X c #FA81A7",
"qX c #FF86B2",
"wX c #FF8AB4",
"eX c #FF8BB8",
"rX c #C5B3AA",
"tX c #C2BBBC",
"yX c #D0888B",
"uX c #C7C3BB",
"iX c #C4C4C4",
"pX c #C7CBCB",
"aX c #D7D7D7",
"sX c #E3DFDF",
"dX c #EFE8D8",
"fX c #DDE2E1",
"gX c #E9EAE9",
"hX c #FDFEFD",
"jX c #F2F2F2",
"kX c #FCFBEF",
"lX c None",
/* pixels */
"lXlXlXlXlXlXlXlXlXlXlXlXlXlXlXlXlXlXlXlXlXlXlXlXlXlXlXlXlXlXlXlXlXlXlXlXlXlXlXlXlXlXlXlXlXlXlXlXlXlXlXlXlXlXlXlXlXlXlXlXlXlXlXlX",
"lXlXlXlXlXlXlXlXlXlXlXlXlXlXlXlXlXlXlXlXlXlXlXlXlXlXlXlXlXlXlXlXlXlXlXlXlXlXlXlXlXlXlXlXlXlXlXlXlXlXlXlXlXlXlXlXlXlXlXlXlXlXlXlX",
"lXlXlXlXlXlXlXlXlXlXlXlXlXlXlXlXlXlXlXlXlXlXlXlXlXlXlXlXlXlXlXlXlXlXlXlXlXlXlXlXlXlXlXlXlXlXlXlXlXlXlXlXlXlXlXlXlXlXlXlXlXlXlXlX",
"lXlXlXlXlXlXlXlXlXlXlXlXlXlXlXlXlXlXlXlXlXlXlXlXlXlXlXlXlXlXlXlXlXlXlXlXlXlXlXlXlXlXlXlXlXlXlXlXlXlXlXlXlXlXlXlXlXlXlXlXlXlXlXlX",
"lXlXlXlXlXlXlXlXlXlXlXlXlXlXlXlXlXlXlXlXlXlXlXlXlXlXlXlXlXlXlXlXlXlXlXlXlXlXlXlXlXlXlXlXlXlXlXlXlXlXlXlXlXlXlXlXlXlXlXlXlXlXlXlX",
"lXlXlXlXlXlXlXlXlXlXlXlXlXlXlXlXlXlXlXlXlXlXlXlXlXlXlXlXlXlXlXlXlXlXlXlXlXlXlXlXlXlXlXlXlXlXlXlXlXlXlXlXlXlXlXlXlXlXlXlXlXlXlXlX",
"lXlXlXlXlXlXlXlXlXlXlXlXlXlXlXlXlXlXlXlXlXlXlXlXlXlXlXlXlXlXlXlXlXlXlXlXlXlXlXlXlXlXlXlXlXlXlXlXlXlXlXlXlXlXlXlXlXlXlXlXlXlXlXlX",
"lXlXlXlXlXlXlXlXlXlXlXlXlXlXlXlXlXlXlXlXlXlXlXlXlXlXlXlXlXlXlXlXlXlXlXlXlXlXlXlXlXlXlXlXlXlXlXlXlXlXlXlXlXlXlXlXlXlXlXlXlXlXlXlX",
"lXlXlXlXlXlXlXlXlXlXlXlXlXlXlXlXlXlXlXlXlXlXlXlXlXlXlXlXlXlXlXlXlXlXlXlXlXlXlXlXlXlXlXlXlXlXlXlXlXlXlXlXlXlXlXlXlXlXlXlXlXlXlXlX",
"lXlXlXlXlXlXlXlXlXlXlXlXlX0 p lXlXlXlXlX  lXlXlXlXlXlXlXlXlXlXlXlXlXlXlXlXlXlXlXlXlXlXlXlXlXlXlXlXlXlXlXlXlXlXlXlXlXlXlXlXlXlXlX",
"lXlXlXlXlXlXlXlXlXlXlXlXlXa 0XD.r lXlXlXd.a.lXlXlXlXlXlXlXlXlXlXlXlXlXlXlXlXlXlXlXlXlXlXlXlXlXlXlXlXlXlXlXlXlXlXlXlXlXlXlXlXlXlX",
"lXlXlXlXlXlXlXlXlXlXlXlXlXlXl. X.XQ.p   F._.o lXlXlXlXlXlXlXlXlXlXlXlXlXlXlXlXlXlXlXlXlXlXlXlXlXlXlXlXlXlXlXlXlXlXlXlXlXlXlXlXlX",
"lXlXlXlXlXlXlXlXlXlXlXlXlXlXs Y.{.}.qXQ.p.S.g.lXlXr 7 lXlXlXa f.Q.!./.'.'.^.f.lXlXlXlXlXlXlXlXlXlXlXlXlXlXlXlXlXlXlXlXlXlXlXlXlX",
"lXlXlXlXlXlXlXlXlXlXlXlXlXlX  e.Y.S.E.qX_.8.S.$.9 [ 6 J G.~. XqXqXqXqX X XqXqX.Xa lXlXlXlXlXlXlXlXlXlXlXlXlXlXlXlXlXlXlXlXlXlXlX",
"lXlXlXlXlXlXo #.~.~.^.^.^././.].K.S.y.J.{.J.8.&.} g.~.qXqXqX X9X X|.}.[.[.).[. XqXa lXlXlXlXlXlXlXlXlXlXlXlXlXlXlXlXlXlXlXlXlXlX",
"lXlXlXlXlXlXlXlXd.}. X}.}.}. X9X`.S.Z.8.e.2.+.Q.0XqX X|.}.}.}.}.}.}.[.[._.E.T.T. X.X5 lXlXlXlXlXlXlXlXlXlXlXlXlXlXlXlXlXlXlXlXlX",
"lXlXlXlXlXlXlXlXlX  g.R.T.U.J.K.K.Z.c.N.m.g..XeX}._.E.E._._._.[.[._._.).).)._.|.9XqX'.g.lXlXlXlXlXlXlXlXlXlXlXlXlXlXlXlXlXlXlXlX",
"lXlXlXlXlXlXlXlXlXlXlX0 F.U.J.S.Z.c.B.V.~.qX[.T.Y.T.R.R.E.E.).).).).E.)._.|.9X9X9X9X9XeXqXa lXlXlXlXlXlXlXlXlXlXlXlXlXlXlXlXlXlX",
"lXlXlXlXlXlXlXlXlXlX#.%.p.J.H.A.p.M.V.oX0XK.S.Y.K.T.T.T.T.T.T.T.R._.}.0X9X0X9XqX_.u.}.0XeXQ.lXlXlXlXlXlXlXlXlXlXlXlXlXlXlXlXlXlX",
"lXlXlXlXlXlXlXp f.F.E.E.U.Y.S.A.e.J 0X}.w.A.S.J.J.J.J.J.U.R._.}.|.9X9X9X9X9X9XP.q.<.I. XqX!.lXlXlXlXlXlXlXlXlXlXlXlXlXlXlXlXlXlX",
"lXlXlXlXlX& $.].E.T.K.S.S.p.p.w.+.!.`.<.8.y.w.y.S.J.R._.}.0X9X9X9X9XqX9X}.P.t.,.7.6.u.|.eXg.lXlXlXlXlXlXlXlXlXlXlXlXlXlXlXlXlXlX",
"lXlXlXlXlX& s } ( _ ..o.X.| =.;.l.`.6.u.H.q.L.E.8.K.9X9X9X9X9XqX9X}.E.x.q.,.6.7.q.,.t.9X0Xt lXlXlXlXlXlXlXlXlXlXlXlXlXlXlXlXlXlX",
"lXlXlXlXlXlXlXlXlXlXlX& q X.-.=.Q. X}.9X|.u.P.}.<.i. XqX9X|.[.P.u.q.6.6.6.7.7.-.q.,.L.qXf.lXlXlXlXlXlXlXlXlXlXlXlXlXlXlXlXlXlXlX",
"lXlXlXlXlXlXlXlXlXlXlX7 | =.o. ./.eX0XwX Xt.R.}.,.9.P.R.x.t.6.,.6.6.6.9.9.7.o.-.q.<.}.^.lXlXlXlXlXlXlXlXlXlXlXlXlXlXlXlXlXlXlXlX",
"lXlXlXlXlXlXlXlXlXlX7 o.X.| _ w F._.`._.P.7.i.u.6.0.6.,.6.6.6.6.6.7.8.6.1.=._ ;.,.P.~.$ lXlXlXlXlXlXlXlXlXlXlXlXlXlXlXlXlXlXlXlX",
"lXlXlXlXlXlXlXlXlX  7 q & lXlX& -.6.,.,.6.6.6.,.,.6.9.7.7.8.6.6.6.6.8.1.o.[ z $.y.W.I n + z lXlXlXlXlXlXlXlXlXlXlXlXlXlXlXlXlXlX",
"lXlXlXlXlXlXlXlXlXlXlXlXlXlXlX( o.9.7.q.9.8.>.=.>.8.6.6.6.6.6.8.6.0.2.o.] E OXz.e.5 m -Xq U %XlXlXlXlXlXlXlXlXlXlXlXlXlXlXlXlXlX",
"lXlXlXlXlXlXlXlXlXlXlXlXlXlX%   ) 8.6.6.8.-. .*.6.8.6.6.6.6.6.8.r.:.[ } F OX! ] 7XfX1Xm J w *XN lXlXlXlXlXlXlXlXlXlXlXlXlXlXlXlX",
"lXlXlXlXlXlXlXlXlXlXlXlXlXlXlXlXq 0.8.6.-.| X.-.6.6.6.6.6.6.t.2.' _ L #X#X&Xg :XhXhXsX:XB ^ P n.lXlXlXlXlXlXlXlXlXlXlXlXlXlXlXlX",
"lXlXlXlXlXlXlXlXlXlXlXlXlXlXlXlXlX..8.>.X.X.X.;.8.6.6.8.t.r.[ ~ d.E #X,X,X;X#X;XjXjXhX1Xn.H D E lXlXlXlXlXlXlXlXlXlXlXlXlXlXlXlX",
"lXlXlXlXlXlXlXlXlXlXlXlXlXlXlXlXlX( 6.>.| &.| *.6.8.7.-./ ~ a.7XpX:Xv &X-X=X;X+X4XjXfXY @X+X6 k.<XlXlXlXlXlXlXlXlXlXlXlXlXlXlXlX",
"lXlXlXlXlXlXlXlXlXlXlXlXlXlXlXlXlXlX| -.o. . .>.6.:...@.3XaXhXgX2Xc l N %X*X*X=Xn.&XB B @XN 8 s.h.lXlXlXlXlXlXlXlXlXlXlXlXlXlXlX",
"lXlXlXlXlXlXlXlXlXlXlXlXlXlXlXlXlXlXq o.8 6 *.*.] @.% 1XhXgX7X7X;Xf N U z N =X*X*X@X#X&Xc ] [ ! lXlXlXlXlXlXlXlXlXlXlXlXlXlXlXlX",
"lXlXlXlXlXlXlXlXlXlXlXlXlXlXlXlXlXlXlX, z K N - -.r.^ x fXiXd +X,X-X%Xz N &XM z b U U I = O.+.lXlXlXlXlXlXlXlXlXlXlXlXlXlXlXlXlX",
"lXlXlXlXlXlXlXlXlXlXlXlXlXlXlXlXlXlXlXM -X@XV x [ >.} d z E ,X,X-X-X%Xn d C 3XtXrXa.< < = w ) lXlXlXlXlXlXlXlXlXlXlXlXlXlXlXlXlX",
"lXlXlXlXlXlXlXlXlXlXlXlXlXlXlXlXlXlXlXB *XN U n p *.] I #Xg V -X*X+Xd 3X8XiXkXdXuXY h N g lX7 lXlXlXlXlXlXlXlXlXlXlXlXlXlXlXlXlX",
"lXlXlXlXlXlXlXlXlXlXlXlXlXlXlXlXlXlXlXN =X@XM m j ] [ D OX>XQ U B S k.dXkXhXrX{ / b h lXj lX  lXlXlXlXlXlXlXlXlXlXlXlXlXlXlXlXlX",
"lXlXlXlXlXlXlXlXlXlXlXlXlXlXlXlXlXlXlX< B %Xh.3X! #.{ J h >XuX7X4Xj.J j.C.C.2.4.x.lXlXlXlXlXlXlXlXlXlXlXlXlXlXlXlXlXlXlXlXlXlXlX",
"lXlXlXlXlXlXlXlXlXlXlXlXlXlXlXlXlXlXlXlXlXQ c.3.k.K ` @.= Z <X8X<XZ # $ { 3.c.v.s.lXlXlXlXlXlXlXlXlXlXlXlXlXlXlXlXlXlXlXlXlXlXlX",
"lXlXlXlXlXlXlXlXlXlXlXlXlXlXlXlXlXlXlXlXlX<XyXb.h.z 8  .2 l 2     ; C < S s.b.s.lXlXlXlXlXlXlXlXlXlXlXlXlXlXlXlXlXlXlXlXlXlXlXlX",
"lXlXlXlXlXlXlXlXlXlXlXlXlXlXlXlXlXlXlXlXlXlXlXW e h I ( w = e 2 Z C O > - o   lXlXlXlXlXlXlXlXlXlXlXlXlXlXlXlXlXlXlXlXlXlXlXlXlX",
"lXlXlXlXlXlXlXlXlXlXlXlXlXlXlXlXlXlXlXlXlXlXlXlX  3 z e % y , K Q C     lXlXlXlXlXlXlXlXlXlXlXlXlXlXlXlXlXlXlXlXlXlXlXlXlXlXlXlX",
"lXlXlXlXlXlXlXlXlXlXlXlXlXlXlXlXlXlXlXlXlXlXlX: ; > , k Z D F R R Z lXlXlXlXlXlXlXlXlXlXlXlXlXlXlXlXlXlXlXlXlXlXlXlXlXlXlXlXlXlX",
"lXlXlXlXlXlXlXlXlXlXlXlXlXlXlXlXlXlXlXlXlXlXlX. @ 1 4 i G i F T Z lXlXlXlXlXlXlXlXlXlXlXlXlXlXlXlXlXlXlXlXlXlXlXlXlXlXlXlXlXlXlX",
"lXlXlXlXlXlXlXlXlXlXlXlXlXlXlXlXlXlXlXlXlXlXlX  y z : 4 # K R A C lXlXlXlXlXlXlXlXlXlXlXlXlXlXlXlXlXlXlXlXlXlXlXlXlXlXlXlXlXlXlX",
"lXlXlXlXlXlXlXlXlXlXlXlXlXlXlXlXlXlXlXlXlXlXlXlXz @XN k + C T A Z lXlXlXlXlXlXlXlXlXlXlXlXlXlXlXlXlXlXlXlXlXlXlXlXlXlXlXlXlXlXlX",
"lXlXlXlXlXlXlXlXlXlXlXlXlXlXlXlXlXlXlXlXlXlXlXlX; N N l > A Q G C H lXlXlXlXlXlXlXlXlXlXlXlXlXlXlXlXlXlXlXlXlXlXlXlXlXlXlXlXlXlX",
"lXlXlXlXlXlXlXlXlXlXlXlXlXlXlXlXlXlXlXlXlXlXlXO O $ , 4 i e i i C Z 1 lXlXlXlXlXlXlXlXlXlXlXlXlXlXlXlXlXlXlXlXlXlXlXlXlXlXlXlXlX",
"lXlXlXlXlXlXlXlXlXlXlXlXlXlXlXlXlXlXlXlXlXlXlX+ ; : : : : 3 S i 1 i u lXlXlXlXlXlXlXlXlXlXlXlXlXlXlXlXlXlXlXlXlXlXlXlXlXlXlXlXlX",
"lXlXlXlXlXlXlXlXlXlXlXlXlXlXlXlXlXlXlXlXlXlXlX, 2 u D A S D i 2 D S e lXlXlXlXlXlXlXlXlXlXlXlXlXlXlXlXlXlXlXlXlXlXlXlXlXlXlXlXlX",
"lXlXlXlXlXlXlXlXlXlXlXlXlXlXlXlXlXlXlXlXlXlXlX: y Z S 3 e u k l x < lXlXlXlXlXlXlXlXlXlXlXlXlXlXlXlXlXlXlXlXlXlXlXlXlXlXlXlXlXlX",
"lXlXlXlXlXlXlXlXlXlXlXlXlXlXlXlXlXlXlXlXlXlXlXlXP ;Xn.lXlXlX= P %XlXlXlXlXlXlXlXlXlXlXlXlXlXlXlXlXlXlXlXlXlXlXlXlXlXlXlXlXlXlXlX",
"lXlXlXlXlXlXlXlXlXlXlXlXlXlXlXlXlXlXlXlXlXlXlXlXh $X,XlXlXlX- n n.P lXlXlXlXlXlXlXlXlXlXlXlXlXlXlXlXlXlXlXlXlXlXlXlXlXlXlXlXlXlX",
"lXlXlXlXlXlXlXlXlXlXlXlXlXlXlXlXlXlXlXlXlXlXlX6XpX5X*XlXlX>X6X6X>Xx lXlXlXlXlXlXlXlXlXlXlXlXlXlXlXlXlXlXlXlXlXlXlXlXlXlXlXlXlXlX",
"lXlXlXlXlXlXlXlXlXlXlXlXlXlXlXlXlXlXlXlXlXlXlXgXhXhXiXlXlX1XiXiX7XlXlXlXlXlXlXlXlXlXlXlXlXlXlXlXlXlXlXlXlXlXlXlXlXlXlXlXlXlXlXlX",
"lXlXlXlXlXlXlXlXlXlXlXlXlXlXlXlXlXlXlXlXlXlXiXhXhXhXlXlXlXtXiXaX6XlXlXlXlXlXlXlXlXlXlXlXlXlXlXlXlXlXlXlXlXlXlXlXlXlXlXlXlXlXlXlX",
"lXlXlXlXlXlXlXlXlXlXlXlXlXlXlXlXlXlXlXlXlXlXpXjXjXiXlXlX>X6X6X1Xy lXlXlXlXlXlXlXlXlXlXlXlXlXlXlXlXlXlXlXlXlXlXlXlXlXlXlXlXlXlXlX",
"lXlXlXlXlXlXlXlXlXlXlXlXlXlXlXlXlXlXlXlXlX  W 1XG   F W e R W . > W <XlXlXlXlXlXlXlXlXlXlXlXlXlXlXlXlXlXlXlXlXlXlXlXlXlXlXlXlXlX",
"lXlXlXlXlXlXlXlXlXlXlXlXlXlXlXlXlXlXlXlXO   1 F : : <X4XQ @ : : Z <X1XT   lXlXlXlXlXlXlXlXlXlXlXlXlXlXlXlXlXlXlXlXlXlXlXlXlXlXlX",
"lXlXlXlXlXlXlXlXlXlXlXlXlXlXlXlXlXlXlXlX. > O   : 4 >   + 3 ; ; :     : 3 lXlXlXlXlXlXlXlXlXlXlXlXlXlXlXlXlXlXlXlXlXlXlXlXlXlXlX",
"lXlXlXlXlXlXlXlXlXlXlXlXlXlXlXlXlXlXlXlX. O + > ; + ; : : : ; + ; : 1 : : + lXlXlXlXlXlXlXlXlXlXlXlXlXlXlXlXlXlXlXlXlXlXlXlXlXlX",
"lXlXlXlXlXlXlXlXlXlXlXlXlXlXlXlXlXlXlXlXO + ; + ; ; ; ; : 1 O O > + > 1 ;   lXlXlXlXlXlXlXlXlXlXlXlXlXlXlXlXlXlXlXlXlXlXlXlXlXlX",
"lXlXlXlXlXlXlXlXlXlXlXlXlXlXlXlXlXlXlXlX  + + + + + O O ; > . lXlXlX+ : +   lXlXlXlXlXlXlXlXlXlXlXlXlXlXlXlXlXlXlXlXlXlXlXlXlXlX",
"lXlXlXlXlXlXlXlXlXlXlXlXlXlXlXlXlXlXlXlXlXlXlXlXlXlXlXlXlXlXlXlXlXlXlXlXlXlXlXlXlXlXlXlXlXlXlXlXlXlXlXlXlXlXlXlXlXlXlXlXlXlXlXlX"
};
