/* XPM */
static char *result[] = {
/* columns rows colors chars-per-pixel */
"64 64 241 2 ",
"   c #000000",
".  c #0B0B0B",
"X  c #000D15",
"o  c #0A1518",
"O  c #1D1B1B",
"+  c #151312",
"@  c #2B0400",
"#  c #350000",
"$  c #3C0000",
"%  c #271010",
"&  c #201F21",
"*  c #092226",
"=  c #292828",
"-  c #2B3839",
";  c #3C3C3C",
":  c #353636",
">  c #372F30",
",  c #4C0000",
"<  c #450101",
"1  c #530000",
"2  c #5C0000",
"3  c #5D0C0B",
"4  c #5B1717",
"5  c #481D1D",
"6  c #640000",
"7  c #680706",
"8  c #730101",
"9  c #7C0000",
"0  c #760A08",
"q  c #731612",
"w  c #482B2B",
"e  c #562F2F",
"r  c #672A2A",
"t  c #792222",
"y  c #6A3839",
"u  c #753A3A",
"i  c #554100",
"p  c #67542F",
"a  c #2E3F43",
"s  c #3D4648",
"d  c #444545",
"f  c #4C4C4C",
"g  c #424849",
"h  c #4B5456",
"j  c #585758",
"k  c #584948",
"l  c #724747",
"z  c #725051",
"x  c #535E61",
"c  c #635E65",
"v  c #5C6567",
"b  c #5D6871",
"n  c #666969",
"m  c #756768",
"M  c #6B7577",
"N  c #747B7C",
"B  c #7B7B7B",
"V  c #747574",
"C  c #7A6C5C",
"Z  c #8B0101",
"A  c #810000",
"S  c #940202",
"D  c #9C0101",
"F  c #951717",
"G  c #851B1B",
"H  c #A40000",
"J  c #AA0000",
"K  c #B30101",
"L  c #BB0000",
"P  c #B11616",
"I  c #892323",
"U  c #9E2828",
"Y  c #A72424",
"T  c #C30101",
"R  c #CC0303",
"E  c #D20101",
"W  c #DD0404",
"Q  c #C81A1A",
"!  c #E30000",
"~  c #E50C0C",
"^  c #FF0101",
"/  c #FF0E0E",
"(  c #FA1717",
")  c #E71B1B",
"_  c #CF2121",
"`  c #E82121",
"'  c #FF2F2F",
"]  c #C5330E",
"[  c #875700",
"{  c #AC4700",
"}  c #A67900",
"|  c #B0700A",
" . c #B64733",
".. c #8F7436",
"X. c #A36F1F",
"o. c #C67500",
"O. c #CE7200",
"+. c #E27D00",
"@. c #89514F",
"#. c #8E724C",
"$. c #837778",
"%. c #8C776F",
"&. c #CE726B",
"*. c #DE5A47",
"=. c #008500",
"-. c #3A9862",
";. c #61865D",
":. c #B1950D",
">. c #A7A024",
",. c #C98F00",
"<. c #D49800",
"1. c #E98600",
"2. c #E49F00",
"3. c #CEAC00",
"4. c #FAB908",
"5. c #ECB105",
"6. c #E2A72D",
"7. c #FFC500",
"8. c #FFD408",
"9. c #FFCD16",
"0. c #FFD615",
"q. c #FEE301",
"w. c #FFEB00",
"e. c #F8E705",
"r. c #FEF300",
"t. c #FEFE01",
"y. c #FEFF09",
"u. c #FEE716",
"i. c #FEF718",
"p. c #E2E000",
"a. c #FED727",
"s. c #FFE921",
"d. c #FFFC23",
"f. c #C8C500",
"g. c #8F8771",
"h. c #A88A6B",
"j. c #CDA641",
"k. c #C2A86F",
"l. c #F4CB6D",
"z. c #EEC14E",
"x. c #627188",
"c. c #7A8183",
"v. c #788386",
"b. c #7A8991",
"n. c #75B183",
"m. c #868788",
"M. c #898F90",
"N. c #938F91",
"B. c #8D9293",
"V. c #8B9699",
"C. c #93999B",
"Z. c #9B9D9C",
"A. c #959495",
"S. c #988C87",
"D. c #A49897",
"F. c #AA918F",
"G. c #B0A68B",
"H. c #949EA0",
"J. c #8F94A1",
"K. c #A59EA1",
"L. c #9CA3A4",
"P. c #9AA7AA",
"I. c #8DA2A7",
"U. c #A4AAAC",
"Y. c #ABABAC",
"T. c #A5A5A6",
"R. c #B4ABA9",
"E. c #A6AFB4",
"W. c #ADB3B4",
"Q. c #ABB6B9",
"!. c #B2B3B4",
"~. c #B4BBBC",
"^. c #BBBBBB",
"/. c #B8B5B5",
"(. c #C8B08E",
"). c #C1B6B6",
"_. c #E6B8B2",
"`. c #E7A199",
"'. c #8DD1A5",
"]. c #ADD2B5",
"[. c #99D8A8",
"{. c #EDD094",
"}. c #FFE491",
"|. c #DCCFB2",
" X c #EAD4A8",
".X c #E8D4B1",
"XX c #FEECBB",
"oX c #F8E3B7",
"OX c #FFEDB0",
"+X c #D8C590",
"@X c #ACB9C2",
"#X c #B2BEC2",
"$X c #BABEC1",
"%X c #B5C2C5",
"&X c #BBC2C4",
"*X c #BBC6CA",
"=X c #BCC9CB",
"-X c #BECAD3",
";X c #B3F3C3",
":X c #C2C4C4",
">X c #C2C7C8",
",X c #C4CACC",
"<X c #CACCCC",
"1X c #C6CFD1",
"2X c #CECFD0",
"3X c #C6D1D4",
"4X c #CCD3D5",
"5X c #CDD6D9",
"6X c #CDD7DA",
"7X c #D2D3D3",
"8X c #D2D7D9",
"9X c #D4DBDC",
"0X c #DBDEDE",
"qX c #D8D6D6",
"wX c #D4CBCD",
"eX c #EDD5CA",
"rX c #CBE8D6",
"tX c #F8EAC7",
"yX c #FFF5C8",
"uX c #F1E7D6",
"iX c #D6DEE0",
"pX c #D9DFE1",
"aX c #DCE3E4",
"sX c #DAE4E7",
"dX c #DEF9E8",
"fX c #E1E5E5",
"gX c #E1E7E8",
"hX c #E5EAEB",
"jX c #EAEDEE",
"kX c #E7E4E3",
"lX c #FAF6E5",
"zX c #EBEFF0",
"xX c #E4EBF0",
"cX c #EDF1F3",
"vX c #E9F3F8",
"bX c #F2F4F5",
"nX c #F4F9FA",
"mX c #FDFEFE",
"MX c #F6F6F7",
"NX c #F8E7E5",
"BX c None",
/* pixels */
"BXBXBXBXBXBXBXBXBXBXBXBXBXBXBXBXBXBXBXBXBXBXBXBXBXBXBXBXBXBXBXBXBXBXBXBXBXBXBXBXBXBXBXBXBXBXBXBXBXBXBXBXBXBXBXBXBXBXBXBXBXBXBXBX",
"BXBXBXBXBXBXBXBXBXBXBXBXBXBXBXBXBXBXBXBXBXBXBXBXBXBXBXBXBXBXBXBXBXBXBXBXBXBXBXBXBXBXBXBXBXBXBXBXBXBXBXBXBXBXBXBXBXBXBXBXBXBXBXBX",
"BXBXBXBXBXBXBXBXBXBXBXBXBXBXBXBXBXBXBXBXBXBXBXBXBXBXBXBXBXBXBXBXBXBXBXBXBXBXBXBXBXBXBXBXBXBXBXBXBXBXBXBXBXBXBXBXBXBXBXBXBXBXBXBX",
"BXBXBXBXBXBXBXBXBXBXBXBXBXBXBXBXBXBXBXBXBXBXBXBXBXBXBXBXBXBXBXBXBXBXBXBXBXBXBXBXBXBXBXBXBXBXBXBXBXBXBXBXBXBXBXBXBXBXBXBXBXBXBXBX",
"BXBXBXBXBXBXBXBXBXBXBXBXBXBXBXBXBXBXBXBXBXBXBXBXBXBXBXBXBXBXBXBXBXBXBXBXBXBXBXBXBXBXBXBXBXBXBXBXBXBXBXBXBXBXBXBXBXBXBXBXBXBXBXBX",
"BXBXBXBXBXBXBXBXBXBXBXBXBXBXBXBXBXBXBXBXBXBXBXBXBXBXBXBXBXBXBXBXBXBXBXBXt I U t BXBXBXBXBXBXBXBXBXBXBXBXBXBXBXBXBXBXBXBXBXBXBXBX",
"BXBXBXBXBXBXBXBXBXBXBXBXBXBXBXBXBXBXBXBXBXBXBXBXBXBXBXBXBXBXBXBXG Y _ ` ` ( ' ' P BXBXBXBXBXBXBXBXBXBXBXBXBXBXBXBXBXBXBXBXBXBXBX",
"BXBXBXBXBXBXBXBXBXBXBXBXBXBXBXBXBXBXBXBXBXBXBXBXBXBXBXBXBXBXF _ ) ~ ! ! ! ! ` / Q BXBXBXBXBXBXBXBXBXBXBXBXBXBXBXBXBXBXBXBXBXBXBX",
"BXBXBXBXBXBXBXBXBXBXBXBXBXBXBXBXBXBXBXBXBXBXBXBXBXBXBXBXq Q W W W E E E E E ) / P BXBXBXBXBXBXBXBXBXBXBXBXBXBXBXBXBXBXBXBXBXBXBX",
"BXBXBXBXBXBXBXBXBXBXBXBXBXBXBXBXBXBXBXBXBXBXBXBXBXBXBXZ R R T T T T R T L T ~ ^ K BXBXBXBXBXBXBXBXBXBXBXBXBXBXBXBXBXBXBXBXBXBXBX",
"BXBXBXBXBXBXBXBXBXBXBXBXBXBXBXBXBXBXBXBXBXBXBXBXBXBXS L L K K L K H T K H L W ^ H BXBXBXBXBXBXBXBXBXBXBXBXBXBXBXBXBXBXBXBXBXBXBX",
"BXBXBXBXBXBXBXBXBXBXBXBXBXBXBXBXBXBXBXBXBXBXBXBXBXA K J J H J J H Z K J Z H W ^ D BXBXBXBXBXBXBXBXBXBXBXBXBXBXBXBXBXBXBXBXBXBXBX",
"BXBXBXBXBXBXBXBXBXBXBXBXBXBXBXBXBXBXBXBXBXBXBXBX7 H H D H S S P F I Y Y I U ) ( F BXBXBXBXBXBXBXBXBXBXBXBXBXBXBXBXBXBXBXBXBXBXBX",
"BXBXBXBXBXBXBXBXBXBXBXBXBXBXBXBXBXBXBXBXBXBXBX# Z S Z S D I G D Z < A 8 < 9 W ^ Z BXBXBXBXBXBXBXBXBXBXBXBXBXBXBXBXBXBXBXBXBXBXBX",
"BXBXBXBXBXBXBXBXBXBXBXBXBXBXBXBXBXBXBXBXBXBXBX6 Z Z 9 G F 8 , u $.T./.).^.!.F.&.1 BXBXBXBXBXBXBXBXBXBXBXBXBXBXBXBXBXBXBXBXBXBXBX",
"BXBXBXBXBXBXBXBXBXBXBXBXBXBXBXBXBXBXBXBXBXBX@ 9 A 0 t 6 2 m.>XfXnXmXmXmXmXmXmXmXhX<XY.BXBXBXBXBXBXBXBXBXBXBXBXBXBXBXBXBXBXBXBXBX",
"BXBXBXBXBXBXBXBXBXBXBXBXBXBXBXBXBXBXBXBXBXBX< 8 q 7 , V ,XjXcXbXjXbXmXmXmXmXmXmXmXnXkX!.> f B B BXBXBXBXBXBXBXBXBXBXBXBXBXBXBXBX",
"BXBXBXBXBXBXBXBXBXBXBXBXBXBXBXBXBXBXBXBXBXBX< q 6 $ T.gXjXhXjXzXcXbXnXmXmXjX7X/.Y.Y.<X0XjXmXmXmXfXV BXBXBXBXBXBXBXBXBXBXBXBXBXBX",
"BXBXBXBXBXBXBXBXBXBXBXBXBXBXBXBXBXBXBXBXBXBX5 6 # Q.hXfXfXhXjXjXbXmXbX<XY.!.>X0XjXnX,XP.4XmXmXmXbXbXZ.BXBXBXBXBXBXBXBXBXBXBXBXBX",
"BXBXBXBXBXBXBXBXBXBXBXBXBXBXBXBXBXBXBXBXBXBX4 < U.gXpXaXgXgXhXbXcX).A.W.9X<X9XcXnX<X    v.jXmXMXgXzXbX!.BXBXBXBXBXBXBXBXBXBXBXBX",
"BXBXBXBXBXBXBXBXBXBXBXBXBXBXBXBXBXBXBXBXBXBX@ m.iX9XpXaXaXgXcX,XB.U.0XcX%X    7XnX<X    M hXmXMXjX,XP.sXC.BXBXBXBXBXBXBXBXBXBXBX",
"BXBXBXBXBXBXBXBXBXBXBXBXBXBXBXBXBXBXBXBXBXBX> >XiX8X9XpXfXgXL.B.4XgXaXsXL.    >XnX7X    b sXmXzXhXA.o %XgXn BXBXBXBXBXBXBXBXBXBX",
"BXBXBXBXBXBXBXBXBXBXBXBXBXBXBXBXBXBXBXBXBXBXN 4X5X5X8XaX9Xm.Y.aXv.n 0XgXW.    &XbX9X+   x aXmXjXsXV * @XhXU.BXBXBXBXBXBXBXBXBXBX",
"BXBXBXBXBXBXBXBXBXBXBXBXBXBXBXBXBXBXBXBXBXBXH.3X3X4X9X4XN W.sX*Xo   4XhXW.X   ~.bX9X;   h 8XmXjX9Xf x =XsX5X  BXBXBXBXBXBXBXBXBX",
"BXBXBXBXBXBXBXBXBXBXBXBXBXBXBXBXBXBXBXBXBXBXQ.5X6X9X4XM ~.9X6X,Xh   <XhX~.-   Y.bXaXd   a 5XnXjX4X  M 3X5X5Xj BXBXBXBXBXBXBXBXBX",
"BXBXBXBXBXBXBXBXBXBXBXBXBXBXBXBXBXBXBXBXBXj @XP.L.Q.N Q.9X3X9X1Xv   &XjX%XX   U.zXgXV   h 0XnXgX~.  V.5XM.~.V BXBXBXBXBXBXBXBXBX",
"BXBXBXBXBXBXBXBXBXBXBXBXBXBXBXBXBXBXBXBXBX  N ^.wX$X;.W.6X3X6X3Xv   ~.sX6Xm.B 0XcXbXjX2XkXmXnXzX=X  P.,Xn *Xn BXBXBXBXBXBXBXBXBX",
"BXBXBXBXBXBXBXBXBXBXBXBXBXBXBXBXBXBXBXBXBXV bXmXmXmXcXc.L.9X4X9Xv.: 4XgXjXjXhXsX3X-X#X#XE.I.I.*XsX:X4X^.x.1Xg BXBXBXBXBXBXBXBXBX",
"BXBXBXBXBXBXBXBXBXBXBXBXBXBXBXBXBXBXBXBX= nXmXmXmXMXzX%XM ,X4X8X9XaXiX-XE.H.g.#.X.| ,.o.o.| { 0 M 1XhXm.V.&XBXBXBXBXBXBXBXBXBXBX",
"BXBXBXBXBXBXBXBXBXBXBXBXBXBXBXBXBXBXBXBXZ.mXmXmXmXbXgX*Xm.W.sX-X%XJ.$.>.f.p.e.w.r.i.i.u.u.s.s.8.2.p @XW.Q.C.BXBXBXBXBXBXBXBXBXBX",
"BXBXBXBXBXBXBXBXBXBXBXBXBXBXBXBXBXBXBXBX&XcXbXbXhXzX8X#XV.b.P.%.} 3.w.t.i.d.d.i.i.t.t.t.t.t.t.y.d.y.:.Q.sXn BXBXBXBXBXBXBXBXBXBX",
"BXBXBXBXBXBXBXBXBXU.&X%X&X^.&X>X1X<XBXBX&XaXpXaXgXpX#X#XV.#.#.+.0.a.2.u.i.r.r.y.7.9.y.t.t.t.t.t.y.d.y.>.x.BXBXBXBXBXBXBXBXBXBXBX",
"BXBXBXBXBXBXBXBX#X1XA.z 2 , 1 r m W.jXZ.C.iX8XiX4X%X@X%Xn  X{.#.,.,.c +.4.a.9.9.3.1.4.q.w.w.r.t.t.r.u.8.3.i BXBXBXBXBXBXBXBXBXBX",
"BXBXBXBXBXBXBX*X$X1 6 0 C F.S.4 7 $ g.hXx.#X*X&XQ.%X=Xm.b l.+XjXiXR.'.-...2.4.8.:.C 1.4.a.w.w.r.w.r.q.4.6.} BXBXBXBXBXBXBXBXBXBX",
"BXBXBXBXBXBXW.4X1 u u N.4XjXmX0Xz u # ~.qXn ,X*X*X~.b.Z.sXg.G.mX;Xn.=.[.G.k.k.j.} G.G.{ 4.8.8.w.w.w.r.:.BXBXBXBXBXBXBXBXBXBXBXBX",
"BXBXBXBXBXBX,XU.1 u y #XiXgXmXnX$.3 7 A.mXj + x.N v.U.aXbX7Xp wXdX[.rX].{.yXtXeX|.|.oX..#.+.7.q.w.e.e.3.BXBXBXBXBXBXBXBXBXBXBXBX",
"BXBXBXBXBXBX,XW.1 z r B E.*X&Xm.r z # ^.jXs D.%.j ~.aXpXjXmX9Xv R.eX|. XyXXXyXlXlXyX}.uXvX;.o.4.8.q.w.5.BXBXBXBXBXBXBXBXBXBXBXBX",
"BXBXBXBXBXBX~.iXm , u r r y 4 3 r $ m.nX~.  ).uXkXI.<XpXhXbXnXjXM +XXXoX|.eX.XoXtXXX XsX'.[.g., | ,.5.7.} BXBXBXBXBXBXBXBXBXBXBX",
"BXBXBXBXBXBXBX4X8Xm.r 1 1 2 1 1 l Y.bX9Xd   H._.MX6XB.aXaXfXbX$Xh.}.XX|.sXmXcXuXtXXX X9X].G.R.b.BXBXBXBX[ BXBXBXBXBXBXBXBXBXBXBX",
"BXBXBXBXBXBXBXv.$X5X<X!.T.K.Y.:XgXnX>Xg   - )._.kXvX|.V.5XgX,X* @ >.j.l. XuXuXzXtXyX{.Z.$X*XzXZ.BXBXBXBXBXBXBXBXBXBXBXBXBXBXBXBX",
"BXBXBXBXBXBXBXM C.!.].qX0XsX9X<XQ.m.BXBXBXn F.F.>XbXmX7XL.E.@. .h   /.S.} j.z.l.}.}.(.9XMXnX,XBXBXBXBXBXBXBXBXBXBXBXBXBXBXBXBXBX",
"BXBXBXBXBXBXBXBX&X4XU.x.N BXBXBXBXBXBXBXBXBXM.aXnXmXmXmXeXS ] *.$.R.uX).BXBXBX....[ D.nXzXzXL.BXBXBXBXBXBXBXBXBXBXBXBXBXBXBXBXBX",
"BXBXBXBXBXBXBXBXBXBXBXBXBXBXBXBXBXBXBXBXBXw 7XmXmXmXmXmXNX&.E  .k Z.).F.BXBXBXBXBXBX&XbXiXQ.BXBXBXBXBXBXBXBXBXBXBXBXBXBXBXBXBXBX",
"BXBXBXBXBXBXBXBXBXBXBXBXBXBXBXBXBXBXBXBX& u %.<XMXmXmXmXmX_.`.K.    O BXBXBXBXBXBXBXH.E.v.BXBXBXBXBXBXBXBXBXBXBXBXBXBXBXBXBXBXBX",
"BXBXBXBXBXBXBXBXBXBXBXBXBXBXBXBXBXBXBXBX% r t 8 @.D.&X9X<X<X:Xk 4 @.@.u BXBXBXBXBXBXBXBXBXBXBXBXBXBXBXBXBXBXBXBXBXBXBXBXBXBXBXBX",
"BXBXBXBXBXBXBXBXBXBXBXBXBXBXBXBXBXBXBXBXBXO w y t 8 8 , >XmX8X< u l w <   BXBXBXBXBXBXBXBXBXBXBXBXBXBXBXBXBXBXBXBXBXBXBXBXBXBXBX",
"BXBXBXBXBXBXBXBXBXBXBXBXBXBXBXBXBXBXBXBX: d - X = d w j 3XbX>X5 5   n H.B.BXBXBXBXBXBXBXBXBXBXBXBXBXBXBXBXBXBXBXBXBXBXBXBXBXBXBX",
"BXBXBXBXBXBXBXBXBXBXBXBXBXBXBXBXBXBXBXO f f : O + o o   v c.d =   Z.8XbXmX:XBXBXBXBXBXBXBXBXBXBXBXBXBXBXBXBXBXBXBXBXBXBXBXBXBXBX",
"BXBXBXBXBXBXBXBXBXBXBXBXBXBXBXBXBXBXBXg h ; = . BXBXBX+     h d = &X6X8XhX4XBXBXBXBXBXBXBXBXBXBXBXBXBXBXBXBXBXBXBXBXBXBXBXBXBXBX",
"BXBXBXBXBXBXBXBXBXBXBXBXBXBXBXBXBXBX  w ; = . BXBXBXBXBX& = d O v L.5XgXsX&XBXBXBXBXBXBXBXBXBXBXBXBXBXBXBXBXBXBXBXBXBXBXBXBXBXBX",
"BXBXBXBXBXBXBXBXBXBXBXBXBXBXBXBXBX,X,X; + O BXBXBXBXBXBXBX=   j 7XsX!.,X&X&X!.BXBXBXBXBXBXBXBXBXBXBXBXBXBXBXBXBXBXBXBXBXBXBXBXBX",
"BXBXBXBXBXBXBXBXBXBXBXBXBXBXBXBXW.nXcX^.O BXBXBXBXBXBXBXBXBX  ~.jXbX<Xh ~.aX^.n BXBXBXBXBXBXBXBXBXBXBXBXBXBXBXBXBXBXBXBXBXBXBXBX",
"BXBXBXBXBXBXBXBXBXBXBXBXBXBXBXBX<XnXaX9XL.BXBXBXBXBXBXBXBXBXB.6X9XbXbXU.m.V h L.9X&X!.BXBXBXBXBXBXBXBXBXBXBXBXBXBXBXBXBXBXBXBXBX",
"BXBXBXBXBXBXBXBXBXBXBXBXBXBXBXBXjXnX9X5X~.BXBXBXBXBXBXBXBXBXB.iX6XgXnX~.T.N B 7X6X6XiXaX<X~.Z.BXBXBXBXBXBXBXBXBXBXBXBXBXBXBXBXBX",
"BXBXBXBXBXBXBXBXBXBXBXBXBXBXBXBX9XfX5XsXm.BXBXBXBXBXBXBXBXBXBXU.4X&X8X~.BX  h U.,XiX8X5X5XsXjX9X>XY.BXBXBXBXBXBXBXBXBXBXBXBXBXBX",
"BXBXBXBXBXBXBXBXBXBXBX/.<X$XM.!.9X,X#XL.BXBXBXBXBXBXBXBXBXBXBXBX^.9XkX~.T.<XqXY.BXA.~.5XsX6X4X6XaXjXgX2X^.BXBXBXBXBXBXBXBXBXBXBX",
"BXBXBXBXBXBXBXBXBXBXjXmXmXmXjX#X4XjXiXm.BXBXBXBXBXBXBXBXBXBXBXW.sXsXQ.&XjXnXmXmXkXBXBXBXZ.&X0XgX9X5X4XiXzXmX^.BXBXBXBXBXBXBXBXBX",
"BXBXBXBXBXBXBXBXBX8XmXmXMXgX9X1XH.^.sXW.BXBXBXBXBXBXBXBXBXBXBX~.sXU.E.3X9XsXbXmXmX>XBXBXBXBXBXT.:XsXjXiX1XsXmX/.BXBXBXBXBXBXBXBX",
"BXBXBXBXBXBXBXBXBXsXpXaXiX5X=X=X#XP.sXU.BXBXBXBXBXBXBXBXBXBXBXU.~.M.E.E.#X,X5X9XsX5XBXBXBXBXBXBXBXBXY.<XjXbXfX^.BXBXBXBXBXBXBXBX",
"BXBXBXBXBXBXBXBXBXBXBXBXBXBXBXBXBXBXBXBXBXBXBXBXBXBXBXBXBXBXBXBXBXBXBXBXBXBXBXBXBXBXBXBXBXBXBXBXBXBXBXBXBXBXBXBXBXBXBXBXBXBXBXBX",
"BXBXBXBXBXBXBXBXBXBXBXBXBXBXBXBXBXBXBXBXBXBXBXBXBXBXBXBXBXBXBXBXBXBXBXBXBXBXBXBXBXBXBXBXBXBXBXBXBXBXBXBXBXBXBXBXBXBXBXBXBXBXBXBX",
"BXBXBXBXBXBXBXBXBXBXBXBXBXBXBXBXBXBXBXBXBXBXBXBXBXBXBXBXBXBXBXBXBXBXBXBXBXBXBXBXBXBXBXBXBXBXBXBXBXBXBXBXBXBXBXBXBXBXBXBXBXBXBXBX",
"BXBXBXBXBXBXBXBXBXBXBXBXBXBXBXBXBXBXBXBXBXBXBXBXBXBXBXBXBXBXBXBXBXBXBXBXBXBXBXBXBXBXBXBXBXBXBXBXBXBXBXBXBXBXBXBXBXBXBXBXBXBXBXBX",
"BXBXBXBXBXBXBXBXBXBXBXBXBXBXBXBXBXBXBXBXBXBXBXBXBXBXBXBXBXBXBXBXBXBXBXBXBXBXBXBXBXBXBXBXBXBXBXBXBXBXBXBXBXBXBXBXBXBXBXBXBXBXBXBX"
};
