/* XPM */
static char *result[] = {
/* columns rows colors chars-per-pixel */
"64 64 242 2 ",
"   c black",
".  c #0E0E0E",
"X  c #081415",
"o  c #171818",
"O  c #130E10",
"+  c #3D0000",
"@  c #371818",
"#  c #2A0E01",
"$  c #000032",
"%  c #252524",
"&  c #2B2B2B",
"*  c #272929",
"=  c #312E2E",
"-  c #3D3D3D",
";  c #343838",
":  c #2B3232",
">  c #0F2D2D",
",  c #430000",
"<  c #4C0000",
"1  c #4F040B",
"2  c #550000",
"3  c #5C0100",
"4  c #521918",
"5  c #630000",
"6  c #6C0202",
"7  c #730000",
"8  c #7B0000",
"9  c #691818",
"0  c #791717",
"q  c #463435",
"w  c #563434",
"e  c #572626",
"r  c #672726",
"t  c #683A3A",
"y  c #753B3C",
"u  c #7C2121",
"i  c #744800",
"p  c #6B5C31",
"a  c #313F42",
"s  c #3A474A",
"d  c #3B4E51",
"f  c #1C7C47",
"g  c #484B4B",
"h  c #4E5253",
"j  c #545757",
"k  c #50484A",
"l  c #6A4444",
"z  c #784545",
"x  c #715858",
"c  c #675055",
"v  c #785E60",
"b  c #5B6365",
"n  c #4D6971",
"m  c #676869",
"M  c #6C7577",
"N  c #777778",
"B  c #6A6E6F",
"V  c #465973",
"C  c #830000",
"Z  c #880303",
"A  c #950000",
"S  c #9C0000",
"D  c #921818",
"F  c #A40101",
"G  c #AD0000",
"H  c #A20F0F",
"J  c #B20000",
"K  c #BC0000",
"L  c #AE1C0E",
"P  c #8B2424",
"I  c #9E2121",
"U  c #AE2222",
"Y  c #8A3500",
"T  c #CD0101",
"R  c #C30101",
"E  c #D70303",
"W  c #CD1C1C",
"Q  c #E70202",
"!  c #FF0202",
"~  c #F90606",
"^  c #ED1313",
"/  c #CE2626",
"(  c #F82323",
")  c #E92525",
"_  c #A54F08",
"`  c #9E6400",
"'  c #9E7B00",
"]  c #B8750A",
"[  c #A2733A",
"{  c #9A5500",
"}  c #D77B00",
"|  c #C77100",
" . c #CE562C",
".. c #884545",
"X. c #805D59",
"o. c #867777",
"O. c #967C79",
"+. c #876966",
"@. c #B07877",
"#. c #A7795D",
"$. c #CD7064",
"%. c #00B14D",
"&. c #62AB71",
"*. c #A99900",
"=. c #BDA400",
"-. c #928619",
";. c #C49400",
":. c #D29007",
">. c #ED9200",
",. c #D6AF00",
"<. c #F7A800",
"1. c #FCB703",
"2. c #EEB50D",
"3. c #C7A12F",
"4. c #CBC100",
"5. c #FAC801",
"6. c #FED200",
"7. c #FFDD00",
"8. c #FFCA15",
"9. c #FFD913",
"0. c #EACF00",
"q. c #FEE301",
"w. c #FEEB00",
"e. c #FDE80D",
"r. c #FFF200",
"t. c #FEFE01",
"y. c #FEFB09",
"u. c #FFE716",
"i. c #FFFE1B",
"p. c #FFFB15",
"a. c #E5E300",
"s. c #FFEB23",
"d. c #FFFE21",
"f. c #988E7D",
"g. c #928A62",
"h. c #A9955A",
"j. c #C5A356",
"k. c #E6BB4A",
"l. c #CEAF6E",
"z. c #F3CF7C",
"x. c #747D84",
"c. c #837F89",
"v. c #7C8284",
"b. c #7D888A",
"n. c #7CB4A3",
"m. c #838484",
"M. c #848B8C",
"N. c #8A8D8D",
"B. c #858485",
"V. c #958989",
"C. c #878F91",
"Z. c #8D9394",
"A. c #8D9A9C",
"S. c #879396",
"D. c #949495",
"F. c #949A9B",
"G. c #9A9D9E",
"H. c #919894",
"J. c #959089",
"K. c #B69788",
"L. c #979EA0",
"P. c #8B93A1",
"I. c #94A1A5",
"U. c #9CA3A4",
"Y. c #9CA7A9",
"T. c #9DA8B6",
"R. c #A4ABAD",
"E. c #ABADAD",
"W. c #A4A5A5",
"Q. c #B4AAAA",
"!. c #A2AEB1",
"~. c #ADB2B3",
"^. c #ABB7BA",
"/. c #B2B4B4",
"(. c #B4BBBD",
"). c #BBBCBC",
"_. c #B5B5B6",
"`. c #A7A994",
"'. c #D0B483",
"]. c #CCAEA3",
"[. c #E4B5B0",
"{. c #99DAAD",
"}. c #A1E0B4",
"|. c #F8DA9C",
" X c #F0D692",
".X c #D2CAAF",
"XX c #EAD6A9",
"oX c #E8CEAD",
"OX c #FEE9B6",
"+X c #FCEDAF",
"@X c #DAC38F",
"#X c #AEBDC1",
"$X c #B4BFC1",
"%X c #BABFC0",
"&X c #B5C1C4",
"*X c #BBC2C4",
"=X c #BDC7C9",
"-X c #BCCACD",
";X c #B7C5C8",
":X c #BEC9D2",
">X c #B4E1C9",
",X c #C3CACC",
"<X c #CBCCCC",
"1X c #C5C5C5",
"2X c #C5CFD2",
"3X c #CCCFD0",
"4X c #CBD3D4",
"5X c #CED6D8",
"6X c #CED8DA",
"7X c #C7D5D6",
"8X c #D3D4D5",
"9X c #D2D7D9",
"0X c #D4DBDC",
"qX c #D9DBDC",
"wX c #DED9D4",
"eX c #D9C6C4",
"rX c #EFD3CD",
"tX c #F6E8C5",
"yX c #FFF6C9",
"uX c #F1E8D8",
"iX c #F2ECD2",
"pX c #D5DEE0",
"aX c #D9DFE0",
"sX c #DCE2E4",
"dX c #DAE3E6",
"fX c #DEF3E2",
"gX c #E1E4E5",
"hX c #E1E7E8",
"jX c #E4EAEB",
"kX c #EAEDEE",
"lX c #E5E9E5",
"zX c #F5EEEB",
"xX c #EBEFF0",
"cX c #E5EEF0",
"vX c #EDF2F3",
"bX c #F2F5F5",
"nX c #F5FAFA",
"mX c #FDFEFE",
"MX c #F6F7F8",
"NX c #F6F8E9",
"BX c #D2E4D8",
"VX c None",
/* pixels */
"VXVXVXVXVXVXVXVXVXVXVXVXVXVXVXVXVXVXVXVXVXVXVXVXVXVXVXVXVXVXVXVXVXVXVXVXVXVXVXVXVXVXVXVXVXVXVXVXVXVXVXVXVXVXVXVXVXVXVXVXVXVXVXVX",
"VXVXVXVXVXVXVXVXVXVXVXVXVXVXVXVXVXVXVXVXVXVXVXVXVXVXVXVXVXVXVXVXVXVXVXVXVXVXVXVXVXVXVXVXVXVXVXVXVXVXVXVXVXVXVXVXVXVXVXVXVXVXVXVX",
"VXVXVXVXVXVXVXVXVXVXVXVXVXVXVXVXVXVXVXVXVXVXVXVXVXVXVXVXVXVXVXVXVXVXVXVXVXVXVXVXVXVXVXVXVXVXVXVXVXVXVXVXVXVXVXVXVXVXVXVXVXVXVXVX",
"VXVXVXVXVXVXVXVXVXVXVXVXVXVXVXVXVXVXVXVXVXVXVXVXVXVXVXVXVXVXVXVXVXVXVXVXVXVXVXVXVXVXVXVXVXVXVXVXVXVXVXVXVXVXVXVXVXVXVXVXVXVXVXVX",
"VXVXVXVXVXVXVXVXVXVXVXVXVXVXVXVXVXVXVXVXe U / ) I VXVXVXVXVXVXVXVXVXVXVXVXVXVXVXVXVXVXVXVXVXVXVXVXVXVXVXVXVXVXVXVXVXVXVXVXVXVXVX",
"VXVXVXVXVXVXVXVXVXVXVXVXVXVXVXVXVXVX4 U ( ~ ( ( ^ 4 VXVXVXVXVXVXVXVXVXVXVXVXVXVXVXVXVXVXVXVXVXVXVXVXVXVXVXVXVXVXVXVXVXVXVXVXVXVX",
"VXVXVXVXVXVXVXVXVXVXVXVXVXVXVXVXVXI ) Q Q E W ( ~ D VXVXVXVXVXVXVXVXVXVXVXVXVXVXVXVXVXVXVXVXVXVXVXVXVXVXVXVXVXVXVXVXVXVXVXVXVXVX",
"VXVXVXVXVXVXVXVXVXVXVXVXVXVXVX@ / ^ Q E E E T ^ ~ R VXVXVXVXVXVXVXVXVXVXVXVXVXVXVXVXVXVXVXVXVXVXVXVXVXVXVXVXVXVXVXVXVXVXVXVXVXVX",
"VXVXVXVXVXVXVXVXVXVXVXVXVXVX4 W Q T T T T K K T ! ~   VXVXVXVXVXVXVXVXVXVXVXVXVXVXVXVXVXVXVXVXVXVXVXVXVXVXVXVXVXVXVXVXVXVXVXVXVX",
"VXVXVXVXVXVXVXVXVXVXVXVXVXO W E R T K K R J S K Q ! C VXVXVXVXVXVXVXVXVXVXVXVXVXVXVXVXVXVXVXVXVXVXVXVXVXVXVXVXVXVXVXVXVXVXVXVXVX",
"VXVXVXVXVXVXVXVXVXVXVXVXVXH T K K K G F K G Z H W ( / VXVXVXVXVXVXVXVXVXVXVXVXVXVXVXVXVXVXVXVXVXVXVXVXVXVXVXVXVXVXVXVXVXVXVXVXVX",
"VXVXVXVXVXVXVXVXVXVXVXVX3 K K J J J G C S U P Z K ! ~   VXVXVXVXVXVXVXVXVXVXVXVXVXVXVXVXVXVXVXVXVXVXVXVXVXVXVXVXVXVXVXVXVXVXVXVX",
"VXVXVXVXVXVXVXVXVXVXVXVXS J J F A F F P 0 A 5 , ..@.@.V.N.N.G.VXVXVXD.E.N.VXVXVXVXVXVXVXVXVXVXVXVXVXVXVXVXVXVXVXVXVXVXVXVXVXVXVX",
"VXVXVXVXVXVXVXVXVXVXVX< F F S F C D I C + B.].gXvXnXnXmXmXmXwXD._.vXmXmXnXqXE.m VXVXVXVXVXVXVXVXVXVXVXVXVXVXVXVXVXVXVXVXVXVXVXVX",
"VXVXVXVXVXVXVXVXVXVXVX6 F A A A D 7 3 V.aXmXmXmXmXmXmXmX8XW.<XkXbXmXmXmXbXkXvXhXE.VXVXVXVXVXVXVXVXVXVXVXVXVXVXVXVXVXVXVXVXVXVXVX",
"VXVXVXVXVXVXVXVXVXVXVX7 A Z 8 P C e *XbXbXMXmXmXmXmXgXG./.zXgXx.n 8XmXnXbXlX~.I.5X0Xg VXVXVXVXVXVXVXVXVXVXVXVXVXVXVXVXVXVXVXVXVX",
"VXVXVXVXVXVXVXVXVXVXVX7 Z C u 5 l 2XbXkXkXbXbXmXmX).W.gXMXnXL.    C.vXnXbXxXG.  Y.dX4XX VXVXVXVXVXVXVXVXVXVXVXVXVXVXVXVXVXVXVXVX",
"VXVXVXVXVXVXVXVXVXVX  7 8 0 6 w 4XvXlXxXvXvXmXxXD.(.sX<XhXbX8Xo   a 3XmXbXvX*X  S.5XhX~.VXVXVXVXVXVXVXVXVXVXVXVXVXVXVXVXVXVXVXVX",
"VXVXVXVXVXVXVXVXVXVXVX5 6 6 , $XxXhXjXkXkXbXlXm.2XjXb   U.bXxXM.    A.bXbXkX4XO M :X0X5XN VXVXVXVXVXVXVXVXVXVXVXVXVXVXVXVXVXVXVX",
"VXVXVXVXVXVXVXVXVXVXVX2 9 , m.jXsXsXjXjXbXlXx.1XvX6Xb   - 9XnX1X    g 9XMXkXaXj d -X_.A.~.VXVXVXVXVXVXVXVXVXVXVXVXVXVXVXVXVXVXVX",
"VXVXVXVXVXVXVXVXVXVXVX, 6 + =XhXaXsXgXjXhXm.1XcXaXjX!.    W.vXxXN     I.MXxXgXN   #X(.N =Xh VXVXVXVXVXVXVXVXVXVXVXVXVXVXVXVXVXVX",
"VXVXVXVXVXVXVXVXVXVXVX@ 2 m 0X0XaXsXsXkXF.~.,Xm ,XjX4Xj   h qXnX%X    b xXMXjX,Xg Y.,XM :XN VXVXVXVXVXVXVXVXVXVXVXVXVXVXVXVXVXVX",
"VXVXVXVXVXVXVXVXVXVXVXVX# N.sX6XqX0XhX*XM.sXA.  v.sXhXU.    R.xXjXR.B.qXnXjX6XpXpXpX7Xb &XZ.VXVXVXVXVXVXVXVXVXVXVXVXVXVXVXVXVXVX",
"VXVXVXVXVXVXVXVXVXVXVXVX  U.0X5X0X0X0Xv.,XaX&Xs   1XhX2Xd   H.jXxXnXjX2XS.b q c x.T.7XE.$XA.VXVXVXVXVXVXVXVXVXVXVXVXVXVXVXVXVXVX",
"VXVXVXVXVXVXVXVXVXVXVXVXVXF.5X7X2XpXE.Z.9X5X6XC.  C.sXsX$XF.sXvX2XA.X._ } >.<.2.,.=.g.T.6XH.VXVXVXVXVXVXVXVXVXVXVXVXVXVXVXVXVXVX",
"VXVXVXVXVXVXVXVXVXVXVXVXVXb.-X4X0XpXN.;X5X4XpX$XX   2XaXjXcX2Xc.` :.5.u.u.i.p.p.i.i.t.4.f.V VXVXVXVXVXVXVXVXVXVXVXVXVXVXVXVXVXVX",
"VXVXVXVXVXVXVXVXVXVXVXVXVXM -X-X$XH.b *X9X4X5X6XC.h 8XjX:Xv.*.0.w.d.p.y.t.t.t.t.t.t.p.u.7.*.VXVXVXVXVXVXVXVXVXVXVXVXVXVXVXVXVXVX",
"VXVXVXVXVXVXVXVXVXVXVXVXVXh ^.b.E.<X*XM.A.7X5X6X5XaXpXP.-.a.y.d.y.w.t.t.t.t.t.t.t.r.w.q.2.8.,.# VXVXVXVXVXVXVXVXVXVXVXVXVXVXVXVX",
"VXVXVXVXVXVXVXVXVXVXVXVXVXVXg qXmXmXmXsXC.b.7X6XpX#Xx ,.y.d.p.t.t.6.1.u.e.w.q.w.w.r.w.r.0.< VXVXVXVXVXVXVXVXVXVXVXVXVXVXVXVXVXVX",
"VXVXVXVXVXVXVXVXVXVXVXVXVXVX_.mXnXmXbXkX:Xv.I.pXP.{ 0.s.7.y.u.q.6.5.| >.1.9.u.e.w.q.w.q.r.*.VXVXVXVXVXVXVXVXVXVXVXVXVXVXVXVXVXVX",
"VXVXVXVXVXVXVXVXVXVXVXVXVX  xXmXmXmXbXkX-X^.M n _ 1.9.=._ >.1.5.8.6.g.f.] >.<.5.9.9.q.7.w.,.VXVXVXVXVXVXVXVXVXVXVXVXVXVXVXVXVXVX",
"VXVXVXVXVXVXVXVXVXVXVXVXVX: kXmXmXbXjXgX&X$Xv.l.l.` :.[ n.&.#.] ;.,.' tXiX`.[  .>.<.8.6.q.5.2 VXVXVXVXVXVXVXVXVXVXVXVXVXVXVXVXVX",
"VXVXVXVXVXVXVXVXVXVXVXVXVX  5XkXhXsXhX6X#X;Xv.'. X.XdXBXH.%.>X'.oX].].tXyX|.wX6Xf g.Y ] :.>.i VXVXVXVXVXVXVXVXVXVXVXVXVXVXVXVXVX",
"VXVXVXVXVXVXVXVXVXVXVXVXVXVXL.dX0XaX0X;X#X$Xx.C.j..XmX{.%.>X.XXXyXyXNXNXyX|.fX}.{.`.U.VXVXVXVXVXVXVXVXVXVXVXVXVXVXVXVXVXVXVXVXVX",
"VXVXVXVXVXVXVXVXVXVXVXVXVXVX; 2XpX,X$X#X-XL.D.cX/.p /.lXfXwXXX+XXXoXXXOXOX+X@XBX~./.vXVXVXVXVXVXVXVXVXVXVXVXVXVXVXVXVXVXVXVXVXVX",
"VXVXVXVXVXVXVXVXVXVXVXVXVXVXVXg !.;X;X-X!.M 4XxXMXlXG.o.J.@XyXXXdXnXnXcXuXyXXXD.4XnXsXVXVXVXVXVXVXVXVXVXVXVXVXVXVXVXVXVXVXVXVXVX",
"VXVXVXVXVXVXVXVXVXVXVXVXVXVXVXVXVXM C.M h ,XaXaXvXmXmXdXf.|.+X|.uXzXuXiXOX+Xz.<XmXjXdXM.VXVXVXVXVXVXVXVXVXVXVXVXVXVXVXVXVXVXVXVX",
"VXVXVXVXVXVXVXVXVXVXVXVXVXVXVXVXVXVXVXVXVXZ.5XaXgXlXxX9Xk 3.j.l.3.3.k.k.k.j.i E.vXdX&X  VXVXVXVXVXVXVXVXVXVXVXVXVXVXVXVXVXVXVXVX",
"VXVXVXVXVXVXVXVXVXVXVXVXVXVXVXVXVXVXVX].MXaXZ.(.BXdXkXU.  $   O.].o.VXVXVXVX  F.sXR.v./.VXVXVXVXVXVXVXVXVXVXVXVXVXVXVXVXVXVXVXVX",
"VXVXVXVXVXVXVXVXVXVXVX<X8X8X(.VXVXVX].rXoXmXzX/.U.~.-X+. .@.O.rX1Xo.VXVXVX8X<XN.F.G.U.vXG.VXVXVXVXVXVXVXVXVXVXVXVXVXVXVXVXVXVXVX",
"VXVXVXVXVXVXVXVXVX1XjXqX2XqXnXvXP.o   A.oX[.jXkXMXwXO.K  .R V.b.  9 l * 8XmXvX5X~.C.*X9X,XVXVXVXVXVXVXVXVXVXVXVXVXVXVXVXVXVXVXVX",
"VXVXVXVXVXVXVXVX1XsXN 2 2 , l <XnXU.=   ~.K.Q.MXmXmXrX$.T $.>   z ..q - <XjX4XsXxXW.b 0XqXM.VXVXVXVXVXVXVXVXVXVXVXVXVXVXVXVXVXVX",
"VXVXVXVXVXVXVX).qX1 5 5 2 t 3 + 4XxXB   x.].kXmXmXmXmXzX[.eXd   w ..t   N.pX6X%X0X<Xv.9X4XVXVXVXVXVXVXVXVXVXVXVXVXVXVXVXVXVXVXVX",
"VXVXVXVXVXVXVX5XN 3 l Q.).x y 2 o.bX$XVXZ.xXmXmXmXmXmXgX4X).+ VXVXw t e   b.M.VXVXVXg N B VXVXVXVXVXVXVXVXVXVXVXVXVXVXVXVXVXVXVX",
"VXVXVXVXVXVX~.<X3 9 1XmXmX*X2 r l sX,X  z c.Q.].Q.Q.V.D.nXmXD.VXVXVXVXVXVXVXVXVXVXVXb G.o.VXVXVXVXVXVXVXVXVXVXVXVXVXVXVXVXVXVXVX",
"VXVXVXVXVXVX&X_.1 X.sXkXjX,Xe r w 0X2X  4 + , 3 5 6 2 M.jXgXv.VXVXVXVXVXVXVXVXVXVXVXVXM m VXVXVXVXVXVXVXVXVXVXVXVXVXVXVXVXVXVXVX",
"VXVXVXVXVXVX$X~.5 z (.pX0XH.r 9 x gX&XVX: g ; & q q q o B m = & VXVXVXVXVXVXVXVXVXVXVXVXVXVXVXVXVXVXVXVXVXVXVXVXVXVXVXVXVXVXVXVX",
"VXVXVXVXVXVX~.=X2 y v L.Z.t l 2 D.hXW.% h g ; o X > o .   * h - VXVXVXVXVXVXVXVXVXVXVXVXVXVXVXVXVXVXVXVXVXVXVXVXVXVXVXVXVXVXVXVX",
"VXVXVXVXVXVXVX6XN 3 z r r z 3 t 5X4Xv.h k - % . VXVXVX. * ; g h * VXVXVXVXVXVXVXVXVXVXVXVXVXVXVXVXVXVXVXVXVXVXVXVXVXVXVXVXVXVXVX",
"VXVXVXVXVXVXVXR.pXx 2 5 3 2 c ,X5XG.!.h = & O VXVXVXVXVXVXO & * % B VXVXVXVXVXVXVXVXVXVXVXVXVXVXVXVXVXVXVXVXVXVXVXVXVXVXVXVXVXVX",
"VXVXVXVXVXVXVXVX~.sX~.D.D.~.sX7XC.4XR.  * o VXVXVXVXVXVXVXVX  h ].nXVXVXVXVXVXVXVXVXVXVXVXVXVXVXVXVXVXVXVXVXVXVXVXVXVXVXVXVXVXVX",
"VXVXVXVXVXVXVXVXVXF.&X,X<X<XY.M v.U.~.(.& VXVXVXVXVXVXVXVXVXm 2XcXnX).VXVXVXVXVXVXVXVXVXVXVXVXVXVXVXVXVXVXVXVXVXVXVXVXVXVXVXVXVX",
"VXVXVXVXVXVXVXVXVXVXVXVXVXVXVXVX*XbXgX0XY.VXVXVXVXVXVXVXVXVX&X0XdXmX-XVXVXVXVXVXVXVXVXVXVXVXVXVXVXVXVXVXVXVXVXVXVXVXVXVXVXVXVXVX",
"VXVXVXVXVXVXVXVXVXVXVXVXVXVXVXVXkXmX9X5X(.VXVXVXVXVXVXVXVXVX(.0XdXnX<XVXVXVXVXVXVXVXVXVXVXVXVXVXVXVXVXVXVXVXVXVXVXVXVXVXVXVXVXVX",
"VXVXVXVXVXVXVXVXVXVXVXVXVXVXVXVXqXsX5XsXM.VXVXVXVXVXVXVXVXVXY.6X,XgX^.VXVXVXVXVXVXVXVXVXVXVXVXVXVXVXVXVXVXVXVXVXVXVXVXVXVXVXVXVX",
"VXVXVXVXVXVXVXVXVXVXVX_.<X*XN./.0X,X).I.VXVXVXVXVXVXVXVXVXVXN *X8X3XD.~.8X<XF.VXVXVXVXVXVXVXVXVXVXVXVXVXVXVXVXVXVXVXVXVXVXVXVXVX",
"VXVXVXVXVXVXVXVXVXVXkXmXmXmXjX*X2XjXaXB.VXVXVXVXVXVXVXVXVXVX%XjXsX/.5XbXmXmXmX1XVXVXVXVXVXVXVXVXVXVXVXVXVXVXVXVXVXVXVXVXVXVXVXVX",
"VXVXVXVXVXVXVXVXVX9XmXmXbXhXpX2XL.$XdX~.VXVXVXVXVXVXVXVXVXVXpX0XI.^.0XsXcXnXmXmXG.VXVXVXVXVXVXVXVXVXVXVXVXVXVXVXVXVXVXVXVXVXVXVX",
"VXVXVXVXVXVXVXVXVXsXaXsX0X7X-X-X$XY.sXR.VXVXVXVXVXVXVXVXVXVXsX^.Y.;X&X,X4X0X9XsXW.VXVXVXVXVXVXVXVXVXVXVXVXVXVXVXVXVXVXVXVXVXVXVX",
"VXVXVXVXVXVXVXVXVXVXVXVXVXVXVXVXVXVXVXVXVXVXVXVXVXVXVXVXVXVXVXVXVXVXVXVXVXVXVXVXVXVXVXVXVXVXVXVXVXVXVXVXVXVXVXVXVXVXVXVXVXVXVXVX",
"VXVXVXVXVXVXVXVXVXVXVXVXVXVXVXVXVXVXVXVXVXVXVXVXVXVXVXVXVXVXVXVXVXVXVXVXVXVXVXVXVXVXVXVXVXVXVXVXVXVXVXVXVXVXVXVXVXVXVXVXVXVXVXVX",
"VXVXVXVXVXVXVXVXVXVXVXVXVXVXVXVXVXVXVXVXVXVXVXVXVXVXVXVXVXVXVXVXVXVXVXVXVXVXVXVXVXVXVXVXVXVXVXVXVXVXVXVXVXVXVXVXVXVXVXVXVXVXVXVX",
"VXVXVXVXVXVXVXVXVXVXVXVXVXVXVXVXVXVXVXVXVXVXVXVXVXVXVXVXVXVXVXVXVXVXVXVXVXVXVXVXVXVXVXVXVXVXVXVXVXVXVXVXVXVXVXVXVXVXVXVXVXVXVXVX",
"VXVXVXVXVXVXVXVXVXVXVXVXVXVXVXVXVXVXVXVXVXVXVXVXVXVXVXVXVXVXVXVXVXVXVXVXVXVXVXVXVXVXVXVXVXVXVXVXVXVXVXVXVXVXVXVXVXVXVXVXVXVXVXVX"
};
