/* XPM */
static char *result[] = {
/* columns rows colors chars-per-pixel */
"64 64 233 2 ",
"   c #000000",
".  c #0C0000",
"X  c #080A0E",
"o  c #180000",
"O  c #031517",
"+  c #131313",
"@  c #171A1A",
"#  c #290000",
"$  c #390302",
"%  c #2F1C13",
"&  c #232100",
"*  c #003035",
"=  c #272827",
"-  c #2A3335",
";  c #3C3D3D",
":  c #343536",
">  c #202E31",
",  c #0F1E21",
"<  c #4C0000",
"1  c #420000",
"2  c #530000",
"3  c #5C0000",
"4  c #570A0A",
"5  c #461414",
"6  c #581919",
"7  c #580E10",
"8  c #620101",
"9  c #6C0000",
"0  c #7D0000",
"q  c #730000",
"w  c #671B1A",
"e  c #761A1A",
"r  c #6F2C00",
"t  c #473837",
"y  c #5B3737",
"u  c #502C2D",
"i  c #682928",
"p  c #693837",
"a  c #733838",
"s  c #782525",
"d  c #5E2418",
"f  c #7A521A",
"g  c #0C3C5C",
"h  c #384345",
"j  c #4D4C4C",
"k  c #434749",
"l  c #555555",
"z  c #4E4E4F",
"x  c #664344",
"c  c #784242",
"v  c #6E5758",
"b  c #5C6566",
"n  c #696A6A",
"m  c #616767",
"M  c #686B71",
"N  c #6A7578",
"B  c #767879",
"V  c #756C6F",
"C  c #840000",
"Z  c #8A0000",
"A  c #9B0101",
"S  c #950000",
"D  c #9A1919",
"F  c #851D1D",
"G  c #A30101",
"H  c #AD0000",
"J  c #B50101",
"K  c #BE0000",
"L  c #B01A1A",
"P  c #882F2F",
"I  c #AF2626",
"U  c #A12F11",
"Y  c #C30101",
"T  c #CC0000",
"R  c #D40101",
"E  c #DA0303",
"W  c #D61616",
"Q  c #E60404",
"!  c #FF0101",
"~  c #EA1F1F",
"^  c #FB1919",
"/  c #D52626",
"(  c #FF2D2D",
")  c #8F5305",
"_  c #AB5204",
"`  c #8E6709",
"'  c #B17705",
"]  c #A07E38",
"[  c #CD7500",
"{  c #DC4B31",
"}  c #8C4C43",
"|  c #AD7754",
" . c #857C79",
".. c #886D6B",
"X. c #A4706E",
"o. c #A26B54",
"O. c #C54F4F",
"+. c #00A631",
"@. c #009B4A",
"#. c #72AF7A",
"$. c #BBA400",
"%. c #A68D19",
"&. c #D08F00",
"*. c #EE9300",
"=. c #D1AD05",
"-. c #FEB601",
";. c #FEB905",
":. c #EFAE08",
">. c #DCD400",
",. c #EAC500",
"<. c #FDC400",
"1. c #FACA02",
"2. c #FDD801",
"3. c #FFCF12",
"4. c #FEE401",
"5. c #FEEB01",
"6. c #FEFE00",
"7. c #FEF804",
"8. c #FFE618",
"9. c #FFFE14",
"0. c #FFFF1D",
"q. c #FFFB22",
"w. c #FFE42C",
"e. c #9B944F",
"r. c #AA9864",
"t. c #D19473",
"y. c #D1B062",
"u. c #DEB658",
"i. c #F3CC73",
"p. c #797F81",
"a. c #607F8B",
"s. c #817D88",
"d. c #7D8384",
"f. c #7B868A",
"g. c #7E8F92",
"h. c #65A293",
"j. c #828485",
"k. c #848B8C",
"l. c #8A8D8D",
"z. c #898484",
"x. c #8A8E91",
"c. c #8C9294",
"v. c #8C9598",
"b. c #889598",
"n. c #949494",
"m. c #959B9C",
"M. c #9B9D9E",
"N. c #959797",
"B. c #968D87",
"V. c #A49A9A",
"C. c #A1928B",
"Z. c #B3AB95",
"A. c #939DA5",
"S. c #9BA2A4",
"D. c #9BA6A9",
"F. c #99ABB0",
"G. c #A5A5A5",
"H. c #A5AAAC",
"J. c #A9ABAC",
"K. c #AAA2A3",
"L. c #B5ABAB",
"P. c #A7AFB1",
"I. c #ABB2B4",
"U. c #AAB6B9",
"Y. c #B1B3B4",
"T. c #B4BABC",
"R. c #BABCBE",
"E. c #B7B5B4",
"W. c #B2B3AB",
"Q. c #E8A49C",
"!. c #CAB9AB",
"~. c #EAB8B1",
"^. c #D4B284",
"/. c #A3D6B9",
"(. c #9EE1AF",
"). c #D9C493",
"_. c #E7CD96",
"`. c #F4D79A",
"'. c #FFE195",
"]. c #DAC9A9",
"[. c #C0D3BE",
"{. c #E3D3AC",
"}. c #E9D4BA",
"|. c #FDE7A8",
" X c #FDEAB7",
".X c #FFF2BB",
"XX c #B4BFC1",
"oX c #BABFC0",
"OX c #B5C2C5",
"+X c #BCC2C4",
"@X c #BAC6C9",
"#X c #BCC9CC",
"$X c #B7C5C8",
"%X c #BEC7D2",
"&X c #A6E6C0",
"*X c #C1C3C4",
"=X c #C4CBCC",
"-X c #CBCCCD",
";X c #C5C7C8",
":X c #C4CED2",
">X c #CBCFD1",
",X c #C7D1D3",
"<X c #CBD3D5",
"1X c #CED6D9",
"2X c #CED9DB",
"3X c #C7D9DC",
"4X c #D1D4D4",
"5X c #D2D7D8",
"6X c #D4DBDD",
"7X c #DADCDD",
"8X c #D3DBD2",
"9X c #EDD6CF",
"0X c #DCECDF",
"qX c #FBECC4",
"wX c #FFF4CA",
"eX c #FFF8DA",
"rX c #E9E2D0",
"tX c #D5DEE1",
"yX c #D9DFE1",
"uX c #DBE2E3",
"iX c #D9E3E5",
"pX c #E2E5E6",
"aX c #E2E7E8",
"sX c #E5EAEB",
"dX c #EAEDEE",
"fX c #ECEFF0",
"gX c #E7EFF1",
"hX c #EDF1F2",
"jX c #F2F5F6",
"kX c #F4F7F8",
"lX c #F6F9FA",
"zX c #FDFEFE",
"xX c None",
/* pixels */
"xXxXxXxXxXxXxXxXxXxXxXxXxXxXxXxXxXxXxXxXxXxXxXxXxXxXxXxXxXxXxXxXxXxXxXxXxXxXxXxXxXxXxXxXxXxXxXxXxXxXxXxXxXxXxXxXxXxXxXxXxXxXxXxX",
"xXxXxXxXxXxXxXxXxXxXxXxXxXxXxXxXxXxXxXxXxXxXxXxXxXxXxXxXxXxXxXxXxXxXxXxXxXxXxXxXxXxXxXxXxXxXxXxXxXxXxXxXxXxXxXxXxXxXxXxXxXxXxXxX",
"xXxXxXxXxXxXxXxXxXxXxXxXxXxXxXxXxXxXxXxXxXxXxXxXxXxXxXxXxXxXxXxXxXxXxXxXxXxXxXxXxXxXxXxXxXxXxXxXxXxXxXxXxXxXxXxXxXxXxXxXxXxXxXxX",
"xXxXxXxXxXxXxXxXxXxXxXxXxXxXxXxXxXxXxXxXxXxXxXxXxXxXxXxXxXxXxXxXxXxXxXxXxXxXxXxXxXxXxXxXxXxXxXxXxXxXxXxXxXxXxXxXxXxXxXxXxXxXxXxX",
"xXxXxXxXxXxXxXxXxXxXxXxXxXxXxXxXxXxXxXxXxX6 I / I 5 xXxXxXxXxXxXxXxXxXxXxXxXxXxXxXxXxXxXxXxXxXxXxXxXxXxXxXxXxXxXxXxXxXxXxXxXxXxX",
"xXxXxXxXxXxXxXxXxXxXxXxXxXxXxXxXxXxXxXw / ~ ~ ( ^ D xXxXxXxXxXxXxXxXxXxXxXxXxXxXxXxXxXxXxXxXxXxXxXxXxXxXxXxXxXxXxXxXxXxXxXxXxXxX",
"xXxXxXxXxXxXxXxXxXxXxXxXxXxXxXxXxXxXI ~ Q Q E ~ ^ W xXxXxXxXxXxXxXxXxXxXxXxXxXxXxXxXxXxXxXxXxXxXxXxXxXxXxXxXxXxXxXxXxXxXxXxXxXxX",
"xXxXxXxXxXxXxXxXxXxXxXxXxXxXxXxX6 / Q Q R R R W ! ! 4 xXxXxXxXxXxXxXxXxXxXxXxXxXxXxXxXxXxXxXxXxXxXxXxXxXxXxXxXxXxXxXxXxXxXxXxXxX",
"xXxXxXxXxXxXxXxXxXxXxXxXxXxXxXw / Q R R T T K Y Q ! G xXxXxXxXxXxXxXxXxXxXxXxXxXxXxXxXxXxXxXxXxXxXxXxXxXxXxXxXxXxXxXxXxXxXxXxXxX",
"xXxXxXxXxXxXxXxXxXxXxXxXxXxX6 W R T T K Y K G J T ! E xXxXxXxXxXxXxXxXxXxXxXxXxXxXxXxXxXxXxXxXxXxXxXxXxXxXxXxXxXxXxXxXxXxXxXxXxX",
"xXxXxXxXxXxXxXxXxXxXxXxXxX  L R Y K Y A J K A S J ^ ^ i xXxXxXxXxXxXxXxXxXxXxXxXxXxXxXxXxXxXxXxXxXxXxXxXxXxXxXxXxXxXxXxXxXxXxXxX",
"xXxXxXxXxXxXxXxXxXxXxXxXxXC Y K J J J G Z J D P D E ! J xXxXxXxXxXxXxXxXxXxXxXxXxXxXxXxXxXxXxXxXxXxXxXxXxXxXxXxXxXxXxXxXxXxXxXxX",
"xXxXxXxXxXxXxXxXxXxXxXxX# H J H G G G H e D A < 2 D O.o.M B j.xXxXxXl G.H.B xXxXxXxXxXxXxXxXxXxXxXxXxXxXxXxXxXxXxXxXxXxXxXxXxXxX",
"xXxXxXxXxXxXxXxXxXxXxXxX8 H G G A C D D q $ ..L.7XsXkXlXzXzXzXE.l.;XzXzXzXhX5XG.l xXxXxXxXxXxXxXxXxXxXxXxXxXxXxXxXxXxXxXxXxXxXxX",
"xXxXxXxXxXxXxXxXxXxXxXxXZ A A A A F 0 9  .5XzXzXzXzXzXzXzX-XK.4XdXkXzXzXlXdXhXhXuXM.xXxXxXxXxXxXxXxXxXxXxXxXxXxXxXxXxXxXxXxXxXxX",
"xXxXxXxXxXxXxXxXxXxXxXo Z S Z C P 0 6 oXlXlXzXzXzXzXzX5XN.oXlX-Xb b.aXzXlXdXuXN.D.iX;X  xXxXxXxXxXxXxXxXxXxXxXxXxXxXxXxXxXxXxXxX",
"xXxXxXxXxXxXxXxXxXxXxX$ C Z C s 9 x 4XkXdXdXjXlXzXzXY.J.aXlXdXm     U.zXlXfXpXn h T.sXoXxXxXxXxXxXxXxXxXxXxXxXxXxXxXxXxXxXxXxXxX",
"xXxXxXxXxXxXxXxXxXxXxX$ C 0 s 9 t <XhXsXdXjXfXzXdXn.*XpX5XdXjXJ.    M pXzXfXdXA.  F.6XpXA.xXxXxXxXxXxXxXxXxXxXxXxXxXxXxXxXxXxXxX",
"xXxXxXxXxXxXxXxXxXxXxX$ q e 9 < +XfXpXdXfXdXlXpXd.>XiX-   ;XlXuXz     T.zXfXgXR.  b.1X1X=Xm xXxXxXxXxXxXxXxXxXxXxXxXxXxXxXxXxXxX",
"xXxXxXxXxXxXxXxXxXxXxXo 8 w 1 l.sXpXaXsXsXjXpXB >XhX@X>   B dXlXJ.    M pXlXsX4X  N <XA.S.M.xXxXxXxXxXxXxXxXxXxXxXxXxXxXxXxXxXxX",
"xXxXxXxXxXxXxXxXxXxXxXxX4 8 5 =XaXyXpXaXdXaXj.>XfXyXuXk.    +XkXuXk   , XXkXsXyXl * +XH.s.oXxXxXxXxXxXxXxXxXxXxXxXxXxXxXxXxXxXxX",
"xXxXxXxXxXxXxXxXxXxXxXxX5 2 B iXyXyXuXuXsXM.I.=Xc.6XsX@X-   p.sXjXJ.    k.lXjXsX+Xl oXXX#.,Xb xXxXxXxXxXxXxXxXxXxXxXxXxXxXxXxXxX",
"xXxXxXxXxXxXxXxXxXxXxXxX% 1 m.iX5XyXtXaX+Xk.iXd.  H.sXtXk.  X *XhXaXN.n.sXlXyX:X3XtXuX>Xb #Xd.xXxXxXxXxXxXxXxXxXxXxXxXxXxXxXxXxX",
"xXxXxXxXxXxXxXxXxXxXxXxXxX  P.tX1X6X6XyXd.=XiXP.  ; 1XsX@XO   H.dXhXkXsXOXp.j i x V A.%XI.,Xd.xXxXxXxXxXxXxXxXxXxXxXxXxXxXxXxXxX",
"xXxXxXxXxXxXxXxXxXxXxXxXxX  P.tX<X1XyXI.c.6X5X1XN   H.iXtXF.v.aXhX,Xv.} _ &.:.-.<.:.>.e.A.%Xc.xXxXxXxXxXxXxXxXxXxXxXxXxXxXxXxXxX",
"xXxXxXxXxXxXxXxXxXxXxXxXxXxXv.<X,X,XyXl.OX1X<XtXI.  : 1XtXgXkX%Xs.` &.<.8.q.9.9.9.0.0.7.>.e.g xXxXxXxXxXxXxXxXxXxXxXxXxXxXxXxXxX",
"xXxXxXxXxXxXxXxXxXxXxXxXxXxXd.@X:X<XP.N <X6X<X1X1XN - 4XgX3Xf.%.,.5.q.9.6.6.7.6.6.6.6.8.w.2.=.f xXxXxXxXxXxXxXxXxXxXxXxXxXxXxXxX",
"xXxXxXxXxXxXxXxXxXxXxXxXxXxXm @Xv.c.H.M.d.P.2X<X4X<X5XuXg.%.>.6.q.6.5.6.6.6.6.7.7.7.7.5.4.:.:.$.& xXxXxXxXxXxXxXxXxXxXxXxXxXxXxX",
"xXxXxXxXxXxXxXxXxXxXxXxXxXxXxXb R.zXzXlX<XB A.2X<XyX$XM $.6.q.9.6.6.1.-.8.8.2.4.5.5.5.5.5.4.& xXxXxXxXxXxXxXxXxXxXxXxXxXxXxXxXxX",
"xXxXxXxXxXxXxXxXxXxXxXxXxXxXxXn.zXzXzXlXdX@XN P.iXF.f :.w.4.7.8.4.2.1.[ *.-.3.8.8.4.5.5.4.5.$.xXxXxXxXxXxXxXxXxXxXxXxXxXxXxXxXxX",
"xXxXxXxXxXxXxXxXxXxXxXxXxXxXxXpXzXzXzXjXsX=XP.d.a.) -.w.=._ *.;.1.3.1.e.V.%.[ *.;.2.8.4.4.4.,.xXxXxXxXxXxXxXxXxXxXxXxXxXxXxXxXxX",
"xXxXxXxXxXxXxXxXxXxXxXxXxXxXO sXzXzXlXdXsX@XXXp.r.t.' &.' h.#.o.' &.=.' 9XqXZ.| | [ *.;.<.2.<.r xXxXxXxXJ.xXxXxXxXxXxXxXxXxXxXxX",
"xXxXxXxXxXxXxXxXxXxXxXxXxXxXxX,XkXdXpXsXiXOXOXf.).'.W.yX<XW.+./.^.{.].].rXeX`.rXtX@.r.r ) ' &.f xXz.dXzXzXxXxXxXxXxXxXxXxXxXxXxX",
"xXxXxXxXxXxXxXxXxXxXxXxXxXxXxXG.uX6XyXuX#XU.OXf.B y.].zX&X+./.[.`.wXwXeXwXwX`.rX&X(.K.U.xXxXxXxXxXpXsX5XzXN.xXxXxXxXxXxXxXxXxXxX",
"xXxXxXxXxXxXxXxXxXxXxXxXxXxXxXz 1XiX<X$XU.@XP.k.uXI.f L.sX0XuX]. XqXqXqX.XqX.X_.8XY.I.kXS.xXxXxXoXhXOXuX7XxXxXxXxXxXxXxXxXxXxXxX",
"xXxXxXxXxXxXxXxXxXxXxXxXxXxXxXxXb OX$XOX#X$XB I.hXjX4Xl.#.C.)..XqX X{.{.{.}.qX XB.>XzXhXA.xXxXM.kX:XyXfXB xXxXxXxXxXxXxXxXxXxXxX",
"xXxXxXxXxXxXxXxXxXxXxXxXxXxXxXxXxXh k.S.b.k H.uXuXfXzXzXaXn._.wX|. X X_.).'.|.i.!.lXhXaXS.xXxXdX1X,XhXM.xXxXxXxXxXxXxXxXxXxXxXxX",
"xXxXxXxXxXxXxXxXxXxXxXxXxXxXxXxXxXxXxXxXb c.A.<XyXuXsXfXaX .%.y.y.y.i.i.i.u.y.` l.sXiX3XxXxX-XiX:XdXE.xXxXxXxXxXxXxXxXxXxXxXxXxX",
"xXxXxXxXxXxXxXxXxXxXxXxX>X4X=XxXxXxXxXL.~.zX7Xl.OXtXpXsX=X      T.C.xXxXxXxXxXxXxXgX+XxXxXY.sX=XuX*XxXxXxXxXxXxXxXxXxXxXxXxXxXxX",
"xXxXxXxXxXxXxXxXxXxX6XiX>X4XdXlXE.X = N.9XQ.zXsXJ.M.I.3XN.U  .p ~.9XB.xXxXxXxXxXxXB xXxXn.sX1X2X6XxXxXxXxXxXxXxXxXxXxXxXxXxXxXxX",
"xXxXxXxXxXxXxXxXE.sXN.y 2 < 2 G.lX:X;   b.}.!.4XzXjX;X} D { o.!.E.M z xXxXxXxXxXxXxXxXxX<X6X,XaXj.xXxXxXxXxXxXxXxXxXxXxXxXxXxXxX",
"xXxXxXxXxXxXxXxXiXV 2 8 < w p # V.kXS.  = J.X.7XzXzXzXt.R R } * X % p a p xXxXxXxXxXxXY.iX=XuXS.xXxXxXxXxXxXxXxXxXxXxXxXxXxXxXxX",
"xXxXxXxXxXxXxX=XM.2 p V.-Xz.i i y uX6X  > !.fXzXzXzXzXzXQ.Q.V.  t c c x u . xXxXxXxXG.iX:XiXI.xXxXxXxXxXxXxXxXxXxXxXxXxXxXxXxXxX",
"xXxXxXxXxXxXxX1Xx 9 L.zXzXuXp p 2 ;XuXz y 4XkXzXzXzXzXlX4X;Xv xXy } y O j.7XfXE.= j I.,X6X;XxXxXxXxXxXxXxXxXxXxXxXxXxXxXxXxXxXxX",
"xXxXxXxXxXxXT.*X2 c >XdXpX2Xv i 2 *X6Xh w a ..V.K.L.K.B.yXkXK.xXxXc o M yXgXkX7XI.=Xl j.R.xXxXxXxXxXxXxXxXxXxXxXxXxXxXxXxXxXxXxX",
"xXxXxXxXxXxXT.R.8 a H.6X2Xm.i p y 4X:XxX$ t 2 8 9 9 3 B hXzXI.xXxXxXxXv.uX:X7X=XXX7X. n j xXxXxXxXxXxXxXxXxXxXxXxXxXxXxXxXxXxXxX",
"xXxXxXxXxXxXH.:X7 a v N.x.p a 2 s.dXP.xX: k : > : t t : c.m.h . xXxXxXxXS.@XuXuXk.J.I.+XxXxXxXxXxXxXxXxXxXxXxXxXxXxXxXxXxXxXxXxX",
"xXxXxXxXxXxXxX1X .2 c w i c 8 y 4X4Xp.; j j : @ O @ @     . z t xXxXxXxXxXA.gXT.h ;XyXI.xXxXxXxXxXxXxXxXxXxXxXxXxXxXxXxXxXxXxXxX",
"xXxXxXxXxXxXxXH.iXV 2 3 3 < v ,X1XD.c.; j ; = X xXxXxX+ = : k z = xXxXxXxXxXf.c.T.7X5Xx.xXxXxXxXxXxXxXxXxXxXxXxXxXxXxXxXxXxXxXxX",
"xXxXxXxXxXxXxXxXJ.uXT.M.M.E.yX=XG.<Xl.@ ; = + xXxXxXxXxXxX+ : = = V xXxXxXxX  l.aX=XM.xXxXxXxXxXxXxXxXxXxXxXxXxXxXxXxXxXxXxXxXxX",
"xXxXxXxXxXxXxXxXxXxX+X=X:X@XS.d.v.XXx.j @ @ xXxXxXxXxXxXxXxX  l /.jXxXxXxXn K.l xXxXxXxXxXxXxXxXxXxXxXxXxXxXxXxXxXxXxXxXxXxXxXxX",
"xXxXxXxXxXxXxXxXxXxXxXxXxXxXxXxXN.4XsX+X@ xXxXxXxXxXxXxXxXxXm :XdXjXR.xXxXn B xXxXxXxXxXxXxXxXxXxXxXxXxXxXxXxXxXxXxXxXxXxXxXxXxX",
"xXxXxXxXxXxXxXxXxXxXxXxXxXxXxXxX-XzXiX6XD.xXxXxXxXxXxXxXxXxXXX6X7XzX*XxXxXxXxXxXxXxXxXxXxXxXxXxXxXxXxXxXxXxXxXxXxXxXxXxXxXxXxXxX",
"xXxXxXxXxXxXxXxXxXxXxXxXxXxXxXxXdXzX5X5XT.xXxXxXxXxXxXxXxXxXT.6XpXzX-XxXxXxXxXxXxXxXxXxXxXxXxXxXxXxXxXxXxXxXxXxXxXxXxXxXxXxXxXxX",
"xXxXxXxXxXxXxXxXxXxXxXxXxXxXxXxX6XiX1XiXk.xXxXxXxXxXxXxXxXxXD.2X=XuXT.xXxXxXxXxXxXxXxXxXxXxXxXxXxXxXxXxXxXxXxXxXxXxXxXxXxXxXxXxX",
"xXxXxXxXxXxXxXxXxXxXxXE.-X+Xl.Y.5X;XR.S.xXxXxXxXxXxXxXxXxXxXB +X5X>Xn.I.4X-XN.xXxXxXxXxXxXxXxXxXxXxXxXxXxXxXxXxXxXxXxXxXxXxXxXxX",
"xXxXxXxXxXxXxXxXxXxXdXzXzXzXsXoX-XdXuXj.xXxXxXxXxXxXxXxXxXxXoXaXpXY.1XkXzXzXzX*XxXxXxXxXxXxXxXxXxXxXxXxXxXxXxXxXxXxXxXxXxXxXxXxX",
"xXxXxXxXxXxXxXxXxX5XzXzXjXsXyX:XA.XXiXI.xXxXxXxXxXxXxXxXxXxXtX6XA.U.5XuXgXkXzXzXm.xXxXxXxXxXxXxXxXxXxXxXxXxXxXxXxXxXxXxXxXxXxXxX",
"xXxXxXxXxXxXxXxXxXiXyXuXyX<X#X#XXXD.iXH.xXxXxXxXxXxXxXxXxXxXiXT.D.$XOX=X,X6X5XiXG.xXxXxXxXxXxXxXxXxXxXxXxXxXxXxXxXxXxXxXxXxXxXxX",
"xXxXxXxXxXxXxXxXxXxXxXxXxXxXxXxXxXxXxXxXxXxXxXxXxXxXxXxXxXxXxXxXxXxXxXxXxXxXxXxXxXxXxXxXxXxXxXxXxXxXxXxXxXxXxXxXxXxXxXxXxXxXxXxX",
"xXxXxXxXxXxXxXxXxXxXxXxXxXxXxXxXxXxXxXxXxXxXxXxXxXxXxXxXxXxXxXxXxXxXxXxXxXxXxXxXxXxXxXxXxXxXxXxXxXxXxXxXxXxXxXxXxXxXxXxXxXxXxXxX",
"xXxXxXxXxXxXxXxXxXxXxXxXxXxXxXxXxXxXxXxXxXxXxXxXxXxXxXxXxXxXxXxXxXxXxXxXxXxXxXxXxXxXxXxXxXxXxXxXxXxXxXxXxXxXxXxXxXxXxXxXxXxXxXxX",
"xXxXxXxXxXxXxXxXxXxXxXxXxXxXxXxXxXxXxXxXxXxXxXxXxXxXxXxXxXxXxXxXxXxXxXxXxXxXxXxXxXxXxXxXxXxXxXxXxXxXxXxXxXxXxXxXxXxXxXxXxXxXxXxX",
"xXxXxXxXxXxXxXxXxXxXxXxXxXxXxXxXxXxXxXxXxXxXxXxXxXxXxXxXxXxXxXxXxXxXxXxXxXxXxXxXxXxXxXxXxXxXxXxXxXxXxXxXxXxXxXxXxXxXxXxXxXxXxXxX"
};
