/* XPM */
static char *result[] = {
/* columns rows colors chars-per-pixel */
"64 64 50 1 ",
"  c #020302",
". c #0A0604",
"X c #0D0805",
"o c #120603",
"O c #120A06",
"+ c #1D0E09",
"@ c #1F100B",
"# c #22120C",
"$ c #2B160D",
"% c #2D180E",
"& c #2C1611",
"* c #2E1812",
"= c #321A13",
"- c #3A1F17",
"; c #3B1F18",
": c #3D2117",
"> c #3D2118",
", c #432216",
"< c #492617",
"1 c #43241A",
"2 c #49271C",
"3 c #4D291D",
"4 c #532C1E",
"5 c #582F1F",
"6 c #4F2B20",
"7 c #542E21",
"8 c #582F21",
"9 c #5B3123",
"0 c #623525",
"q c #673827",
"w c #6A3927",
"e c #653728",
"r c #663828",
"t c #6D3B29",
"y c #713E2B",
"u c #76412C",
"i c #7B432F",
"p c #7E4530",
"a c #80462F",
"s c #814630",
"d c #864A32",
"f c #8D4E35",
"g c #904F36",
"h c #8E5038",
"j c #925037",
"k c #945239",
"l c #9A563D",
"z c #9E593F",
"x c #9E5940",
"c c #A05A41",
/* pixels */
"111->->->->->>>>;>;>;>>>>>>>>;->-->>>>>>;;;;;;;>;-->-;;-:--:-11,",
"1129999998998988899998998997999998998988888899999989999999999211",
"122ikzzzzzxzxxzzccxcxxxxxxxxxxxzxxxxxxxxcccccxxxxxxxzzzzzzlji32,",
"-9i>ujjjjjkkkjjjjjgjjjjjjjjhjjjjjjjjkjjhkgggjjkjkjjjkkkkjjku>i9>",
"-9li:ijfgi<whfffffffffffffffffffffffffffffffffffffffw<igfju1uf4:",
"-5xki1ujf< Odhfffffffffffhffffffffffhffffffffffffffd  4ghi:iji7:",
"-5zjfi:uku:whffhggggfghfhfhfgffffgfjfffhgggggfgghfhf0,iku:ijfi5>",
"-9zjfki,ukdffdfffddfdddhfdfdffdfdfddffdffdddfdfgfdfffdky:ijfdi7>",
";5zkdyfi,yauuuuipupupypupiiiipipiiiuypuppyppyysyiiiiudu:igtffi5:",
";5zk< 5ku1433334237777776766676747777777777788332323331ik5 4fy7:",
";5zk4 9fd4udadadgy*###++#@#&#####@##+#&#+++##*ydasssdu3kk5 4fp7:",
"-5zkdtffi3akfifjlcy-77776;9e6666764716e77776-ycljjifjs2zldtfdp7:",
"-5zjfjfdi3aj5 3ffkcy6999919y9999999e66ye999>yckdjy =fp3ljfjgdp7:",
";8xjffjdi3ak3 ,fgdlct>99769y9999999966y999;yxxffjw $fs2zkfffdp7:",
"-9zjffffi3akdwagdfdxxy;97;9y9999997966re7>yxkdfgfftijs2xkgfjdp7:",
"-9xjfffdi4ijfkffhhhdxxt676ey9999999966y9>ycxhhfffgjgfp3xkffffp7:",
"-9xjffhdi3pdffffffjffkcu:69y9999999927t2yckfffffffffpi3lkffjfi5>",
"-5xjffhdp3rppfhffffffflzy;0t99999999272tzkffffjffggupw3zkfffdi5>",
"-5zjfgjdi9&uppfffffhhffkcy1t999999993>uzkffffhfffgiiw*5lkfhffi7>",
"-9zjfffdp9O&tppffjfffffflcy199999999:tzkfjfjffffgiit*O9lkffhdi7>",
"-9zjffffi9*X*tppfffffffffkcu>9999991uzkfffffhffhiit*X=9zkffjdi5>",
">8zjfffdi97> *tpiffjffhfffkcy>9999>tzlffffffhffiit* 188lkffffi7>",
"-5zjfffdi979>.*tapffffffffflcy:99>yxkfffffjfffppt* 1979zkfffdi7>",
">8zjffffp9799>.*tapfffjffffhkcy11txxffffjffffppt=.19979zkffffi5>",
"-8zhfffdi94999*O=tpifffhhhfffkxrtxkffffjhfffppw* 6r9979lkffjdp5:",
"-5zjffjdi979966>X=tsihffffffffffxxdfgffffffppw*.=ur9975lkfffdp5:",
">8zjffffp979966r2 =tiifffffhffdxxdhfgfffffppw*O>6r99979lkffjdp7>",
">9xjfffdi979766rw>X*upihjfffffxldhhhfhffhppr* 171ur9979xlffffi7>",
"-5zkfhfdi879976ew9>.*tppfffffzkffgfgffffiiu*.>962r99979lkfffdi5>",
">8xjfffdp879976rr99> *tiifffxkfffffffgfpuu& >9962ur9979llffjdp7>",
">5zjffffi979976rr999> *ussfxkfffffffffppu& 199961ur9975lkffffi5>",
"-7zhfffdi869971rw9999>.*wfzkhfhffgfffppw= >999966u99985lkfffdi7>",
"-8cjffffi979976tt99999;&txxfgffgffffpifw&:9999976ye7979xhffjfi5>",
"-8xkfffdi979961rr799981ycldffffffgfpidgly19999966rr7979xkffhdi4>",
";8xhfffdi979971rt99991yckhgfffffffppdffkcy1899976yr9977xkffffi5>",
";8chffffy969976rr999>yckfffffgffgppdffffkcy>99966yr7967xkfhhdi4>",
"-8cgffgdp969966er991yckffgfffhfgppdfgffgfkcy>997>te9979xkffffi7:",
"-8lkffgdp979976er91tckffffgffggpidgfffffffkcy>976te9967xkfjhdi7:",
"-8ckffhdi97e976tr;txlffgfgffffppdddgfhfgfhfkcy176re7979xkfffdi8>",
"-8cgffhhy969961e6yxxffffffhfgsywwspfgfffffhdxcy:60e9979xkffhfp7:",
";8zjffhfp879976;yxxdffgfhhffysw**tsphhfffgfffjcy>te9975lkffjdi5:",
";8xjfffds97997-yxxdfffffhdfppy*..*tpyhfgffgfffkct699949zkfffdi5:",
"-5zjfffdy9709>yxxffhffgfdhppt* 11 *wsphhfffffffjxu>9979zkffjdi8>",
"-9zjffffp878>ycxdhfffgffxppt* ;99: *tpuhgfgfgfffxxu>975lkggffi5>",
"-9xjfffdp87>yxxffffffffgppt= ;9799>X*yppfgfgffffdkcy149lkfffdi7>",
"-9zjffgdp8-yxldgfgfggffspt* >999999>.*tppffffffghdkcy-9zkffjfi4>",
"-5zjffffy7wxxdhffgffffsyt* 699999999-.*ypiffffhffhfkct3zkffffi8>",
">8zjfffdp2fxffffffffgssy= 1y999999996*O*tpifgfffffgdkd2zkffhdi7>",
"-8zjffffu4ajjggffgffppt=X$0t99999999176 =tppfhfffgfggi3lkgfjfi7:",
"-8zjffgdi3aju3ugfffsit*.=20t9999999966u6 *tsifffgd30js3ljfffdi7:",
">8zjfffdi3aj- $dffppt* >919y9999999917y9> *tpuffkq odd3lkfffdp7:",
">9xjfjjdi3ajt#wjfspt= -9919y9999997966u991 *tpufgi=5fs3llfjjdp8:",
"-5zku5afu4akggjjfpw*.:99910y99999e9937u0991X*tpiggggjd3lku5ifi7>",
">7zj: 4fa4yaaaaai0*O*774617r7777666613r7677=O=wiaasidy2lk< <fp7>",
"-8zk0+yju1333443370999999999999999e9999999999944443433:ikt+wfi7>",
"-8zjffju:ilzzzzlzxxxxczzxxxxxxxxxxxxxxcxxxxxlzzzlllzzci:ukfhdi5>",
"-9xjfjy1ijagkgggjjjggjjjjgjjgggkxhgkggkgjjjgjjjjggggfaki,uggfi4;",
"-9zjju1ik0 ,fffgffffffffffffgfffhdffffffffffffffffff- qki1ukfi5:",
"-9jju:igf4 =fffgfgfffffffffffgffhfffffgffjfffffffggf% 9fgi1ukd4:",
"-5ku1ijfgftagggffhjfgggfggfggfffffhfggfgffjfffjfgfggatfffji:ij7;",
"-9i:ifddddffddddfddddfddddddfdddddddddddfddddddfdfddffddddgi:u9:",
"112ifppiiiiiiiiiiiiiiiiiiiiiiiiiipiiiippiiiiiiiiiiiiiiiiiisgi22,",
"1129777758878888879778887895888887888878887879887755888887779211",
"111->::;->;;;;;;;;-;;:;;:;;;;;;;;;;;;;;;;;;;;-;;;;;;;;;;;;:;-:11"
};
